{"glyphs":{"0":{"ha":950,"x_min":0,"x_max":0,"o":"m 438 -28 l 478 -24 l 517 -25 l 557 -19 l 604 -11 l 622 -6 l 640 4 l 664 18 l 694 39 l 728 64 l 756 93 l 778 119 l 789 138 l 794 153 l 803 168 l 813 186 l 824 211 l 831 229 l 836 249 l 846 281 l 849 307 l 851 322 l 853 339 l 857 357 l 858 381 l 858 400 l 861 424 l 864 460 l 867 486 l 865 497 l 863 528 l 863 558 l 857 582 l 854 631 l 849 663 l 846 679 l 840 700 l 839 715 l 836 729 l 826 754 l 818 778 l 811 792 l 804 808 l 799 822 l 790 833 l 776 858 l 763 878 l 747 894 l 740 906 l 725 919 l 710 928 l 679 951 l 657 963 l 635 972 l 603 985 l 565 996 l 544 999 l 522 1003 l 488 1004 l 456 1004 l 432 1003 l 418 999 l 403 999 l 375 993 l 335 981 l 318 971 l 265 943 l 251 932 l 232 918 l 217 904 l 206 892 l 190 874 l 182 857 l 174 847 l 164 835 l 157 819 l 142 792 l 133 768 l 128 753 l 118 724 l 108 692 l 101 672 l 103 663 l 100 651 l 99 636 l 99 624 l 92 596 l 89 563 l 88 547 l 85 522 l 88 500 l 86 485 l 83 468 l 89 433 l 89 392 l 93 375 l 93 365 l 96 357 l 96 347 l 99 331 l 106 300 l 111 278 l 113 261 l 118 246 l 119 236 l 125 224 l 132 206 l 136 192 l 142 176 l 150 161 l 156 156 l 158 146 l 165 132 l 178 119 l 185 110 l 200 92 l 213 75 l 222 65 l 246 50 l 265 32 l 283 22 l 293 15 l 299 10 l 314 0 l 340 -10 l 363 -14 l 383 -18 z m 478 135 l 440 138 l 407 147 l 383 157 l 351 175 l 322 204 l 307 229 l 296 251 l 285 272 l 278 292 l 272 307 l 267 326 l 263 350 l 258 382 l 257 413 l 256 442 l 254 460 l 253 468 l 256 482 l 251 497 l 254 519 l 257 540 l 260 565 l 264 615 l 276 674 l 278 683 l 283 707 l 299 743 l 313 764 l 331 785 l 357 810 l 382 826 l 397 833 l 426 839 l 456 843 l 483 842 l 521 839 l 551 832 l 572 825 l 582 818 l 597 810 l 619 792 l 626 783 l 635 772 l 642 764 l 656 738 l 665 711 l 667 701 l 671 689 l 675 675 l 681 656 l 686 628 l 690 610 l 693 592 l 696 561 l 699 532 l 701 517 l 701 494 l 699 463 l 701 436 l 697 417 l 696 397 l 693 378 l 692 358 l 689 336 l 685 315 l 679 297 l 669 276 l 663 256 l 654 240 l 644 222 l 631 200 l 614 183 l 603 175 l 585 161 l 565 153 l 557 151 l 547 146 l 522 142 z "},"1":{"ha":685,"x_min":0,"x_max":0,"o":"m 550 -3 l 568 -3 l 583 3 l 597 10 l 606 24 l 614 43 l 614 85 l 613 122 l 603 140 l 583 153 l 561 156 l 528 156 l 501 153 l 485 156 l 471 158 l 465 165 l 463 178 l 461 200 l 461 235 l 457 279 l 457 378 l 460 426 l 460 450 l 458 478 l 457 504 l 457 535 l 460 583 l 463 626 l 460 665 l 460 696 l 458 746 l 457 803 l 458 828 l 460 858 l 461 890 l 461 926 l 454 949 l 442 961 l 432 969 l 418 971 l 403 974 l 374 975 l 339 968 l 281 939 l 268 932 l 260 926 l 251 924 l 240 919 l 228 911 l 218 906 l 211 901 l 200 897 l 176 882 l 153 871 l 132 860 l 117 853 l 101 844 l 86 833 l 78 824 l 71 811 l 69 797 l 71 778 l 79 754 l 92 736 l 101 724 l 107 715 l 115 708 l 129 700 l 144 696 l 153 694 l 164 697 l 181 703 l 200 711 l 235 732 l 265 749 l 272 751 l 275 751 l 285 744 l 289 718 l 292 697 l 289 679 l 289 657 l 290 643 l 289 613 l 290 581 l 289 551 l 292 525 l 290 506 l 290 465 l 288 431 l 289 414 l 285 393 l 289 356 l 288 315 l 289 271 l 290 246 l 290 199 l 286 169 l 276 158 l 265 157 l 253 158 l 243 158 l 233 160 l 214 158 l 185 157 l 157 151 l 139 144 l 129 129 l 122 110 l 122 93 l 121 71 l 124 50 l 129 35 l 142 14 l 167 3 l 200 0 l 315 -1 l 338 0 l 365 1 l 400 0 l 433 4 l 471 3 l 492 0 z "},"2":{"ha":906,"x_min":0,"x_max":0,"o":"m 181 -4 l 203 0 l 217 -3 l 224 0 l 231 4 l 246 4 l 281 -3 l 304 0 l 308 1 l 321 1 l 329 6 l 339 3 l 346 3 l 360 4 l 378 4 l 449 -1 l 460 3 l 472 4 l 488 1 l 497 1 l 506 0 l 519 3 l 544 3 l 569 0 l 585 0 l 600 1 l 621 1 l 633 -3 l 640 3 l 653 1 l 665 3 l 672 -1 l 679 -1 l 688 1 l 700 3 l 717 6 l 736 4 l 750 1 l 763 13 l 775 25 l 779 35 l 781 43 l 783 57 l 785 74 l 785 93 l 783 110 l 772 129 l 758 143 l 749 146 l 738 146 l 726 149 l 711 150 l 699 147 l 688 146 l 674 150 l 661 151 l 650 149 l 632 153 l 596 153 l 586 150 l 575 146 l 558 150 l 540 151 l 526 147 l 518 151 l 513 153 l 506 151 l 500 149 l 494 151 l 488 154 l 461 153 l 439 153 l 424 150 l 399 156 l 322 156 l 307 165 l 307 174 l 318 188 l 333 206 l 347 219 l 353 224 l 361 224 l 368 225 l 372 235 l 381 236 l 390 238 l 401 244 l 414 250 l 421 256 l 421 257 l 417 260 l 419 263 l 426 265 l 433 264 l 438 272 l 446 279 l 457 282 l 464 286 l 471 294 l 483 304 l 494 308 l 500 310 l 503 313 l 510 318 l 515 319 l 524 315 l 529 321 l 531 326 l 536 335 l 556 353 l 572 364 l 583 372 l 593 376 l 604 378 l 613 379 l 629 393 l 636 400 l 646 406 l 657 414 l 667 422 l 678 433 l 685 439 l 685 449 l 689 453 l 692 451 l 694 453 l 700 457 l 703 460 l 700 461 l 701 465 l 704 467 l 715 474 l 722 488 l 724 496 l 733 503 l 740 511 l 746 517 l 750 525 l 750 536 l 754 543 l 760 550 l 767 560 l 772 572 l 778 586 l 782 599 l 788 613 l 790 626 l 790 642 l 792 664 l 792 685 l 789 718 l 788 736 l 783 751 l 781 763 l 776 781 l 768 801 l 754 833 l 736 860 l 728 868 l 719 879 l 708 896 l 694 910 l 678 921 l 663 932 l 650 939 l 642 946 l 628 953 l 607 965 l 586 969 l 565 978 l 540 983 l 519 990 l 503 993 l 482 996 l 458 997 l 443 999 l 418 1000 l 390 997 l 369 996 l 358 988 l 350 983 l 333 981 l 318 975 l 301 967 l 292 965 l 279 960 l 260 947 l 247 942 l 240 936 l 217 924 l 186 899 l 168 879 l 163 874 l 154 863 l 144 850 l 136 844 l 129 833 l 118 806 l 108 775 l 103 763 l 104 756 l 110 743 l 117 729 l 126 718 l 146 706 l 168 699 l 188 694 l 204 694 l 219 697 l 232 701 l 238 713 l 247 725 l 263 744 l 276 760 l 285 775 l 294 790 l 308 796 l 313 806 l 319 811 l 328 811 l 329 818 l 342 829 l 356 836 l 364 838 l 376 839 l 399 842 l 415 844 l 429 842 l 447 838 l 467 839 l 489 838 l 521 828 l 554 808 l 579 789 l 603 764 l 617 738 l 624 715 l 628 689 l 626 664 l 626 646 l 624 631 l 617 611 l 608 592 l 599 578 l 586 561 l 571 547 l 556 531 l 539 518 l 531 514 l 526 508 l 514 501 l 499 493 l 494 486 l 489 482 l 469 474 l 447 460 l 436 454 l 426 446 l 411 438 l 396 428 l 383 419 l 371 414 l 361 411 l 356 403 l 340 394 l 319 382 l 300 371 l 281 357 l 261 342 l 239 328 l 225 317 l 218 310 l 196 301 l 192 293 l 181 279 l 167 268 l 158 258 l 151 247 l 139 232 l 126 218 l 117 199 l 110 188 l 101 175 l 97 161 l 92 143 l 90 132 l 92 128 l 90 115 l 86 104 l 85 90 l 83 75 l 90 63 l 100 46 l 114 29 l 128 17 l 138 8 l 140 7 l 151 4 l 161 1 l 169 3 z "},"3":{"ha":911,"x_min":0,"x_max":0,"o":"m 446 -32 l 476 -32 l 500 -29 l 513 -26 l 533 -24 l 551 -19 l 582 -8 l 603 3 l 621 11 l 638 21 l 660 36 l 674 50 l 682 57 l 692 63 l 733 104 l 746 121 l 760 142 l 768 160 l 776 181 l 785 208 l 792 233 l 794 254 l 797 264 l 797 281 l 800 313 l 797 338 l 797 350 l 794 364 l 793 376 l 790 393 l 783 417 l 776 433 l 769 451 l 760 464 l 756 475 l 744 486 l 714 521 l 703 535 l 693 542 l 676 556 l 653 567 l 633 578 l 614 585 l 589 594 l 557 606 l 533 608 l 531 611 l 526 617 l 533 633 l 549 646 l 558 658 l 571 668 l 588 682 l 599 696 l 601 706 l 608 707 l 622 714 l 647 736 l 663 751 l 675 763 l 696 783 l 710 799 l 725 814 l 747 835 l 761 860 l 764 893 l 764 917 l 757 935 l 747 957 l 733 968 l 717 964 l 706 964 l 690 968 l 676 969 l 660 968 l 644 969 l 638 969 l 633 968 l 619 971 l 604 969 l 597 971 l 590 969 l 575 972 l 557 971 l 539 968 l 519 969 l 506 968 l 496 972 l 481 974 l 468 971 l 458 974 l 442 975 l 421 972 l 407 976 l 397 974 l 342 974 l 333 976 l 326 975 l 311 978 l 289 976 l 274 975 l 265 976 l 203 971 l 178 969 l 151 961 l 136 943 l 131 925 l 131 901 l 133 874 l 136 854 l 142 844 l 144 835 l 154 828 l 182 822 l 199 819 l 213 817 l 250 817 l 282 821 l 353 821 l 360 825 l 364 825 l 367 822 l 378 821 l 390 824 l 393 826 l 397 829 l 404 822 l 414 829 l 419 822 l 431 821 l 447 821 l 460 822 l 467 818 l 468 807 l 460 794 l 449 782 l 436 769 l 406 738 l 393 725 l 389 719 l 363 692 l 335 669 l 332 668 l 321 656 l 310 642 l 304 638 l 294 626 l 281 617 l 268 607 l 254 597 l 246 590 l 229 574 l 222 565 l 217 549 l 217 529 l 224 506 l 239 482 l 250 471 l 263 460 l 296 444 l 333 454 l 368 468 l 396 472 l 415 476 l 439 478 l 453 478 l 488 475 l 496 474 l 501 474 l 506 476 l 514 479 l 524 475 l 528 471 l 535 468 l 551 458 l 575 440 l 603 411 l 628 361 l 638 328 l 639 324 l 638 313 l 636 292 l 628 265 l 622 244 l 617 232 l 600 201 l 576 176 l 561 164 l 546 153 l 531 146 l 511 136 l 489 132 l 454 128 l 424 131 l 400 135 l 368 143 l 344 151 l 324 161 l 306 172 l 283 194 l 264 224 l 251 242 l 239 257 l 229 269 l 208 283 l 179 288 l 167 283 l 157 281 l 129 268 l 103 244 l 93 231 l 90 218 l 90 203 l 96 189 l 103 175 l 107 164 l 114 156 l 122 138 l 133 121 l 150 100 l 174 74 l 211 43 l 224 35 l 235 31 l 242 26 l 271 10 l 297 -3 l 322 -11 l 357 -18 l 392 -26 l 421 -29 z "},"4":{"ha":921,"x_min":0,"x_max":0,"o":"m 568 -1 l 586 0 l 601 -1 l 625 0 l 649 0 l 664 1 l 682 0 l 708 0 l 735 1 l 771 0 l 801 1 l 825 7 l 839 19 l 843 32 l 851 56 l 851 88 l 846 118 l 835 138 l 825 147 l 813 153 l 796 156 l 778 156 l 728 161 l 715 160 l 707 161 l 697 164 l 693 168 l 690 174 l 688 186 l 688 210 l 686 229 l 688 236 l 690 244 l 697 254 l 731 261 l 778 264 l 815 269 l 836 292 l 846 315 l 847 342 l 849 363 l 846 381 l 839 401 l 825 414 l 817 418 l 800 422 l 769 424 l 724 425 l 693 431 l 689 438 l 688 444 l 686 482 l 686 517 l 688 522 l 688 567 l 689 590 l 688 611 l 689 626 l 689 647 l 686 663 l 688 676 l 685 688 l 675 707 l 657 725 l 633 726 l 601 732 l 574 729 l 558 725 l 551 721 l 546 717 l 531 701 l 524 690 l 522 672 l 524 646 l 524 621 l 526 586 l 525 549 l 524 519 l 522 504 l 522 468 l 517 438 l 482 431 l 433 429 l 368 429 l 332 428 l 311 432 l 311 439 l 338 492 l 353 518 l 368 543 l 372 554 l 385 578 l 406 615 l 419 643 l 424 657 l 431 671 l 442 694 l 451 718 l 458 742 l 469 768 l 475 792 l 482 818 l 494 860 l 501 882 l 504 910 l 503 921 l 485 956 l 451 978 l 393 978 l 385 975 l 376 968 l 369 964 l 363 953 l 353 940 l 350 931 l 346 921 l 342 899 l 328 857 l 318 826 l 311 806 l 300 782 l 292 760 l 282 739 l 275 722 l 269 711 l 264 697 l 254 682 l 249 671 l 246 657 l 235 639 l 228 629 l 224 619 l 217 607 l 210 597 l 203 585 l 200 574 l 192 561 l 183 546 l 175 532 l 167 517 l 160 507 l 150 494 l 126 460 l 100 418 l 85 393 l 75 375 l 72 364 l 69 344 l 79 324 l 89 311 l 94 299 l 111 279 l 142 264 l 188 261 l 219 263 l 254 263 l 267 261 l 285 263 l 307 261 l 347 263 l 381 263 l 392 264 l 403 263 l 417 265 l 451 265 l 489 264 l 508 257 l 519 239 l 524 219 l 522 210 l 521 193 l 515 172 l 504 167 l 490 165 l 472 164 l 458 161 l 401 161 l 385 157 l 371 149 l 361 133 l 354 110 l 350 88 l 350 65 l 354 36 l 364 13 l 379 6 l 407 4 l 443 3 l 465 4 l 482 3 l 536 3 z "},"5":{"ha":907,"x_min":0,"x_max":0,"o":"m 442 -28 l 461 -28 l 501 -25 l 525 -19 l 546 -12 l 567 -4 l 606 14 l 619 21 l 633 26 l 669 50 l 703 81 l 714 90 l 724 104 l 738 124 l 756 157 l 774 197 l 783 229 l 789 260 l 793 281 l 793 297 l 796 331 l 796 379 l 792 400 l 788 425 l 782 454 l 772 483 l 765 499 l 751 521 l 735 546 l 722 564 l 700 589 l 674 611 l 656 624 l 636 636 l 610 649 l 592 656 l 572 660 l 561 663 l 514 674 l 489 674 l 479 671 l 463 669 l 446 672 l 435 671 l 426 672 l 419 671 l 410 668 l 388 661 l 365 658 l 349 653 l 333 649 l 319 651 l 314 667 l 314 685 l 318 704 l 325 735 l 331 758 l 335 786 l 339 796 l 344 808 l 365 810 l 393 806 l 410 806 l 449 799 l 467 797 l 474 799 l 490 799 l 513 797 l 549 794 l 578 797 l 604 803 l 635 808 l 656 814 l 685 824 l 704 832 l 725 842 l 739 853 l 746 867 l 749 906 l 744 929 l 733 946 l 715 964 l 704 969 l 689 976 l 654 979 l 639 974 l 597 961 l 588 956 l 578 953 l 531 950 l 518 953 l 507 950 l 489 951 l 467 953 l 453 953 l 442 956 l 432 957 l 421 957 l 406 958 l 396 961 l 385 963 l 371 967 l 350 969 l 338 976 l 324 976 l 310 982 l 299 982 l 247 983 l 236 982 l 225 972 l 214 964 l 206 954 l 192 926 l 186 904 l 182 882 l 176 851 l 171 831 l 165 801 l 160 785 l 156 765 l 153 740 l 147 711 l 140 675 l 136 644 l 131 617 l 128 593 l 124 574 l 122 558 l 117 538 l 113 513 l 108 497 l 108 483 l 106 467 l 100 440 l 94 419 l 101 393 l 119 376 l 138 365 l 157 361 l 178 358 l 206 360 l 231 365 l 250 381 l 263 400 l 278 424 l 307 456 l 339 482 l 371 499 l 417 511 l 458 515 l 508 507 l 521 501 l 556 482 l 582 461 l 592 451 l 604 432 l 618 401 l 626 379 l 631 365 l 635 340 l 633 322 l 633 297 l 631 279 l 624 258 l 615 239 l 604 217 l 599 204 l 597 200 l 588 192 l 575 181 l 546 158 l 503 140 l 464 135 l 442 133 l 426 131 l 407 133 l 396 136 l 375 140 l 354 147 l 344 150 l 333 157 l 321 165 l 308 175 l 297 182 l 290 189 l 279 199 l 274 206 l 269 210 l 242 254 l 229 271 l 218 279 l 203 283 l 181 285 l 168 289 l 149 283 l 125 274 l 113 263 l 103 249 l 96 225 l 90 210 l 92 199 l 103 165 l 115 142 l 138 111 l 156 94 l 174 76 l 189 60 l 199 51 l 218 39 l 239 24 l 249 18 l 268 14 l 293 1 l 329 -8 l 344 -11 l 369 -15 l 390 -22 l 417 -24 z "},"6":{"ha":911,"x_min":0,"x_max":0,"o":"m 479 -29 l 492 -26 l 525 -21 l 546 -15 l 561 -10 l 568 -8 l 579 -4 l 601 3 l 618 11 l 632 17 l 647 29 l 665 40 l 686 56 l 715 78 l 751 122 l 761 132 l 767 143 l 774 151 l 785 174 l 797 207 l 804 239 l 810 272 l 814 293 l 814 307 l 815 322 l 814 340 l 810 375 l 801 426 l 793 456 l 788 476 l 779 494 l 774 506 l 769 518 l 756 540 l 739 569 l 726 583 l 707 596 l 679 617 l 656 633 l 626 647 l 601 658 l 589 661 l 582 665 l 572 667 l 553 668 l 532 672 l 518 669 l 457 674 l 428 672 l 417 669 l 401 667 l 392 664 l 381 661 l 372 667 l 376 678 l 383 689 l 404 710 l 422 725 l 457 750 l 475 761 l 504 778 l 535 793 l 565 804 l 586 813 l 600 814 l 611 819 l 617 824 l 639 831 l 657 839 l 669 854 l 675 882 l 676 901 l 674 926 l 668 943 l 654 958 l 638 969 l 626 972 l 601 974 l 576 972 l 563 971 l 526 958 l 504 950 l 471 935 l 444 921 l 429 914 l 388 889 l 369 879 l 353 869 l 338 857 l 322 846 l 314 838 l 306 831 l 301 822 l 294 819 l 282 806 l 271 792 l 260 782 l 243 767 l 225 747 l 213 731 l 203 714 l 192 699 l 186 688 l 175 668 l 165 647 l 161 633 l 157 625 l 153 613 l 147 599 l 142 582 l 136 574 l 132 557 l 125 540 l 124 525 l 117 508 l 111 490 l 104 467 l 104 449 l 101 431 l 99 397 l 101 372 l 103 361 l 101 349 l 101 331 l 104 310 l 107 296 l 108 276 l 114 250 l 121 231 l 136 196 l 149 164 l 160 147 l 167 131 l 176 121 l 190 101 l 210 79 l 231 57 l 251 40 l 269 31 l 292 18 l 311 8 l 318 3 l 332 -1 l 349 -8 l 365 -14 l 385 -15 l 408 -21 l 439 -25 l 464 -26 z m 449 133 l 421 138 l 407 140 l 375 156 l 346 174 l 333 185 l 310 213 l 297 232 l 288 258 l 275 294 l 274 308 l 271 329 l 272 353 l 274 365 l 278 379 l 292 411 l 314 443 l 346 476 l 378 500 l 392 506 l 421 514 l 460 515 l 488 513 l 525 507 l 565 490 l 583 476 l 594 469 l 600 463 l 607 451 l 618 436 l 632 415 l 640 396 l 646 385 l 649 371 l 650 356 l 651 347 l 649 324 l 646 293 l 644 283 l 640 269 l 635 250 l 626 229 l 611 201 l 593 185 l 576 172 l 550 156 l 522 143 l 499 136 l 478 133 z "},"7":{"ha":833,"x_min":0,"x_max":0,"o":"m 300 -7 l 310 -6 l 332 -4 l 356 0 l 367 4 l 375 13 l 383 29 l 392 49 l 394 67 l 396 88 l 399 118 l 399 165 l 404 196 l 406 208 l 408 221 l 411 242 l 417 263 l 421 282 l 425 303 l 431 321 l 440 346 l 456 386 l 465 413 l 474 429 l 485 456 l 497 482 l 510 504 l 524 529 l 539 558 l 558 586 l 569 607 l 581 621 l 597 649 l 619 675 l 638 699 l 653 722 l 663 735 l 672 746 l 690 768 l 697 783 l 710 792 l 722 806 l 733 817 l 753 839 l 764 864 l 760 888 l 757 906 l 753 915 l 740 939 l 719 956 l 707 961 l 686 967 l 658 968 l 626 968 l 597 969 l 583 969 l 560 968 l 542 968 l 522 971 l 474 971 l 442 974 l 418 972 l 396 974 l 376 972 l 267 972 l 251 969 l 231 971 l 197 969 l 171 971 l 156 969 l 133 968 l 117 965 l 103 958 l 93 949 l 85 939 l 78 932 l 75 925 l 71 910 l 69 888 l 72 857 l 79 842 l 89 831 l 106 818 l 122 813 l 188 813 l 228 811 l 249 813 l 258 814 l 272 811 l 294 813 l 319 811 l 339 813 l 374 811 l 464 811 l 482 808 l 492 807 l 499 800 l 489 772 l 474 749 l 461 733 l 447 710 l 433 689 l 426 676 l 418 664 l 399 632 l 383 606 l 372 586 l 354 554 l 344 535 l 339 525 l 311 468 l 300 436 l 285 397 l 276 371 l 269 354 l 254 293 l 244 264 l 242 232 l 238 214 l 232 178 l 226 113 l 228 71 l 235 43 l 244 18 l 257 7 l 288 -4 z "},"8":{"ha":964,"x_min":0,"x_max":0,"o":"m 475 -28 l 501 -26 l 522 -22 l 535 -21 l 546 -18 l 569 -18 l 593 -17 l 610 -14 l 668 4 l 703 18 l 721 31 l 744 46 l 758 58 l 782 85 l 803 110 l 810 121 l 821 135 l 825 147 l 831 157 l 838 168 l 842 183 l 847 204 l 849 222 l 851 235 l 851 250 l 850 265 l 847 310 l 833 351 l 824 382 l 808 414 l 788 443 l 776 457 l 756 476 l 743 504 l 756 525 l 768 542 l 776 554 l 788 569 l 796 582 l 807 610 l 814 633 l 819 665 l 822 679 l 824 697 l 822 721 l 822 743 l 818 768 l 811 783 l 808 794 l 801 815 l 792 833 l 783 850 l 767 875 l 742 900 l 717 924 l 693 940 l 668 954 l 629 972 l 597 981 l 582 985 l 558 990 l 542 996 l 468 996 l 458 993 l 422 993 l 413 989 l 396 985 l 385 983 l 378 982 l 358 978 l 340 968 l 321 964 l 296 953 l 265 933 l 244 921 l 231 915 l 215 900 l 203 881 l 189 865 l 178 851 l 164 829 l 157 808 l 150 792 l 147 769 l 144 758 l 142 743 l 142 728 l 140 718 l 138 711 l 138 699 l 142 686 l 140 679 l 142 667 l 143 651 l 149 635 l 154 617 l 167 590 l 181 563 l 193 544 l 206 525 l 213 511 l 213 497 l 208 488 l 197 478 l 178 458 l 165 444 l 151 424 l 142 403 l 138 392 l 131 371 l 126 357 l 118 336 l 115 315 l 114 299 l 111 276 l 113 253 l 113 226 l 117 213 l 119 190 l 125 171 l 129 158 l 136 140 l 151 119 l 167 96 l 179 81 l 196 65 l 208 58 l 215 51 l 222 47 l 240 33 l 261 24 l 278 13 l 300 6 l 314 1 l 321 -1 l 332 -6 l 346 -12 l 368 -18 l 390 -18 l 403 -21 l 422 -21 l 446 -26 z m 488 129 l 449 132 l 426 132 l 382 142 l 353 151 l 322 169 l 293 201 l 283 221 l 279 238 l 275 251 l 275 275 l 282 304 l 297 338 l 338 371 l 374 390 l 401 397 l 432 404 l 461 408 l 488 407 l 508 407 l 531 401 l 556 397 l 571 393 l 579 392 l 596 383 l 622 369 l 656 342 l 678 313 l 685 289 l 689 264 l 683 238 l 676 211 l 668 194 l 658 183 l 643 171 l 624 158 l 610 149 l 599 147 l 589 144 l 564 139 l 536 135 l 518 133 z m 483 579 l 449 581 l 422 589 l 390 599 l 369 608 l 349 621 l 333 635 l 321 646 l 308 660 l 304 679 l 300 704 l 306 736 l 315 763 l 328 779 l 346 794 l 369 808 l 392 819 l 421 828 l 442 833 l 451 833 l 467 838 l 496 835 l 521 833 l 536 832 l 549 829 l 564 826 l 582 815 l 599 806 l 614 794 l 629 779 l 649 753 l 658 718 l 657 696 l 646 658 l 619 624 l 582 603 l 540 586 l 518 582 z "},"9":{"ha":910,"x_min":0,"x_max":0,"o":"m 310 -10 l 335 -8 l 349 -7 l 385 6 l 407 14 l 440 29 l 467 44 l 482 50 l 524 75 l 542 85 l 558 94 l 575 107 l 589 119 l 606 133 l 610 142 l 617 144 l 629 158 l 640 172 l 651 182 l 668 197 l 686 218 l 699 233 l 708 250 l 719 265 l 725 276 l 736 296 l 746 317 l 750 331 l 754 339 l 758 351 l 764 365 l 769 382 l 775 390 l 779 407 l 786 425 l 788 439 l 794 456 l 800 474 l 807 497 l 807 515 l 811 533 l 813 567 l 810 592 l 808 603 l 810 615 l 810 633 l 807 654 l 804 668 l 803 688 l 797 714 l 790 733 l 775 768 l 763 800 l 751 817 l 744 833 l 736 844 l 721 863 l 701 885 l 681 907 l 660 924 l 642 933 l 619 946 l 600 956 l 593 961 l 579 965 l 563 972 l 546 978 l 526 979 l 503 985 l 472 989 l 447 990 l 432 993 l 419 990 l 386 985 l 365 979 l 350 974 l 343 972 l 332 968 l 310 961 l 293 954 l 279 947 l 264 935 l 246 924 l 225 910 l 196 886 l 160 842 l 150 832 l 144 821 l 139 813 l 126 790 l 114 757 l 107 725 l 101 692 l 97 671 l 97 658 l 96 642 l 97 624 l 101 589 l 110 538 l 118 508 l 124 488 l 132 469 l 138 458 l 142 446 l 156 424 l 174 394 l 185 382 l 204 368 l 232 347 l 256 331 l 285 317 l 310 307 l 322 303 l 329 299 l 339 297 l 358 296 l 379 292 l 393 294 l 454 290 l 483 292 l 494 294 l 510 297 l 519 300 l 531 303 l 539 297 l 535 286 l 528 275 l 507 254 l 489 239 l 454 214 l 436 203 l 407 186 l 376 171 l 346 160 l 325 151 l 311 150 l 300 144 l 294 140 l 272 133 l 254 125 l 242 110 l 236 82 l 235 63 l 238 38 l 243 21 l 257 6 l 274 -6 l 286 -8 z m 451 449 l 424 451 l 386 457 l 346 474 l 328 488 l 317 494 l 313 503 l 304 513 l 293 528 l 279 549 l 271 569 l 265 579 l 263 594 l 261 608 l 260 618 l 263 640 l 265 671 l 267 681 l 271 694 l 276 714 l 285 735 l 300 763 l 318 779 l 335 792 l 361 808 l 389 821 l 413 828 l 433 831 l 463 831 l 490 828 l 504 824 l 536 808 l 565 790 l 579 779 l 601 751 l 614 732 l 624 706 l 636 669 l 638 656 l 640 635 l 639 611 l 638 599 l 633 585 l 619 553 l 597 521 l 565 488 l 533 464 l 519 458 l 490 450 z "},"A":{"ha":1067,"x_min":0,"x_max":0,"o":"m 176 -18 l 199 -12 l 214 0 l 231 25 l 244 47 l 251 68 l 263 92 l 271 111 l 278 125 l 282 140 l 296 165 l 324 221 l 332 233 l 350 243 l 372 244 l 396 247 l 415 246 l 451 249 l 497 247 l 660 247 l 694 249 l 722 246 l 736 236 l 746 218 l 758 196 l 768 179 l 774 167 l 789 135 l 801 107 l 810 92 l 825 60 l 838 33 l 842 15 l 856 1 l 868 -10 l 900 -17 l 949 -4 l 976 10 l 992 28 l 997 58 l 990 82 l 981 111 l 968 138 l 961 149 l 949 175 l 932 208 l 926 226 l 921 239 l 911 260 l 897 293 l 872 340 l 854 383 l 843 411 l 829 436 l 822 454 l 814 468 l 806 492 l 797 514 l 785 536 l 775 557 l 769 572 l 760 589 l 750 614 l 735 644 l 719 679 l 710 699 l 703 718 l 692 743 l 683 768 l 674 786 l 665 808 l 639 860 l 625 890 l 611 922 l 603 939 l 593 957 l 578 971 l 560 975 l 522 975 l 488 968 l 471 954 l 461 938 l 456 926 l 447 911 l 439 894 l 429 881 l 422 861 l 417 847 l 414 836 l 404 817 l 392 793 l 385 772 l 369 740 l 349 688 l 336 660 l 314 608 l 294 567 l 283 536 l 267 507 l 247 457 l 236 433 l 226 413 l 217 393 l 203 361 l 181 318 l 168 286 l 154 256 l 128 203 l 119 181 l 107 151 l 99 135 l 92 119 l 83 99 l 71 74 l 71 49 l 76 32 l 90 15 l 110 0 l 135 -12 l 153 -17 z m 614 404 l 521 407 l 482 410 l 457 410 l 433 411 l 424 421 l 424 435 l 426 447 l 428 458 l 442 486 l 453 511 l 465 546 l 483 583 l 507 636 l 518 671 l 529 693 l 546 679 l 561 643 l 571 618 l 582 592 l 600 547 l 614 521 l 644 467 l 653 446 l 657 421 l 651 408 l 647 407 l 646 406 z "},"Á":{"ha":1067,"x_min":0,"x_max":0,"o":"m 176 -18 l 199 -12 l 214 0 l 231 25 l 244 47 l 251 68 l 263 92 l 271 111 l 278 125 l 282 140 l 296 165 l 324 221 l 332 233 l 350 243 l 372 244 l 396 247 l 415 246 l 451 249 l 497 247 l 660 247 l 694 249 l 722 246 l 736 236 l 746 218 l 758 196 l 768 179 l 774 167 l 789 135 l 801 107 l 810 92 l 825 60 l 838 33 l 842 15 l 856 1 l 868 -10 l 900 -17 l 949 -4 l 976 10 l 992 28 l 997 58 l 990 82 l 981 111 l 968 138 l 961 149 l 949 175 l 932 208 l 926 226 l 921 239 l 911 260 l 897 293 l 872 340 l 854 383 l 843 411 l 829 436 l 822 454 l 814 468 l 806 492 l 797 514 l 785 536 l 775 557 l 769 572 l 760 589 l 750 614 l 735 644 l 719 679 l 710 699 l 703 718 l 692 743 l 683 768 l 674 786 l 665 808 l 639 860 l 625 890 l 611 922 l 603 939 l 593 957 l 578 971 l 560 975 l 522 975 l 488 968 l 471 954 l 461 938 l 456 926 l 447 911 l 439 894 l 429 881 l 422 861 l 417 847 l 414 836 l 404 817 l 392 793 l 385 772 l 369 740 l 349 688 l 336 660 l 314 608 l 294 567 l 283 536 l 267 507 l 247 457 l 236 433 l 226 413 l 217 393 l 203 361 l 181 318 l 168 286 l 154 256 l 128 203 l 119 181 l 107 151 l 99 135 l 92 119 l 83 99 l 71 74 l 71 49 l 76 32 l 90 15 l 110 0 l 135 -12 l 153 -17 z m 614 404 l 521 407 l 482 410 l 457 410 l 433 411 l 424 421 l 424 435 l 426 447 l 428 458 l 442 486 l 453 511 l 465 546 l 483 583 l 507 636 l 518 671 l 529 693 l 546 679 l 561 643 l 571 618 l 582 592 l 600 547 l 614 521 l 644 467 l 653 446 l 657 421 l 651 408 l 647 407 l 646 406 z m 501 1090 l 518 1100 l 533 1121 l 551 1142 l 558 1158 l 572 1176 l 592 1201 l 599 1214 l 610 1229 l 625 1249 l 640 1264 l 651 1278 l 663 1296 l 672 1319 l 667 1339 l 658 1357 l 640 1372 l 614 1392 l 593 1400 l 576 1403 l 558 1403 l 544 1396 l 535 1386 l 528 1375 l 519 1367 l 513 1357 l 501 1343 l 493 1328 l 483 1319 l 476 1306 l 460 1285 l 447 1267 l 438 1250 l 422 1229 l 408 1206 l 397 1189 l 394 1172 l 399 1154 l 410 1133 l 433 1117 l 451 1108 l 471 1097 z "},"Ă":{"ha":1067,"x_min":0,"x_max":0,"o":"m 176 -18 l 199 -12 l 214 0 l 231 25 l 244 47 l 251 68 l 263 92 l 271 111 l 278 125 l 282 140 l 296 165 l 324 221 l 332 233 l 350 243 l 372 244 l 396 247 l 415 246 l 451 249 l 497 247 l 660 247 l 694 249 l 722 246 l 736 236 l 746 218 l 758 196 l 768 179 l 774 167 l 789 135 l 801 107 l 810 92 l 825 60 l 838 33 l 842 15 l 856 1 l 868 -10 l 900 -17 l 949 -4 l 976 10 l 992 28 l 997 58 l 990 82 l 981 111 l 968 138 l 961 149 l 949 175 l 932 208 l 926 226 l 921 239 l 911 260 l 897 293 l 872 340 l 854 383 l 843 411 l 829 436 l 822 454 l 814 468 l 806 492 l 797 514 l 785 536 l 775 557 l 769 572 l 760 589 l 750 614 l 735 644 l 719 679 l 710 699 l 703 718 l 692 743 l 683 768 l 674 786 l 665 808 l 639 860 l 625 890 l 611 922 l 603 939 l 593 957 l 578 971 l 560 975 l 522 975 l 488 968 l 471 954 l 461 938 l 456 926 l 447 911 l 439 894 l 429 881 l 422 861 l 417 847 l 414 836 l 404 817 l 392 793 l 385 772 l 369 740 l 349 688 l 336 660 l 314 608 l 294 567 l 283 536 l 267 507 l 247 457 l 236 433 l 226 413 l 217 393 l 203 361 l 181 318 l 168 286 l 154 256 l 128 203 l 119 181 l 107 151 l 99 135 l 92 119 l 83 99 l 71 74 l 71 49 l 76 32 l 90 15 l 110 0 l 135 -12 l 153 -17 z m 614 404 l 521 407 l 482 410 l 457 410 l 433 411 l 424 421 l 424 435 l 426 447 l 428 458 l 442 486 l 453 511 l 465 546 l 483 583 l 507 636 l 518 671 l 529 693 l 546 679 l 561 643 l 571 618 l 582 592 l 600 547 l 614 521 l 644 467 l 653 446 l 657 421 l 651 408 l 647 407 l 646 406 z m 544 1099 l 583 1101 l 601 1106 l 614 1111 l 631 1121 l 643 1129 l 656 1140 l 669 1157 l 681 1171 l 701 1206 l 721 1250 l 728 1279 l 732 1311 l 725 1332 l 708 1354 l 686 1368 l 658 1374 l 632 1371 l 617 1368 l 604 1361 l 596 1351 l 569 1272 l 554 1251 l 533 1246 l 519 1247 l 500 1261 l 488 1282 l 482 1310 l 475 1339 l 464 1354 l 446 1367 l 425 1372 l 390 1371 l 358 1358 l 346 1349 l 339 1335 l 335 1315 l 336 1285 l 340 1250 l 350 1226 l 361 1200 l 375 1178 l 386 1161 l 401 1150 l 415 1139 l 421 1132 l 443 1122 l 465 1108 l 486 1103 l 508 1100 z "},"Â":{"ha":1067,"x_min":0,"x_max":0,"o":"m 176 -18 l 199 -12 l 214 0 l 231 25 l 244 47 l 251 68 l 263 92 l 271 111 l 278 125 l 282 140 l 296 165 l 324 221 l 332 233 l 350 243 l 372 244 l 396 247 l 415 246 l 451 249 l 497 247 l 660 247 l 694 249 l 722 246 l 736 236 l 746 218 l 758 196 l 768 179 l 774 167 l 789 135 l 801 107 l 810 92 l 825 60 l 838 33 l 842 15 l 856 1 l 868 -10 l 900 -17 l 949 -4 l 976 10 l 992 28 l 997 58 l 990 82 l 981 111 l 968 138 l 961 149 l 949 175 l 932 208 l 926 226 l 921 239 l 911 260 l 897 293 l 872 340 l 854 383 l 843 411 l 829 436 l 822 454 l 814 468 l 806 492 l 797 514 l 785 536 l 775 557 l 769 572 l 760 589 l 750 614 l 735 644 l 719 679 l 710 699 l 703 718 l 692 743 l 683 768 l 674 786 l 665 808 l 639 860 l 625 890 l 611 922 l 603 939 l 593 957 l 578 971 l 560 975 l 522 975 l 488 968 l 471 954 l 461 938 l 456 926 l 447 911 l 439 894 l 429 881 l 422 861 l 417 847 l 414 836 l 404 817 l 392 793 l 385 772 l 369 740 l 349 688 l 336 660 l 314 608 l 294 567 l 283 536 l 267 507 l 247 457 l 236 433 l 226 413 l 217 393 l 203 361 l 181 318 l 168 286 l 154 256 l 128 203 l 119 181 l 107 151 l 99 135 l 92 119 l 83 99 l 71 74 l 71 49 l 76 32 l 90 15 l 110 0 l 135 -12 l 153 -17 z m 614 404 l 521 407 l 482 410 l 457 410 l 433 411 l 424 421 l 424 435 l 426 447 l 428 458 l 442 486 l 453 511 l 465 546 l 483 583 l 507 636 l 518 671 l 529 693 l 546 679 l 561 643 l 571 618 l 582 592 l 600 547 l 614 521 l 644 467 l 653 446 l 657 421 l 651 408 l 647 407 l 646 406 z m 418 1096 l 424 1097 l 450 1114 l 472 1136 l 510 1186 l 522 1200 l 535 1207 l 561 1190 l 581 1169 l 586 1161 l 593 1151 l 601 1140 l 610 1131 l 617 1122 l 626 1111 l 635 1103 l 649 1099 l 664 1097 l 682 1101 l 704 1117 l 721 1128 l 729 1136 l 740 1150 l 747 1168 l 742 1190 l 719 1225 l 703 1249 l 686 1268 l 665 1290 l 654 1306 l 638 1325 l 618 1347 l 599 1367 l 581 1379 l 563 1386 l 535 1388 l 506 1388 l 493 1383 l 482 1375 l 463 1358 l 443 1335 l 431 1322 l 422 1311 l 413 1300 l 399 1282 l 385 1269 l 375 1258 l 364 1243 l 350 1228 l 340 1213 l 331 1196 l 321 1175 l 325 1150 l 344 1129 l 353 1122 l 383 1101 l 401 1099 z "},"Ä":{"ha":1067,"x_min":0,"x_max":0,"o":"m 176 -18 l 199 -12 l 214 0 l 231 25 l 244 47 l 251 68 l 263 92 l 271 111 l 278 125 l 282 140 l 296 165 l 324 221 l 332 233 l 350 243 l 372 244 l 396 247 l 415 246 l 451 249 l 497 247 l 660 247 l 694 249 l 722 246 l 736 236 l 746 218 l 758 196 l 768 179 l 774 167 l 789 135 l 801 107 l 810 92 l 825 60 l 838 33 l 842 15 l 856 1 l 868 -10 l 900 -17 l 949 -4 l 976 10 l 992 28 l 997 58 l 990 82 l 981 111 l 968 138 l 961 149 l 949 175 l 932 208 l 926 226 l 921 239 l 911 260 l 897 293 l 872 340 l 854 383 l 843 411 l 829 436 l 822 454 l 814 468 l 806 492 l 797 514 l 785 536 l 775 557 l 769 572 l 760 589 l 750 614 l 735 644 l 719 679 l 710 699 l 703 718 l 692 743 l 683 768 l 674 786 l 665 808 l 639 860 l 625 890 l 611 922 l 603 939 l 593 957 l 578 971 l 560 975 l 522 975 l 488 968 l 471 954 l 461 938 l 456 926 l 447 911 l 439 894 l 429 881 l 422 861 l 417 847 l 414 836 l 404 817 l 392 793 l 385 772 l 369 740 l 349 688 l 336 660 l 314 608 l 294 567 l 283 536 l 267 507 l 247 457 l 236 433 l 226 413 l 217 393 l 203 361 l 181 318 l 168 286 l 154 256 l 128 203 l 119 181 l 107 151 l 99 135 l 92 119 l 83 99 l 71 74 l 71 49 l 76 32 l 90 15 l 110 0 l 135 -12 l 153 -17 z m 614 404 l 521 407 l 482 410 l 457 410 l 433 411 l 424 421 l 424 435 l 426 447 l 428 458 l 442 486 l 453 511 l 465 546 l 483 583 l 507 636 l 518 671 l 529 693 l 546 679 l 561 643 l 571 618 l 582 592 l 600 547 l 614 521 l 644 467 l 653 446 l 657 421 l 651 408 l 647 407 l 646 406 z m 368 1115 l 411 1121 l 447 1138 l 468 1158 l 478 1179 l 482 1201 l 482 1217 l 479 1232 l 465 1267 l 442 1296 l 410 1310 l 376 1314 l 350 1306 l 326 1296 l 311 1282 l 293 1264 l 283 1231 l 285 1203 l 289 1181 l 300 1157 l 313 1143 l 332 1125 z m 672 1115 l 715 1121 l 750 1138 l 771 1158 l 782 1179 l 786 1201 l 786 1217 l 783 1232 l 768 1267 l 744 1296 l 714 1310 l 679 1314 l 654 1306 l 629 1296 l 614 1282 l 597 1264 l 585 1231 l 588 1203 l 592 1181 l 603 1157 l 615 1143 l 635 1125 z "},"À":{"ha":1067,"x_min":0,"x_max":0,"o":"m 176 -18 l 199 -12 l 214 0 l 231 25 l 244 47 l 251 68 l 263 92 l 271 111 l 278 125 l 282 140 l 296 165 l 324 221 l 332 233 l 350 243 l 372 244 l 396 247 l 415 246 l 451 249 l 497 247 l 660 247 l 694 249 l 722 246 l 736 236 l 746 218 l 758 196 l 768 179 l 774 167 l 789 135 l 801 107 l 810 92 l 825 60 l 838 33 l 842 15 l 856 1 l 868 -10 l 900 -17 l 949 -4 l 976 10 l 992 28 l 997 58 l 990 82 l 981 111 l 968 138 l 961 149 l 949 175 l 932 208 l 926 226 l 921 239 l 911 260 l 897 293 l 872 340 l 854 383 l 843 411 l 829 436 l 822 454 l 814 468 l 806 492 l 797 514 l 785 536 l 775 557 l 769 572 l 760 589 l 750 614 l 735 644 l 719 679 l 710 699 l 703 718 l 692 743 l 683 768 l 674 786 l 665 808 l 639 860 l 625 890 l 611 922 l 603 939 l 593 957 l 578 971 l 560 975 l 522 975 l 488 968 l 471 954 l 461 938 l 456 926 l 447 911 l 439 894 l 429 881 l 422 861 l 417 847 l 414 836 l 404 817 l 392 793 l 385 772 l 369 740 l 349 688 l 336 660 l 314 608 l 294 567 l 283 536 l 267 507 l 247 457 l 236 433 l 226 413 l 217 393 l 203 361 l 181 318 l 168 286 l 154 256 l 128 203 l 119 181 l 107 151 l 99 135 l 92 119 l 83 99 l 71 74 l 71 49 l 76 32 l 90 15 l 110 0 l 135 -12 l 153 -17 z m 614 404 l 521 407 l 482 410 l 457 410 l 433 411 l 424 421 l 424 435 l 426 447 l 428 458 l 442 486 l 453 511 l 465 546 l 483 583 l 507 636 l 518 671 l 529 693 l 546 679 l 561 643 l 571 618 l 582 592 l 600 547 l 614 521 l 644 467 l 653 446 l 657 421 l 651 408 l 647 407 l 646 406 z m 565 1090 l 596 1097 l 615 1108 l 633 1117 l 657 1133 l 668 1154 l 672 1172 l 669 1189 l 658 1206 l 644 1229 l 629 1250 l 621 1267 l 607 1285 l 590 1306 l 583 1319 l 574 1328 l 565 1343 l 554 1357 l 547 1367 l 539 1375 l 532 1386 l 522 1396 l 508 1403 l 490 1404 l 474 1400 l 453 1392 l 426 1372 l 410 1357 l 400 1339 l 394 1321 l 404 1297 l 415 1278 l 426 1264 l 442 1249 l 457 1229 l 468 1214 l 475 1201 l 494 1176 l 508 1158 l 515 1142 l 533 1121 l 549 1100 z "},"Ā":{"ha":1067,"x_min":0,"x_max":0,"o":"m 176 -18 l 199 -12 l 214 0 l 231 25 l 244 47 l 251 68 l 263 92 l 271 111 l 278 125 l 282 140 l 296 165 l 324 221 l 332 233 l 350 243 l 372 244 l 396 247 l 415 246 l 451 249 l 497 247 l 660 247 l 694 249 l 722 246 l 736 236 l 746 218 l 758 196 l 768 179 l 774 167 l 789 135 l 801 107 l 810 92 l 825 60 l 838 33 l 842 15 l 856 1 l 868 -10 l 900 -17 l 949 -4 l 976 10 l 992 28 l 997 58 l 990 82 l 981 111 l 968 138 l 961 149 l 949 175 l 932 208 l 926 226 l 921 239 l 911 260 l 897 293 l 872 340 l 854 383 l 843 411 l 829 436 l 822 454 l 814 468 l 806 492 l 797 514 l 785 536 l 775 557 l 769 572 l 760 589 l 750 614 l 735 644 l 719 679 l 710 699 l 703 718 l 692 743 l 683 768 l 674 786 l 665 808 l 639 860 l 625 890 l 611 922 l 603 939 l 593 957 l 578 971 l 560 975 l 522 975 l 488 968 l 471 954 l 461 938 l 456 926 l 447 911 l 439 894 l 429 881 l 422 861 l 417 847 l 414 836 l 404 817 l 392 793 l 385 772 l 369 740 l 349 688 l 336 660 l 314 608 l 294 567 l 283 536 l 267 507 l 247 457 l 236 433 l 226 413 l 217 393 l 203 361 l 181 318 l 168 286 l 154 256 l 128 203 l 119 181 l 107 151 l 99 135 l 92 119 l 83 99 l 71 74 l 71 49 l 76 32 l 90 15 l 110 0 l 135 -12 l 153 -17 z m 614 404 l 521 407 l 482 410 l 457 410 l 433 411 l 424 421 l 424 435 l 426 447 l 428 458 l 442 486 l 453 511 l 465 546 l 483 583 l 507 636 l 518 671 l 529 693 l 546 679 l 561 643 l 571 618 l 582 592 l 600 547 l 614 521 l 644 467 l 653 446 l 657 421 l 651 408 l 647 407 l 646 406 z m 646 1149 l 663 1149 l 683 1154 l 697 1158 l 711 1167 l 719 1176 l 728 1192 l 731 1207 l 731 1224 l 726 1254 l 719 1276 l 706 1290 l 682 1300 l 640 1303 l 621 1303 l 593 1299 l 563 1299 l 547 1301 l 528 1301 l 497 1303 l 476 1303 l 460 1300 l 429 1303 l 389 1301 l 364 1294 l 354 1289 l 342 1267 l 338 1242 l 336 1219 l 344 1196 l 351 1178 l 358 1165 l 378 1157 l 426 1154 l 494 1154 l 535 1153 l 574 1154 l 621 1153 z "},"Ą":{"ha":1067,"x_min":0,"x_max":0,"o":"m 886 -367 l 918 -361 l 953 -347 l 983 -326 l 997 -312 l 1010 -303 l 1019 -290 l 1025 -282 l 1029 -272 l 1032 -260 l 1032 -244 l 1028 -232 l 1011 -212 l 992 -196 l 975 -190 l 960 -187 l 933 -194 l 906 -207 l 894 -214 l 883 -219 l 865 -212 l 861 -200 l 864 -189 l 867 -176 l 876 -156 l 889 -131 l 894 -121 l 900 -106 l 910 -87 l 922 -67 l 932 -53 l 939 -44 l 950 -31 l 961 -15 l 975 4 l 992 28 l 997 58 l 990 82 l 981 111 l 968 138 l 961 149 l 949 175 l 932 208 l 926 226 l 921 239 l 911 260 l 897 293 l 872 340 l 854 383 l 843 411 l 829 436 l 822 454 l 814 468 l 806 492 l 797 514 l 785 536 l 775 557 l 769 572 l 760 589 l 750 614 l 735 644 l 719 679 l 710 699 l 703 718 l 692 743 l 683 768 l 674 786 l 665 808 l 639 860 l 625 890 l 611 922 l 603 939 l 593 957 l 578 971 l 560 975 l 522 975 l 488 968 l 471 954 l 461 938 l 456 926 l 447 911 l 439 894 l 429 881 l 422 861 l 417 847 l 414 836 l 404 817 l 392 793 l 385 772 l 369 740 l 349 688 l 336 660 l 314 608 l 294 567 l 283 536 l 267 507 l 247 457 l 236 433 l 226 413 l 217 393 l 203 361 l 181 318 l 168 286 l 154 256 l 128 203 l 119 181 l 107 151 l 99 135 l 92 119 l 83 99 l 71 74 l 71 49 l 76 32 l 90 15 l 110 0 l 135 -12 l 153 -17 l 176 -18 l 199 -12 l 214 0 l 231 25 l 244 47 l 251 68 l 263 92 l 271 111 l 278 125 l 282 140 l 296 165 l 324 221 l 332 233 l 350 243 l 372 244 l 396 247 l 415 246 l 451 249 l 497 247 l 660 247 l 694 249 l 722 246 l 736 236 l 746 218 l 758 196 l 768 179 l 774 167 l 789 135 l 801 107 l 810 92 l 825 60 l 838 33 l 832 18 l 813 3 l 788 -25 l 765 -50 l 724 -114 l 707 -137 l 701 -153 l 694 -169 l 692 -187 l 689 -211 l 696 -253 l 715 -292 l 736 -319 l 753 -333 l 769 -342 l 793 -350 l 815 -360 l 849 -365 z m 614 404 l 521 407 l 482 410 l 457 410 l 433 411 l 424 421 l 424 435 l 426 447 l 428 458 l 442 486 l 453 511 l 465 546 l 483 583 l 507 636 l 518 671 l 529 693 l 546 679 l 561 643 l 571 618 l 582 592 l 600 547 l 614 521 l 644 467 l 653 446 l 657 421 l 651 408 l 647 407 l 646 406 z "},"Å":{"ha":1067,"x_min":0,"x_max":0,"o":"m 176 -18 l 199 -12 l 214 0 l 231 25 l 244 47 l 251 68 l 263 92 l 271 111 l 278 125 l 282 140 l 296 165 l 324 221 l 332 233 l 350 243 l 372 244 l 396 247 l 415 246 l 451 249 l 497 247 l 660 247 l 694 249 l 722 246 l 736 236 l 746 218 l 758 196 l 768 179 l 774 167 l 789 135 l 801 107 l 810 92 l 825 60 l 838 33 l 842 15 l 856 1 l 868 -10 l 900 -17 l 949 -4 l 976 10 l 992 28 l 997 58 l 990 82 l 981 111 l 968 138 l 961 149 l 949 175 l 932 208 l 926 226 l 921 239 l 911 260 l 897 293 l 872 340 l 854 383 l 843 411 l 829 436 l 822 454 l 814 468 l 806 492 l 797 514 l 785 536 l 775 557 l 769 572 l 760 589 l 750 614 l 735 644 l 719 679 l 710 699 l 703 718 l 692 743 l 683 768 l 674 786 l 665 808 l 639 860 l 625 890 l 611 922 l 603 939 l 593 957 l 578 971 l 560 975 l 522 975 l 488 968 l 471 954 l 461 938 l 456 926 l 447 911 l 439 894 l 429 881 l 422 861 l 417 847 l 414 836 l 404 817 l 392 793 l 385 772 l 369 740 l 349 688 l 336 660 l 314 608 l 294 567 l 283 536 l 267 507 l 247 457 l 236 433 l 226 413 l 217 393 l 203 361 l 181 318 l 168 286 l 154 256 l 128 203 l 119 181 l 107 151 l 99 135 l 92 119 l 83 99 l 71 74 l 71 49 l 76 32 l 90 15 l 110 0 l 135 -12 l 153 -17 z m 614 404 l 521 407 l 482 410 l 457 410 l 433 411 l 424 421 l 424 435 l 426 447 l 428 458 l 442 486 l 453 511 l 465 546 l 483 583 l 507 636 l 518 671 l 529 693 l 546 679 l 561 643 l 571 618 l 582 592 l 600 547 l 614 521 l 644 467 l 653 446 l 657 421 l 651 408 l 647 407 l 646 406 z m 524 1064 l 563 1067 l 597 1072 l 633 1090 l 663 1113 l 682 1133 l 699 1161 l 707 1181 l 708 1192 l 710 1208 l 714 1226 l 715 1253 l 710 1279 l 708 1292 l 706 1304 l 701 1314 l 696 1325 l 686 1342 l 663 1368 l 636 1386 l 621 1396 l 601 1401 l 578 1413 l 551 1415 l 531 1414 l 504 1410 l 483 1406 l 457 1399 l 435 1389 l 419 1376 l 406 1365 l 386 1343 l 382 1332 l 375 1319 l 360 1285 l 356 1250 l 351 1235 l 354 1215 l 360 1186 l 371 1157 l 388 1132 l 415 1103 l 457 1076 l 483 1068 l 496 1067 l 506 1065 z m 547 1186 l 510 1192 l 485 1217 l 485 1251 l 496 1268 l 519 1285 l 546 1289 l 565 1279 l 579 1267 l 585 1251 l 583 1225 l 576 1206 z "},"Ã":{"ha":1067,"x_min":0,"x_max":0,"o":"m 176 -18 l 199 -12 l 214 0 l 231 25 l 244 47 l 251 68 l 263 92 l 271 111 l 278 125 l 282 140 l 296 165 l 324 221 l 332 233 l 350 243 l 372 244 l 396 247 l 415 246 l 451 249 l 497 247 l 660 247 l 694 249 l 722 246 l 736 236 l 746 218 l 758 196 l 768 179 l 774 167 l 789 135 l 801 107 l 810 92 l 825 60 l 838 33 l 842 15 l 856 1 l 868 -10 l 900 -17 l 949 -4 l 976 10 l 992 28 l 997 58 l 990 82 l 981 111 l 968 138 l 961 149 l 949 175 l 932 208 l 926 226 l 921 239 l 911 260 l 897 293 l 872 340 l 854 383 l 843 411 l 829 436 l 822 454 l 814 468 l 806 492 l 797 514 l 785 536 l 775 557 l 769 572 l 760 589 l 750 614 l 735 644 l 719 679 l 710 699 l 703 718 l 692 743 l 683 768 l 674 786 l 665 808 l 639 860 l 625 890 l 611 922 l 603 939 l 593 957 l 578 971 l 560 975 l 522 975 l 488 968 l 471 954 l 461 938 l 456 926 l 447 911 l 439 894 l 429 881 l 422 861 l 417 847 l 414 836 l 404 817 l 392 793 l 385 772 l 369 740 l 349 688 l 336 660 l 314 608 l 294 567 l 283 536 l 267 507 l 247 457 l 236 433 l 226 413 l 217 393 l 203 361 l 181 318 l 168 286 l 154 256 l 128 203 l 119 181 l 107 151 l 99 135 l 92 119 l 83 99 l 71 74 l 71 49 l 76 32 l 90 15 l 110 0 l 135 -12 l 153 -17 z m 614 404 l 521 407 l 482 410 l 457 410 l 433 411 l 424 421 l 424 435 l 426 447 l 428 458 l 442 486 l 453 511 l 465 546 l 483 583 l 507 636 l 518 671 l 529 693 l 546 679 l 561 643 l 571 618 l 582 592 l 600 547 l 614 521 l 644 467 l 653 446 l 657 421 l 651 408 l 647 407 l 646 406 z m 606 1110 l 633 1111 l 663 1121 l 689 1133 l 719 1158 l 736 1182 l 742 1194 l 747 1215 l 749 1242 l 746 1269 l 735 1290 l 721 1303 l 704 1311 l 688 1314 l 656 1311 l 625 1296 l 614 1281 l 608 1272 l 601 1269 l 590 1282 l 581 1296 l 567 1311 l 551 1325 l 528 1338 l 503 1346 l 479 1350 l 456 1351 l 435 1351 l 415 1347 l 397 1339 l 371 1324 l 347 1299 l 333 1271 l 324 1249 l 319 1231 l 318 1219 l 317 1200 l 325 1175 l 342 1158 l 368 1150 l 397 1146 l 414 1146 l 429 1151 l 447 1164 l 456 1174 l 461 1182 l 469 1182 l 479 1175 l 492 1161 l 513 1146 l 542 1128 l 565 1117 l 590 1111 z "},"Æ":{"ha":1446,"x_min":0,"x_max":0,"o":"m 176 -18 l 199 -12 l 214 0 l 231 25 l 244 47 l 251 68 l 263 92 l 271 111 l 278 125 l 282 140 l 296 165 l 324 221 l 332 233 l 350 243 l 372 244 l 396 247 l 415 246 l 451 249 l 497 247 l 607 247 l 611 240 l 611 217 l 613 174 l 613 75 l 615 42 l 632 14 l 654 1 l 676 0 l 721 0 l 771 1 l 817 0 l 858 0 l 889 -3 l 896 -1 l 918 -3 l 938 0 l 960 0 l 986 -1 l 1015 -1 l 1054 0 l 1072 -1 l 1100 0 l 1132 -3 l 1144 -1 l 1154 -3 l 1182 -4 l 1221 -4 l 1257 0 l 1326 7 l 1340 11 l 1350 17 l 1358 28 l 1364 44 l 1367 60 l 1367 76 l 1368 106 l 1364 131 l 1356 143 l 1343 151 l 1332 154 l 1314 154 l 1279 157 l 1236 158 l 1210 158 l 1193 161 l 1110 161 l 1081 158 l 1001 157 l 963 158 l 924 157 l 826 157 l 788 174 l 775 210 l 775 247 l 776 269 l 776 296 l 775 317 l 775 347 l 778 371 l 779 392 l 781 411 l 790 419 l 808 425 l 825 428 l 858 429 l 883 428 l 900 429 l 957 428 l 972 428 l 1017 426 l 1097 431 l 1171 431 l 1199 444 l 1208 461 l 1213 490 l 1210 522 l 1208 533 l 1206 547 l 1200 563 l 1183 579 l 1160 586 l 1139 588 l 1063 588 l 957 586 l 926 583 l 897 586 l 874 586 l 838 583 l 807 588 l 796 588 l 779 597 l 772 629 l 774 665 l 771 700 l 772 732 l 772 756 l 775 765 l 776 789 l 781 811 l 806 818 l 832 818 l 863 819 l 888 819 l 961 821 l 989 824 l 1003 824 l 1035 822 l 1088 821 l 1153 821 l 1197 824 l 1210 822 l 1239 824 l 1289 825 l 1321 828 l 1336 833 l 1351 853 l 1360 878 l 1361 896 l 1358 925 l 1350 953 l 1339 969 l 1318 978 l 1296 981 l 1275 979 l 1260 981 l 1204 978 l 1182 979 l 1143 981 l 1121 978 l 1090 978 l 1060 982 l 969 982 l 926 981 l 897 979 l 858 978 l 767 978 l 708 981 l 668 981 l 626 978 l 596 976 l 560 976 l 522 975 l 488 968 l 471 954 l 461 938 l 456 926 l 447 911 l 439 894 l 429 881 l 422 861 l 417 847 l 414 836 l 404 817 l 392 793 l 385 772 l 369 740 l 349 688 l 336 660 l 314 608 l 294 567 l 283 536 l 267 507 l 247 457 l 236 433 l 226 413 l 217 393 l 203 361 l 181 318 l 168 286 l 154 256 l 128 203 l 119 181 l 107 151 l 99 135 l 92 119 l 83 99 l 71 74 l 71 49 l 76 32 l 90 15 l 110 0 l 135 -12 l 153 -17 z m 596 404 l 553 406 l 521 407 l 482 410 l 457 410 l 433 411 l 424 421 l 424 435 l 426 447 l 428 458 l 442 486 l 453 511 l 465 546 l 483 583 l 507 636 l 518 671 l 535 704 l 558 754 l 576 796 l 588 811 l 600 813 l 607 811 l 607 807 l 606 789 l 608 765 l 608 675 l 610 635 l 610 611 l 608 572 l 607 514 l 608 481 l 608 468 l 610 451 l 608 439 l 610 435 l 610 408 z "},"B":{"ha":1069,"x_min":0,"x_max":0,"o":"m 544 -7 l 581 -7 l 617 -6 l 642 -7 l 665 -4 l 679 -3 l 700 -1 l 718 3 l 754 8 l 790 19 l 811 25 l 840 38 l 878 58 l 906 82 l 919 104 l 936 121 l 950 151 l 961 176 l 967 200 l 978 242 l 979 279 l 978 304 l 972 331 l 965 360 l 950 401 l 935 438 l 915 468 l 896 489 l 872 504 l 867 513 l 878 533 l 899 561 l 914 585 l 928 625 l 939 667 l 940 688 l 940 742 l 936 764 l 922 807 l 903 850 l 888 876 l 874 892 l 858 907 l 842 921 l 779 951 l 761 957 l 725 967 l 661 974 l 569 974 l 547 971 l 504 969 l 481 971 l 464 974 l 411 974 l 394 972 l 361 974 l 326 974 l 271 972 l 251 974 l 222 975 l 192 968 l 168 947 l 160 921 l 157 900 l 158 869 l 158 811 l 156 782 l 156 746 l 154 719 l 154 701 l 153 668 l 154 624 l 154 600 l 156 561 l 154 535 l 154 494 l 156 453 l 157 422 l 156 376 l 156 282 l 158 235 l 161 197 l 161 165 l 158 118 l 160 74 l 164 33 l 179 10 l 192 1 l 206 -1 l 236 -6 l 285 -3 l 315 -4 l 331 -3 l 389 -1 l 411 -4 l 429 -4 l 456 -3 l 490 -4 z m 543 151 l 507 154 l 474 153 l 431 154 l 379 154 l 350 156 l 343 158 l 332 164 l 326 201 l 326 232 l 329 285 l 332 326 l 332 353 l 329 374 l 328 397 l 333 411 l 353 417 l 456 418 l 483 418 l 504 419 l 522 418 l 585 418 l 601 419 l 639 418 l 690 417 l 732 410 l 747 404 l 754 400 l 765 393 l 776 383 l 790 367 l 803 340 l 810 318 l 813 296 l 810 268 l 807 244 l 800 229 l 794 218 l 781 196 l 763 179 l 749 171 l 726 164 l 703 163 l 676 160 l 653 160 l 617 156 l 583 154 z m 490 581 l 447 582 l 418 583 l 388 583 l 360 585 l 349 586 l 336 590 l 331 599 l 326 611 l 326 631 l 322 656 l 322 690 l 321 724 l 326 751 l 328 772 l 328 794 l 333 806 l 344 810 l 369 814 l 414 817 l 453 815 l 479 813 l 514 813 l 568 811 l 639 813 l 656 811 l 679 811 l 713 799 l 743 781 l 756 764 l 763 746 l 769 724 l 769 689 l 765 660 l 753 639 l 739 621 l 713 600 l 688 590 l 640 583 l 613 581 l 590 581 l 531 582 z "},"C":{"ha":1093,"x_min":0,"x_max":0,"o":"m 629 -32 l 658 -28 l 699 -25 l 718 -19 l 736 -15 l 757 -10 l 775 -6 l 851 29 l 863 38 l 886 50 l 953 96 l 976 121 l 993 138 l 1008 163 l 1015 186 l 1017 203 l 1008 225 l 974 263 l 932 278 l 906 275 l 885 265 l 871 250 l 831 210 l 806 190 l 778 171 l 756 158 l 735 150 l 706 140 l 675 133 l 636 128 l 589 125 l 564 126 l 524 133 l 497 139 l 478 144 l 450 158 l 421 174 l 404 183 l 382 203 l 363 218 l 350 231 l 336 247 l 319 272 l 308 285 l 306 290 l 300 306 l 293 321 l 285 332 l 276 356 l 272 379 l 265 403 l 261 439 l 256 474 l 256 506 l 258 535 l 261 554 l 265 576 l 283 622 l 304 667 l 326 696 l 342 715 l 358 732 l 379 750 l 393 763 l 411 774 l 446 793 l 475 807 l 501 815 l 528 822 l 553 826 l 589 832 l 622 828 l 653 828 l 678 822 l 713 813 l 736 807 l 760 794 l 785 782 l 800 771 l 822 754 l 839 735 l 861 715 l 883 693 l 900 681 l 921 676 l 944 679 l 963 689 l 985 711 l 999 729 l 1011 751 l 1013 774 l 1006 792 l 989 817 l 969 840 l 947 861 l 928 876 l 901 896 l 872 918 l 840 933 l 815 947 l 806 953 l 768 967 l 728 979 l 699 988 l 671 990 l 660 993 l 629 997 l 599 997 l 569 994 l 542 993 l 529 992 l 507 988 l 468 978 l 450 974 l 428 967 l 407 960 l 383 950 l 342 928 l 314 908 l 279 885 l 251 863 l 233 844 l 214 822 l 193 796 l 174 771 l 163 756 l 160 751 l 156 740 l 143 719 l 135 703 l 126 681 l 113 649 l 101 606 l 93 572 l 90 557 l 83 532 l 83 490 l 85 467 l 86 435 l 90 414 l 92 390 l 96 376 l 97 358 l 104 339 l 108 321 l 121 296 l 131 272 l 139 254 l 151 229 l 165 206 l 175 190 l 186 176 l 196 165 l 213 143 l 232 122 l 247 106 l 263 92 l 269 86 l 285 71 l 301 61 l 318 49 l 338 39 l 346 32 l 360 25 l 375 17 l 389 10 l 433 -6 l 451 -12 l 517 -24 l 543 -29 l 575 -31 l 601 -29 z "},"Ć":{"ha":1093,"x_min":0,"x_max":0,"o":"m 629 -32 l 658 -28 l 699 -25 l 718 -19 l 736 -15 l 757 -10 l 775 -6 l 851 29 l 863 38 l 886 50 l 953 96 l 976 121 l 993 138 l 1008 163 l 1015 186 l 1017 203 l 1008 225 l 974 263 l 932 278 l 906 275 l 885 265 l 871 250 l 831 210 l 806 190 l 778 171 l 756 158 l 735 150 l 706 140 l 675 133 l 636 128 l 589 125 l 564 126 l 524 133 l 497 139 l 478 144 l 450 158 l 421 174 l 404 183 l 382 203 l 363 218 l 350 231 l 336 247 l 319 272 l 308 285 l 306 290 l 300 306 l 293 321 l 285 332 l 276 356 l 272 379 l 265 403 l 261 439 l 256 474 l 256 506 l 258 535 l 261 554 l 265 576 l 283 622 l 304 667 l 326 696 l 342 715 l 358 732 l 379 750 l 393 763 l 411 774 l 446 793 l 475 807 l 501 815 l 528 822 l 553 826 l 589 832 l 622 828 l 653 828 l 678 822 l 713 813 l 736 807 l 760 794 l 785 782 l 800 771 l 822 754 l 839 735 l 861 715 l 883 693 l 900 681 l 921 676 l 944 679 l 963 689 l 985 711 l 999 729 l 1011 751 l 1013 774 l 1006 792 l 989 817 l 969 840 l 947 861 l 928 876 l 901 896 l 872 918 l 840 933 l 815 947 l 806 953 l 768 967 l 728 979 l 699 988 l 671 990 l 660 993 l 629 997 l 599 997 l 569 994 l 542 993 l 529 992 l 507 988 l 468 978 l 450 974 l 428 967 l 407 960 l 383 950 l 342 928 l 314 908 l 279 885 l 251 863 l 233 844 l 214 822 l 193 796 l 174 771 l 163 756 l 160 751 l 156 740 l 143 719 l 135 703 l 126 681 l 113 649 l 101 606 l 93 572 l 90 557 l 83 532 l 83 490 l 85 467 l 86 435 l 90 414 l 92 390 l 96 376 l 97 358 l 104 339 l 108 321 l 121 296 l 131 272 l 139 254 l 151 229 l 165 206 l 175 190 l 186 176 l 196 165 l 213 143 l 232 122 l 247 106 l 263 92 l 269 86 l 285 71 l 301 61 l 318 49 l 338 39 l 346 32 l 360 25 l 375 17 l 389 10 l 433 -6 l 451 -12 l 517 -24 l 543 -29 l 575 -31 l 601 -29 z m 515 1090 l 532 1100 l 547 1121 l 565 1142 l 572 1158 l 586 1176 l 606 1201 l 613 1214 l 624 1229 l 639 1249 l 654 1264 l 665 1278 l 676 1296 l 686 1319 l 681 1339 l 672 1357 l 654 1372 l 628 1392 l 607 1400 l 590 1403 l 572 1403 l 558 1396 l 549 1386 l 542 1375 l 533 1367 l 526 1357 l 515 1343 l 507 1328 l 497 1319 l 490 1306 l 474 1285 l 461 1267 l 451 1250 l 436 1229 l 422 1206 l 411 1189 l 408 1172 l 413 1154 l 424 1133 l 447 1117 l 465 1108 l 485 1097 z "},"Č":{"ha":1093,"x_min":0,"x_max":0,"o":"m 629 -32 l 658 -28 l 699 -25 l 718 -19 l 736 -15 l 757 -10 l 775 -6 l 851 29 l 863 38 l 886 50 l 953 96 l 976 121 l 993 138 l 1008 163 l 1015 186 l 1017 203 l 1008 225 l 974 263 l 932 278 l 906 275 l 885 265 l 871 250 l 831 210 l 806 190 l 778 171 l 756 158 l 735 150 l 706 140 l 675 133 l 636 128 l 589 125 l 564 126 l 524 133 l 497 139 l 478 144 l 450 158 l 421 174 l 404 183 l 382 203 l 363 218 l 350 231 l 336 247 l 319 272 l 308 285 l 306 290 l 300 306 l 293 321 l 285 332 l 276 356 l 272 379 l 265 403 l 261 439 l 256 474 l 256 506 l 258 535 l 261 554 l 265 576 l 283 622 l 304 667 l 326 696 l 342 715 l 358 732 l 379 750 l 393 763 l 411 774 l 446 793 l 475 807 l 501 815 l 528 822 l 553 826 l 589 832 l 622 828 l 653 828 l 678 822 l 713 813 l 736 807 l 760 794 l 785 782 l 800 771 l 822 754 l 839 735 l 861 715 l 883 693 l 900 681 l 921 676 l 944 679 l 963 689 l 985 711 l 999 729 l 1011 751 l 1013 774 l 1006 792 l 989 817 l 969 840 l 947 861 l 928 876 l 901 896 l 872 918 l 840 933 l 815 947 l 806 953 l 768 967 l 728 979 l 699 988 l 671 990 l 660 993 l 629 997 l 599 997 l 569 994 l 542 993 l 529 992 l 507 988 l 468 978 l 450 974 l 428 967 l 407 960 l 383 950 l 342 928 l 314 908 l 279 885 l 251 863 l 233 844 l 214 822 l 193 796 l 174 771 l 163 756 l 160 751 l 156 740 l 143 719 l 135 703 l 126 681 l 113 649 l 101 606 l 93 572 l 90 557 l 83 532 l 83 490 l 85 467 l 86 435 l 90 414 l 92 390 l 96 376 l 97 358 l 104 339 l 108 321 l 121 296 l 131 272 l 139 254 l 151 229 l 165 206 l 175 190 l 186 176 l 196 165 l 213 143 l 232 122 l 247 106 l 263 92 l 269 86 l 285 71 l 301 61 l 318 49 l 338 39 l 346 32 l 360 25 l 375 17 l 389 10 l 433 -6 l 451 -12 l 517 -24 l 543 -29 l 575 -31 l 601 -29 z m 519 1099 l 549 1099 l 576 1100 l 594 1107 l 613 1119 l 632 1139 l 651 1161 l 679 1196 l 700 1218 l 717 1238 l 733 1261 l 756 1296 l 761 1318 l 754 1336 l 743 1350 l 735 1358 l 718 1371 l 696 1385 l 678 1389 l 663 1388 l 649 1383 l 631 1365 l 624 1356 l 615 1346 l 607 1335 l 600 1325 l 594 1317 l 575 1296 l 549 1279 l 536 1286 l 486 1349 l 464 1372 l 438 1389 l 432 1390 l 415 1389 l 397 1385 l 367 1364 l 358 1357 l 339 1336 l 336 1311 l 344 1290 l 354 1274 l 364 1258 l 378 1244 l 389 1228 l 399 1217 l 413 1204 l 426 1186 l 436 1175 l 444 1165 l 457 1151 l 476 1128 l 496 1111 l 507 1103 z "},"Ç":{"ha":1093,"x_min":0,"x_max":0,"o":"m 614 -367 l 625 -367 l 639 -365 l 656 -361 l 672 -356 l 683 -351 l 699 -343 l 729 -325 l 749 -304 l 761 -286 l 774 -251 l 778 -211 l 778 -194 l 769 -162 l 751 -128 l 728 -103 l 703 -89 l 685 -78 l 667 -71 l 660 -67 l 653 -61 l 651 -54 l 654 -39 l 663 -28 l 679 -26 l 699 -25 l 718 -19 l 736 -15 l 757 -10 l 775 -6 l 851 29 l 863 38 l 886 50 l 953 96 l 976 121 l 993 138 l 1008 163 l 1015 186 l 1017 203 l 1008 225 l 974 263 l 932 278 l 906 275 l 885 265 l 871 250 l 831 210 l 806 190 l 778 171 l 756 158 l 735 150 l 706 140 l 675 133 l 636 128 l 589 125 l 564 126 l 524 133 l 497 139 l 478 144 l 450 158 l 421 174 l 404 183 l 382 203 l 363 218 l 350 231 l 336 247 l 319 272 l 308 285 l 306 290 l 300 306 l 293 321 l 285 332 l 276 356 l 272 379 l 265 403 l 261 439 l 256 474 l 256 506 l 258 535 l 261 554 l 265 576 l 283 622 l 304 667 l 326 696 l 342 715 l 358 732 l 379 750 l 393 763 l 411 774 l 446 793 l 475 807 l 501 815 l 528 822 l 553 826 l 589 832 l 622 828 l 653 828 l 678 822 l 713 813 l 736 807 l 760 794 l 785 782 l 800 771 l 822 754 l 839 735 l 861 715 l 883 693 l 900 681 l 921 676 l 944 679 l 963 689 l 985 711 l 999 729 l 1011 751 l 1013 774 l 1006 792 l 989 817 l 969 840 l 947 861 l 928 876 l 901 896 l 872 918 l 840 933 l 815 947 l 806 953 l 768 967 l 728 979 l 699 988 l 671 990 l 660 993 l 629 997 l 599 997 l 569 994 l 542 993 l 529 992 l 507 988 l 468 978 l 450 974 l 428 967 l 407 960 l 383 950 l 342 928 l 314 908 l 279 885 l 251 863 l 233 844 l 214 822 l 193 796 l 174 771 l 163 756 l 160 751 l 156 740 l 143 719 l 135 703 l 126 681 l 113 649 l 101 606 l 93 572 l 90 557 l 83 532 l 83 490 l 85 467 l 86 435 l 90 414 l 92 390 l 96 376 l 97 358 l 104 339 l 108 321 l 121 296 l 131 272 l 139 254 l 151 229 l 165 206 l 175 190 l 186 176 l 196 165 l 213 143 l 232 122 l 247 106 l 263 92 l 269 86 l 285 71 l 301 61 l 318 49 l 338 39 l 346 32 l 360 25 l 375 17 l 389 10 l 433 -6 l 451 -12 l 482 -18 l 503 -29 l 499 -47 l 490 -68 l 488 -85 l 486 -104 l 489 -125 l 494 -137 l 504 -154 l 518 -165 l 531 -174 l 549 -176 l 574 -176 l 597 -175 l 613 -178 l 621 -186 l 625 -200 l 619 -212 l 604 -221 l 585 -225 l 564 -218 l 542 -204 l 529 -199 l 503 -192 l 481 -193 l 467 -201 l 443 -229 l 431 -254 l 431 -274 l 436 -294 l 458 -318 l 488 -337 l 507 -347 l 525 -353 l 540 -358 l 558 -361 l 579 -364 l 597 -364 z "},"D":{"ha":1132,"x_min":0,"x_max":0,"o":"m 322 -6 l 349 -4 l 388 -6 l 433 -4 l 507 0 l 543 -1 l 588 0 l 631 0 l 697 3 l 751 17 l 769 22 l 788 29 l 800 35 l 832 50 l 863 67 l 883 82 l 903 99 l 924 121 l 947 149 l 969 179 l 979 199 l 988 213 l 1000 240 l 1011 265 l 1024 311 l 1033 344 l 1040 385 l 1046 422 l 1047 456 l 1049 492 l 1047 519 l 1043 535 l 1040 556 l 1036 599 l 1032 631 l 1029 642 l 1022 671 l 1013 699 l 1004 719 l 994 738 l 982 764 l 961 797 l 947 821 l 922 849 l 892 881 l 872 896 l 853 910 l 829 925 l 813 936 l 785 947 l 756 958 l 735 963 l 689 969 l 669 971 l 657 972 l 649 975 l 629 974 l 593 976 l 557 975 l 542 974 l 522 974 l 501 971 l 325 971 l 290 972 l 275 971 l 250 972 l 210 971 l 185 969 l 172 960 l 160 942 l 154 918 l 154 889 l 158 850 l 156 808 l 156 763 l 154 732 l 156 692 l 154 656 l 156 626 l 157 600 l 158 564 l 157 521 l 157 339 l 158 306 l 160 267 l 163 224 l 160 190 l 161 160 l 160 143 l 160 128 l 158 111 l 158 67 l 163 42 l 168 24 l 175 15 l 190 6 l 222 -1 l 258 -4 z m 504 153 l 460 154 l 421 154 l 393 157 l 369 158 l 350 156 l 329 161 l 325 179 l 325 214 l 324 238 l 322 274 l 319 301 l 319 397 l 321 436 l 321 529 l 319 564 l 319 653 l 321 690 l 322 715 l 322 735 l 321 761 l 322 782 l 325 797 l 335 807 l 357 813 l 382 815 l 400 819 l 442 821 l 496 819 l 604 819 l 639 818 l 658 817 l 710 803 l 729 794 l 761 776 l 801 743 l 826 713 l 839 693 l 850 674 l 860 646 l 869 613 l 875 586 l 879 556 l 882 515 l 882 424 l 881 399 l 874 365 l 864 328 l 849 290 l 824 256 l 796 225 l 758 199 l 731 183 l 696 169 l 669 165 l 636 158 l 601 153 z "},"Ð":{"ha":1132,"x_min":0,"x_max":0,"o":"m 322 -6 l 349 -4 l 388 -6 l 433 -4 l 507 0 l 543 -1 l 588 0 l 631 0 l 697 3 l 751 17 l 769 22 l 788 29 l 800 35 l 832 50 l 863 67 l 883 82 l 903 99 l 924 121 l 947 149 l 969 179 l 979 199 l 988 213 l 1000 240 l 1011 265 l 1024 311 l 1033 344 l 1040 385 l 1046 422 l 1047 456 l 1049 492 l 1047 519 l 1043 535 l 1040 556 l 1036 599 l 1032 631 l 1029 642 l 1022 671 l 1013 699 l 1004 719 l 994 738 l 982 764 l 961 797 l 947 821 l 922 849 l 892 881 l 872 896 l 853 910 l 829 925 l 813 936 l 785 947 l 756 958 l 735 963 l 689 969 l 669 971 l 657 972 l 649 975 l 629 974 l 593 976 l 557 975 l 542 974 l 522 974 l 501 971 l 325 971 l 290 972 l 275 971 l 250 972 l 210 971 l 185 969 l 172 960 l 160 942 l 154 918 l 154 889 l 158 850 l 156 808 l 156 763 l 154 732 l 156 692 l 154 656 l 156 626 l 157 600 l 158 571 l 140 561 l 110 563 l 82 563 l 44 558 l 10 536 l 3 514 l 1 493 l 3 456 l 13 426 l 31 413 l 51 404 l 101 407 l 119 408 l 138 407 l 154 407 l 157 376 l 157 344 l 160 267 l 163 224 l 160 190 l 161 160 l 160 143 l 160 128 l 158 111 l 158 67 l 163 42 l 168 24 l 175 15 l 190 6 l 222 -1 l 258 -4 z m 504 153 l 460 154 l 421 154 l 393 157 l 369 158 l 350 156 l 329 161 l 325 179 l 325 214 l 324 238 l 322 274 l 319 301 l 319 379 l 332 410 l 369 410 l 419 406 l 450 407 l 460 407 l 481 406 l 500 408 l 522 411 l 542 432 l 549 449 l 551 468 l 551 486 l 550 500 l 546 522 l 533 549 l 493 560 l 419 561 l 371 561 l 335 560 l 319 585 l 319 653 l 321 690 l 322 715 l 322 735 l 321 761 l 322 782 l 325 797 l 335 807 l 357 813 l 382 815 l 400 819 l 442 821 l 496 819 l 604 819 l 639 818 l 658 817 l 710 803 l 729 794 l 761 776 l 801 743 l 826 713 l 839 693 l 850 674 l 860 646 l 869 613 l 875 586 l 879 556 l 882 515 l 882 424 l 881 399 l 874 365 l 864 328 l 849 290 l 824 256 l 796 225 l 758 199 l 731 183 l 696 169 l 669 165 l 636 158 l 601 153 z "},"Ď":{"ha":1132,"x_min":0,"x_max":0,"o":"m 322 -6 l 349 -4 l 388 -6 l 433 -4 l 507 0 l 543 -1 l 588 0 l 631 0 l 697 3 l 751 17 l 769 22 l 788 29 l 800 35 l 832 50 l 863 67 l 883 82 l 903 99 l 924 121 l 947 149 l 969 179 l 979 199 l 988 213 l 1000 240 l 1011 265 l 1024 311 l 1033 344 l 1040 385 l 1046 422 l 1047 456 l 1049 492 l 1047 519 l 1043 535 l 1040 556 l 1036 599 l 1032 631 l 1029 642 l 1022 671 l 1013 699 l 1004 719 l 994 738 l 982 764 l 961 797 l 947 821 l 922 849 l 892 881 l 872 896 l 853 910 l 829 925 l 813 936 l 785 947 l 756 958 l 735 963 l 689 969 l 669 971 l 657 972 l 649 975 l 629 974 l 593 976 l 557 975 l 542 974 l 522 974 l 501 971 l 325 971 l 290 972 l 275 971 l 250 972 l 210 971 l 185 969 l 172 960 l 160 942 l 154 918 l 154 889 l 158 850 l 156 808 l 156 763 l 154 732 l 156 692 l 154 656 l 156 626 l 157 600 l 158 564 l 157 521 l 157 339 l 158 306 l 160 267 l 163 224 l 160 190 l 161 160 l 160 143 l 160 128 l 158 111 l 158 67 l 163 42 l 168 24 l 175 15 l 190 6 l 222 -1 l 258 -4 z m 504 153 l 460 154 l 421 154 l 393 157 l 369 158 l 350 156 l 329 161 l 325 179 l 325 214 l 324 238 l 322 274 l 319 301 l 319 397 l 321 436 l 321 529 l 319 564 l 319 653 l 321 690 l 322 715 l 322 735 l 321 761 l 322 782 l 325 797 l 335 807 l 357 813 l 382 815 l 400 819 l 442 821 l 496 819 l 604 819 l 639 818 l 658 817 l 710 803 l 729 794 l 761 776 l 801 743 l 826 713 l 839 693 l 850 674 l 860 646 l 869 613 l 875 586 l 879 556 l 882 515 l 882 424 l 881 399 l 874 365 l 864 328 l 849 290 l 824 256 l 796 225 l 758 199 l 731 183 l 696 169 l 669 165 l 636 158 l 601 153 z m 539 1099 l 568 1099 l 596 1100 l 614 1107 l 632 1119 l 651 1139 l 671 1161 l 699 1196 l 719 1218 l 736 1238 l 753 1261 l 775 1296 l 781 1318 l 774 1336 l 763 1350 l 754 1358 l 738 1371 l 715 1385 l 697 1389 l 682 1388 l 668 1383 l 650 1365 l 643 1356 l 635 1346 l 626 1335 l 619 1325 l 614 1317 l 594 1296 l 568 1279 l 556 1286 l 506 1349 l 483 1372 l 457 1389 l 451 1390 l 435 1389 l 417 1385 l 386 1364 l 378 1357 l 358 1336 l 356 1311 l 364 1290 l 374 1274 l 383 1258 l 397 1244 l 408 1228 l 418 1217 l 432 1204 l 446 1186 l 456 1175 l 464 1165 l 476 1151 l 496 1128 l 515 1111 l 526 1103 z "},"Đ":{"ha":1132,"x_min":0,"x_max":0,"o":"m 322 -6 l 349 -4 l 388 -6 l 433 -4 l 507 0 l 543 -1 l 588 0 l 631 0 l 697 3 l 751 17 l 769 22 l 788 29 l 800 35 l 832 50 l 863 67 l 883 82 l 903 99 l 924 121 l 947 149 l 969 179 l 979 199 l 988 213 l 1000 240 l 1011 265 l 1024 311 l 1033 344 l 1040 385 l 1046 422 l 1047 456 l 1049 492 l 1047 519 l 1043 535 l 1040 556 l 1036 599 l 1032 631 l 1029 642 l 1022 671 l 1013 699 l 1004 719 l 994 738 l 982 764 l 961 797 l 947 821 l 922 849 l 892 881 l 872 896 l 853 910 l 829 925 l 813 936 l 785 947 l 756 958 l 735 963 l 689 969 l 669 971 l 657 972 l 649 975 l 629 974 l 593 976 l 557 975 l 542 974 l 522 974 l 501 971 l 325 971 l 290 972 l 275 971 l 250 972 l 210 971 l 185 969 l 172 960 l 160 942 l 154 918 l 154 889 l 158 850 l 156 808 l 156 763 l 154 732 l 156 692 l 154 656 l 156 626 l 157 600 l 158 571 l 140 561 l 110 563 l 82 563 l 44 558 l 10 536 l 3 514 l 1 493 l 3 456 l 13 426 l 31 413 l 51 404 l 101 407 l 119 408 l 138 407 l 154 407 l 157 376 l 157 344 l 160 267 l 163 224 l 160 190 l 161 160 l 160 143 l 160 128 l 158 111 l 158 67 l 163 42 l 168 24 l 175 15 l 190 6 l 222 -1 l 258 -4 z m 504 153 l 460 154 l 421 154 l 393 157 l 369 158 l 350 156 l 329 161 l 325 179 l 325 214 l 324 238 l 322 274 l 319 301 l 319 379 l 332 410 l 369 410 l 419 406 l 450 407 l 460 407 l 481 406 l 500 408 l 522 411 l 542 432 l 549 449 l 551 468 l 551 486 l 550 500 l 546 522 l 533 549 l 493 560 l 419 561 l 371 561 l 335 560 l 319 585 l 319 653 l 321 690 l 322 715 l 322 735 l 321 761 l 322 782 l 325 797 l 335 807 l 357 813 l 382 815 l 400 819 l 442 821 l 496 819 l 604 819 l 639 818 l 658 817 l 710 803 l 729 794 l 761 776 l 801 743 l 826 713 l 839 693 l 850 674 l 860 646 l 869 613 l 875 586 l 879 556 l 882 515 l 882 424 l 881 399 l 874 365 l 864 328 l 849 290 l 824 256 l 796 225 l 758 199 l 731 183 l 696 169 l 669 165 l 636 158 l 601 153 z "},"E":{"ha":993,"x_min":0,"x_max":0,"o":"m 729 -4 l 768 -4 l 804 0 l 874 7 l 888 11 l 897 17 l 906 28 l 911 44 l 914 60 l 914 76 l 915 106 l 911 131 l 903 143 l 890 151 l 879 154 l 861 154 l 826 157 l 783 158 l 757 158 l 740 161 l 657 161 l 628 158 l 549 157 l 510 158 l 471 157 l 374 157 l 335 174 l 322 210 l 322 247 l 324 269 l 324 296 l 322 317 l 322 347 l 325 371 l 326 392 l 328 411 l 338 419 l 356 425 l 372 428 l 406 429 l 431 428 l 447 429 l 504 428 l 519 428 l 564 426 l 644 431 l 718 431 l 746 444 l 756 461 l 760 490 l 757 522 l 756 533 l 753 547 l 747 563 l 731 579 l 707 586 l 686 588 l 610 588 l 504 586 l 474 583 l 444 586 l 421 586 l 385 583 l 354 588 l 343 588 l 326 597 l 319 629 l 321 665 l 318 700 l 319 732 l 319 756 l 322 765 l 324 789 l 328 811 l 353 818 l 379 818 l 410 819 l 435 819 l 508 821 l 536 824 l 550 824 l 582 822 l 635 821 l 700 821 l 744 824 l 757 822 l 786 824 l 836 825 l 868 828 l 883 833 l 899 853 l 907 878 l 908 896 l 906 925 l 897 953 l 886 969 l 865 978 l 843 981 l 822 979 l 807 981 l 751 978 l 729 979 l 690 981 l 668 978 l 638 978 l 607 982 l 517 982 l 474 981 l 444 979 l 406 978 l 314 978 l 256 981 l 215 981 l 200 978 l 189 972 l 174 963 l 164 947 l 158 929 l 157 892 l 156 865 l 156 850 l 154 824 l 154 807 l 153 789 l 156 765 l 156 675 l 157 635 l 157 611 l 156 572 l 154 514 l 156 481 l 156 468 l 157 451 l 156 439 l 157 435 l 157 401 l 156 381 l 156 361 l 157 347 l 158 318 l 160 292 l 160 249 l 158 217 l 160 174 l 160 75 l 163 42 l 179 14 l 201 1 l 224 0 l 268 0 l 318 1 l 364 0 l 406 0 l 436 -3 l 443 -1 l 465 -3 l 485 0 l 507 0 l 533 -1 l 563 -1 l 601 0 l 619 -1 l 647 0 l 679 -3 l 692 -1 l 701 -3 z "},"É":{"ha":993,"x_min":0,"x_max":0,"o":"m 729 -4 l 768 -4 l 804 0 l 874 7 l 888 11 l 897 17 l 906 28 l 911 44 l 914 60 l 914 76 l 915 106 l 911 131 l 903 143 l 890 151 l 879 154 l 861 154 l 826 157 l 783 158 l 757 158 l 740 161 l 657 161 l 628 158 l 549 157 l 510 158 l 471 157 l 374 157 l 335 174 l 322 210 l 322 247 l 324 269 l 324 296 l 322 317 l 322 347 l 325 371 l 326 392 l 328 411 l 338 419 l 356 425 l 372 428 l 406 429 l 431 428 l 447 429 l 504 428 l 519 428 l 564 426 l 644 431 l 718 431 l 746 444 l 756 461 l 760 490 l 757 522 l 756 533 l 753 547 l 747 563 l 731 579 l 707 586 l 686 588 l 610 588 l 504 586 l 474 583 l 444 586 l 421 586 l 385 583 l 354 588 l 343 588 l 326 597 l 319 629 l 321 665 l 318 700 l 319 732 l 319 756 l 322 765 l 324 789 l 328 811 l 353 818 l 379 818 l 410 819 l 435 819 l 508 821 l 536 824 l 550 824 l 582 822 l 635 821 l 700 821 l 744 824 l 757 822 l 786 824 l 836 825 l 868 828 l 883 833 l 899 853 l 907 878 l 908 896 l 906 925 l 897 953 l 886 969 l 865 978 l 843 981 l 822 979 l 807 981 l 751 978 l 729 979 l 690 981 l 668 978 l 638 978 l 607 982 l 517 982 l 474 981 l 444 979 l 406 978 l 314 978 l 256 981 l 215 981 l 200 978 l 189 972 l 174 963 l 164 947 l 158 929 l 157 892 l 156 865 l 156 850 l 154 824 l 154 807 l 153 789 l 156 765 l 156 675 l 157 635 l 157 611 l 156 572 l 154 514 l 156 481 l 156 468 l 157 451 l 156 439 l 157 435 l 157 401 l 156 381 l 156 361 l 157 347 l 158 318 l 160 292 l 160 249 l 158 217 l 160 174 l 160 75 l 163 42 l 179 14 l 201 1 l 224 0 l 268 0 l 318 1 l 364 0 l 406 0 l 436 -3 l 443 -1 l 465 -3 l 485 0 l 507 0 l 533 -1 l 563 -1 l 601 0 l 619 -1 l 647 0 l 679 -3 l 692 -1 l 701 -3 z m 490 1090 l 507 1100 l 522 1121 l 540 1142 l 547 1158 l 561 1176 l 581 1201 l 588 1214 l 599 1229 l 614 1249 l 629 1264 l 640 1278 l 651 1296 l 661 1319 l 656 1339 l 647 1357 l 629 1372 l 603 1392 l 582 1400 l 565 1403 l 547 1403 l 533 1396 l 524 1386 l 517 1375 l 508 1367 l 501 1357 l 490 1343 l 482 1328 l 472 1319 l 465 1306 l 449 1285 l 436 1267 l 426 1250 l 411 1229 l 397 1206 l 386 1189 l 383 1172 l 388 1154 l 399 1133 l 422 1117 l 440 1108 l 460 1097 z "},"Ě":{"ha":993,"x_min":0,"x_max":0,"o":"m 729 -4 l 768 -4 l 804 0 l 874 7 l 888 11 l 897 17 l 906 28 l 911 44 l 914 60 l 914 76 l 915 106 l 911 131 l 903 143 l 890 151 l 879 154 l 861 154 l 826 157 l 783 158 l 757 158 l 740 161 l 657 161 l 628 158 l 549 157 l 510 158 l 471 157 l 374 157 l 335 174 l 322 210 l 322 247 l 324 269 l 324 296 l 322 317 l 322 347 l 325 371 l 326 392 l 328 411 l 338 419 l 356 425 l 372 428 l 406 429 l 431 428 l 447 429 l 504 428 l 519 428 l 564 426 l 644 431 l 718 431 l 746 444 l 756 461 l 760 490 l 757 522 l 756 533 l 753 547 l 747 563 l 731 579 l 707 586 l 686 588 l 610 588 l 504 586 l 474 583 l 444 586 l 421 586 l 385 583 l 354 588 l 343 588 l 326 597 l 319 629 l 321 665 l 318 700 l 319 732 l 319 756 l 322 765 l 324 789 l 328 811 l 353 818 l 379 818 l 410 819 l 435 819 l 508 821 l 536 824 l 550 824 l 582 822 l 635 821 l 700 821 l 744 824 l 757 822 l 786 824 l 836 825 l 868 828 l 883 833 l 899 853 l 907 878 l 908 896 l 906 925 l 897 953 l 886 969 l 865 978 l 843 981 l 822 979 l 807 981 l 751 978 l 729 979 l 690 981 l 668 978 l 638 978 l 607 982 l 517 982 l 474 981 l 444 979 l 406 978 l 314 978 l 256 981 l 215 981 l 200 978 l 189 972 l 174 963 l 164 947 l 158 929 l 157 892 l 156 865 l 156 850 l 154 824 l 154 807 l 153 789 l 156 765 l 156 675 l 157 635 l 157 611 l 156 572 l 154 514 l 156 481 l 156 468 l 157 451 l 156 439 l 157 435 l 157 401 l 156 381 l 156 361 l 157 347 l 158 318 l 160 292 l 160 249 l 158 217 l 160 174 l 160 75 l 163 42 l 179 14 l 201 1 l 224 0 l 268 0 l 318 1 l 364 0 l 406 0 l 436 -3 l 443 -1 l 465 -3 l 485 0 l 507 0 l 533 -1 l 563 -1 l 601 0 l 619 -1 l 647 0 l 679 -3 l 692 -1 l 701 -3 z m 494 1099 l 524 1099 l 551 1100 l 569 1107 l 588 1119 l 607 1139 l 626 1161 l 654 1196 l 675 1218 l 692 1238 l 708 1261 l 731 1296 l 736 1318 l 729 1336 l 718 1350 l 710 1358 l 693 1371 l 671 1385 l 653 1389 l 638 1388 l 624 1383 l 606 1365 l 599 1356 l 590 1346 l 582 1335 l 575 1325 l 569 1317 l 550 1296 l 524 1279 l 511 1286 l 461 1349 l 439 1372 l 413 1389 l 407 1390 l 390 1389 l 372 1385 l 342 1364 l 333 1357 l 314 1336 l 311 1311 l 319 1290 l 329 1274 l 339 1258 l 353 1244 l 364 1228 l 374 1217 l 388 1204 l 401 1186 l 411 1175 l 419 1165 l 432 1151 l 451 1128 l 471 1111 l 482 1103 z "},"Ê":{"ha":993,"x_min":0,"x_max":0,"o":"m 729 -4 l 768 -4 l 804 0 l 874 7 l 888 11 l 897 17 l 906 28 l 911 44 l 914 60 l 914 76 l 915 106 l 911 131 l 903 143 l 890 151 l 879 154 l 861 154 l 826 157 l 783 158 l 757 158 l 740 161 l 657 161 l 628 158 l 549 157 l 510 158 l 471 157 l 374 157 l 335 174 l 322 210 l 322 247 l 324 269 l 324 296 l 322 317 l 322 347 l 325 371 l 326 392 l 328 411 l 338 419 l 356 425 l 372 428 l 406 429 l 431 428 l 447 429 l 504 428 l 519 428 l 564 426 l 644 431 l 718 431 l 746 444 l 756 461 l 760 490 l 757 522 l 756 533 l 753 547 l 747 563 l 731 579 l 707 586 l 686 588 l 610 588 l 504 586 l 474 583 l 444 586 l 421 586 l 385 583 l 354 588 l 343 588 l 326 597 l 319 629 l 321 665 l 318 700 l 319 732 l 319 756 l 322 765 l 324 789 l 328 811 l 353 818 l 379 818 l 410 819 l 435 819 l 508 821 l 536 824 l 550 824 l 582 822 l 635 821 l 700 821 l 744 824 l 757 822 l 786 824 l 836 825 l 868 828 l 883 833 l 899 853 l 907 878 l 908 896 l 906 925 l 897 953 l 886 969 l 865 978 l 843 981 l 822 979 l 807 981 l 751 978 l 729 979 l 690 981 l 668 978 l 638 978 l 607 982 l 517 982 l 474 981 l 444 979 l 406 978 l 314 978 l 256 981 l 215 981 l 200 978 l 189 972 l 174 963 l 164 947 l 158 929 l 157 892 l 156 865 l 156 850 l 154 824 l 154 807 l 153 789 l 156 765 l 156 675 l 157 635 l 157 611 l 156 572 l 154 514 l 156 481 l 156 468 l 157 451 l 156 439 l 157 435 l 157 401 l 156 381 l 156 361 l 157 347 l 158 318 l 160 292 l 160 249 l 158 217 l 160 174 l 160 75 l 163 42 l 179 14 l 201 1 l 224 0 l 268 0 l 318 1 l 364 0 l 406 0 l 436 -3 l 443 -1 l 465 -3 l 485 0 l 507 0 l 533 -1 l 563 -1 l 601 0 l 619 -1 l 647 0 l 679 -3 l 692 -1 l 701 -3 z m 407 1096 l 413 1097 l 439 1114 l 461 1136 l 499 1186 l 511 1200 l 524 1207 l 550 1190 l 569 1169 l 575 1161 l 582 1151 l 590 1140 l 599 1131 l 606 1122 l 615 1111 l 624 1103 l 638 1099 l 653 1097 l 671 1101 l 693 1117 l 710 1128 l 718 1136 l 729 1150 l 736 1168 l 731 1190 l 708 1225 l 692 1249 l 675 1268 l 654 1290 l 643 1306 l 626 1325 l 607 1347 l 588 1367 l 569 1379 l 551 1386 l 524 1388 l 494 1388 l 482 1383 l 471 1375 l 451 1358 l 432 1335 l 419 1322 l 411 1311 l 401 1300 l 388 1282 l 374 1269 l 364 1258 l 353 1243 l 339 1228 l 329 1213 l 319 1196 l 310 1175 l 314 1150 l 333 1129 l 342 1122 l 372 1101 l 390 1099 z "},"Ë":{"ha":993,"x_min":0,"x_max":0,"o":"m 729 -4 l 768 -4 l 804 0 l 874 7 l 888 11 l 897 17 l 906 28 l 911 44 l 914 60 l 914 76 l 915 106 l 911 131 l 903 143 l 890 151 l 879 154 l 861 154 l 826 157 l 783 158 l 757 158 l 740 161 l 657 161 l 628 158 l 549 157 l 510 158 l 471 157 l 374 157 l 335 174 l 322 210 l 322 247 l 324 269 l 324 296 l 322 317 l 322 347 l 325 371 l 326 392 l 328 411 l 338 419 l 356 425 l 372 428 l 406 429 l 431 428 l 447 429 l 504 428 l 519 428 l 564 426 l 644 431 l 718 431 l 746 444 l 756 461 l 760 490 l 757 522 l 756 533 l 753 547 l 747 563 l 731 579 l 707 586 l 686 588 l 610 588 l 504 586 l 474 583 l 444 586 l 421 586 l 385 583 l 354 588 l 343 588 l 326 597 l 319 629 l 321 665 l 318 700 l 319 732 l 319 756 l 322 765 l 324 789 l 328 811 l 353 818 l 379 818 l 410 819 l 435 819 l 508 821 l 536 824 l 550 824 l 582 822 l 635 821 l 700 821 l 744 824 l 757 822 l 786 824 l 836 825 l 868 828 l 883 833 l 899 853 l 907 878 l 908 896 l 906 925 l 897 953 l 886 969 l 865 978 l 843 981 l 822 979 l 807 981 l 751 978 l 729 979 l 690 981 l 668 978 l 638 978 l 607 982 l 517 982 l 474 981 l 444 979 l 406 978 l 314 978 l 256 981 l 215 981 l 200 978 l 189 972 l 174 963 l 164 947 l 158 929 l 157 892 l 156 865 l 156 850 l 154 824 l 154 807 l 153 789 l 156 765 l 156 675 l 157 635 l 157 611 l 156 572 l 154 514 l 156 481 l 156 468 l 157 451 l 156 439 l 157 435 l 157 401 l 156 381 l 156 361 l 157 347 l 158 318 l 160 292 l 160 249 l 158 217 l 160 174 l 160 75 l 163 42 l 179 14 l 201 1 l 224 0 l 268 0 l 318 1 l 364 0 l 406 0 l 436 -3 l 443 -1 l 465 -3 l 485 0 l 507 0 l 533 -1 l 563 -1 l 601 0 l 619 -1 l 647 0 l 679 -3 l 692 -1 l 701 -3 z m 357 1115 l 400 1121 l 436 1138 l 457 1158 l 467 1179 l 471 1201 l 471 1217 l 468 1232 l 454 1267 l 431 1296 l 399 1310 l 365 1314 l 339 1306 l 315 1296 l 300 1282 l 282 1264 l 272 1231 l 274 1203 l 278 1181 l 289 1157 l 301 1143 l 321 1125 z m 661 1115 l 704 1121 l 739 1138 l 760 1158 l 771 1179 l 775 1201 l 775 1217 l 772 1232 l 757 1267 l 733 1296 l 703 1310 l 668 1314 l 643 1306 l 618 1296 l 603 1282 l 586 1264 l 574 1231 l 576 1203 l 581 1181 l 592 1157 l 604 1143 l 624 1125 z "},"Ė":{"ha":993,"x_min":0,"x_max":0,"o":"m 729 -4 l 768 -4 l 804 0 l 874 7 l 888 11 l 897 17 l 906 28 l 911 44 l 914 60 l 914 76 l 915 106 l 911 131 l 903 143 l 890 151 l 879 154 l 861 154 l 826 157 l 783 158 l 757 158 l 740 161 l 657 161 l 628 158 l 549 157 l 510 158 l 471 157 l 374 157 l 335 174 l 322 210 l 322 247 l 324 269 l 324 296 l 322 317 l 322 347 l 325 371 l 326 392 l 328 411 l 338 419 l 356 425 l 372 428 l 406 429 l 431 428 l 447 429 l 504 428 l 519 428 l 564 426 l 644 431 l 718 431 l 746 444 l 756 461 l 760 490 l 757 522 l 756 533 l 753 547 l 747 563 l 731 579 l 707 586 l 686 588 l 610 588 l 504 586 l 474 583 l 444 586 l 421 586 l 385 583 l 354 588 l 343 588 l 326 597 l 319 629 l 321 665 l 318 700 l 319 732 l 319 756 l 322 765 l 324 789 l 328 811 l 353 818 l 379 818 l 410 819 l 435 819 l 508 821 l 536 824 l 550 824 l 582 822 l 635 821 l 700 821 l 744 824 l 757 822 l 786 824 l 836 825 l 868 828 l 883 833 l 899 853 l 907 878 l 908 896 l 906 925 l 897 953 l 886 969 l 865 978 l 843 981 l 822 979 l 807 981 l 751 978 l 729 979 l 690 981 l 668 978 l 638 978 l 607 982 l 517 982 l 474 981 l 444 979 l 406 978 l 314 978 l 256 981 l 215 981 l 200 978 l 189 972 l 174 963 l 164 947 l 158 929 l 157 892 l 156 865 l 156 850 l 154 824 l 154 807 l 153 789 l 156 765 l 156 675 l 157 635 l 157 611 l 156 572 l 154 514 l 156 481 l 156 468 l 157 451 l 156 439 l 157 435 l 157 401 l 156 381 l 156 361 l 157 347 l 158 318 l 160 292 l 160 249 l 158 217 l 160 174 l 160 75 l 163 42 l 179 14 l 201 1 l 224 0 l 268 0 l 318 1 l 364 0 l 406 0 l 436 -3 l 443 -1 l 465 -3 l 485 0 l 507 0 l 533 -1 l 563 -1 l 601 0 l 619 -1 l 647 0 l 679 -3 l 692 -1 l 701 -3 z m 508 1115 l 551 1121 l 586 1138 l 608 1158 l 619 1179 l 624 1201 l 624 1217 l 619 1232 l 606 1265 l 582 1294 l 551 1310 l 517 1314 l 490 1306 l 467 1296 l 451 1282 l 433 1264 l 422 1231 l 424 1203 l 429 1181 l 440 1157 l 453 1143 l 472 1125 z "},"È":{"ha":993,"x_min":0,"x_max":0,"o":"m 729 -4 l 768 -4 l 804 0 l 874 7 l 888 11 l 897 17 l 906 28 l 911 44 l 914 60 l 914 76 l 915 106 l 911 131 l 903 143 l 890 151 l 879 154 l 861 154 l 826 157 l 783 158 l 757 158 l 740 161 l 657 161 l 628 158 l 549 157 l 510 158 l 471 157 l 374 157 l 335 174 l 322 210 l 322 247 l 324 269 l 324 296 l 322 317 l 322 347 l 325 371 l 326 392 l 328 411 l 338 419 l 356 425 l 372 428 l 406 429 l 431 428 l 447 429 l 504 428 l 519 428 l 564 426 l 644 431 l 718 431 l 746 444 l 756 461 l 760 490 l 757 522 l 756 533 l 753 547 l 747 563 l 731 579 l 707 586 l 686 588 l 610 588 l 504 586 l 474 583 l 444 586 l 421 586 l 385 583 l 354 588 l 343 588 l 326 597 l 319 629 l 321 665 l 318 700 l 319 732 l 319 756 l 322 765 l 324 789 l 328 811 l 353 818 l 379 818 l 410 819 l 435 819 l 508 821 l 536 824 l 550 824 l 582 822 l 635 821 l 700 821 l 744 824 l 757 822 l 786 824 l 836 825 l 868 828 l 883 833 l 899 853 l 907 878 l 908 896 l 906 925 l 897 953 l 886 969 l 865 978 l 843 981 l 822 979 l 807 981 l 751 978 l 729 979 l 690 981 l 668 978 l 638 978 l 607 982 l 517 982 l 474 981 l 444 979 l 406 978 l 314 978 l 256 981 l 215 981 l 200 978 l 189 972 l 174 963 l 164 947 l 158 929 l 157 892 l 156 865 l 156 850 l 154 824 l 154 807 l 153 789 l 156 765 l 156 675 l 157 635 l 157 611 l 156 572 l 154 514 l 156 481 l 156 468 l 157 451 l 156 439 l 157 435 l 157 401 l 156 381 l 156 361 l 157 347 l 158 318 l 160 292 l 160 249 l 158 217 l 160 174 l 160 75 l 163 42 l 179 14 l 201 1 l 224 0 l 268 0 l 318 1 l 364 0 l 406 0 l 436 -3 l 443 -1 l 465 -3 l 485 0 l 507 0 l 533 -1 l 563 -1 l 601 0 l 619 -1 l 647 0 l 679 -3 l 692 -1 l 701 -3 z m 554 1090 l 585 1097 l 604 1108 l 622 1117 l 646 1133 l 657 1154 l 661 1172 l 658 1189 l 647 1206 l 633 1229 l 618 1250 l 610 1267 l 596 1285 l 579 1306 l 572 1319 l 563 1328 l 554 1343 l 543 1357 l 536 1367 l 528 1375 l 521 1386 l 511 1396 l 497 1403 l 479 1404 l 463 1400 l 442 1392 l 415 1372 l 399 1357 l 389 1339 l 383 1321 l 393 1297 l 404 1278 l 415 1264 l 431 1249 l 446 1229 l 457 1214 l 464 1201 l 483 1176 l 497 1158 l 504 1142 l 522 1121 l 538 1100 z "},"Ē":{"ha":993,"x_min":0,"x_max":0,"o":"m 729 -4 l 768 -4 l 804 0 l 874 7 l 888 11 l 897 17 l 906 28 l 911 44 l 914 60 l 914 76 l 915 106 l 911 131 l 903 143 l 890 151 l 879 154 l 861 154 l 826 157 l 783 158 l 757 158 l 740 161 l 657 161 l 628 158 l 549 157 l 510 158 l 471 157 l 374 157 l 335 174 l 322 210 l 322 247 l 324 269 l 324 296 l 322 317 l 322 347 l 325 371 l 326 392 l 328 411 l 338 419 l 356 425 l 372 428 l 406 429 l 431 428 l 447 429 l 504 428 l 519 428 l 564 426 l 644 431 l 718 431 l 746 444 l 756 461 l 760 490 l 757 522 l 756 533 l 753 547 l 747 563 l 731 579 l 707 586 l 686 588 l 610 588 l 504 586 l 474 583 l 444 586 l 421 586 l 385 583 l 354 588 l 343 588 l 326 597 l 319 629 l 321 665 l 318 700 l 319 732 l 319 756 l 322 765 l 324 789 l 328 811 l 353 818 l 379 818 l 410 819 l 435 819 l 508 821 l 536 824 l 550 824 l 582 822 l 635 821 l 700 821 l 744 824 l 757 822 l 786 824 l 836 825 l 868 828 l 883 833 l 899 853 l 907 878 l 908 896 l 906 925 l 897 953 l 886 969 l 865 978 l 843 981 l 822 979 l 807 981 l 751 978 l 729 979 l 690 981 l 668 978 l 638 978 l 607 982 l 517 982 l 474 981 l 444 979 l 406 978 l 314 978 l 256 981 l 215 981 l 200 978 l 189 972 l 174 963 l 164 947 l 158 929 l 157 892 l 156 865 l 156 850 l 154 824 l 154 807 l 153 789 l 156 765 l 156 675 l 157 635 l 157 611 l 156 572 l 154 514 l 156 481 l 156 468 l 157 451 l 156 439 l 157 435 l 157 401 l 156 381 l 156 361 l 157 347 l 158 318 l 160 292 l 160 249 l 158 217 l 160 174 l 160 75 l 163 42 l 179 14 l 201 1 l 224 0 l 268 0 l 318 1 l 364 0 l 406 0 l 436 -3 l 443 -1 l 465 -3 l 485 0 l 507 0 l 533 -1 l 563 -1 l 601 0 l 619 -1 l 647 0 l 679 -3 l 692 -1 l 701 -3 z m 635 1149 l 651 1149 l 672 1154 l 686 1158 l 700 1167 l 708 1176 l 717 1192 l 719 1207 l 719 1224 l 715 1254 l 708 1276 l 694 1290 l 671 1300 l 629 1303 l 610 1303 l 582 1299 l 551 1299 l 536 1301 l 517 1301 l 486 1303 l 465 1303 l 449 1300 l 418 1303 l 378 1301 l 353 1294 l 343 1289 l 331 1267 l 326 1242 l 325 1219 l 333 1196 l 340 1178 l 347 1165 l 367 1157 l 415 1154 l 483 1154 l 524 1153 l 563 1154 l 610 1153 z "},"Ę":{"ha":993,"x_min":0,"x_max":0,"o":"m 799 -367 l 831 -361 l 865 -347 l 896 -326 l 910 -312 l 922 -303 l 932 -290 l 938 -282 l 942 -272 l 944 -260 l 944 -244 l 940 -232 l 924 -212 l 904 -196 l 888 -190 l 872 -187 l 846 -194 l 818 -207 l 807 -214 l 796 -219 l 778 -212 l 774 -200 l 776 -189 l 779 -176 l 789 -156 l 801 -131 l 807 -121 l 813 -106 l 822 -87 l 835 -67 l 844 -53 l 851 -44 l 863 -31 l 874 -15 l 889 7 l 906 28 l 911 44 l 914 60 l 914 76 l 915 106 l 911 131 l 903 143 l 890 151 l 879 154 l 861 154 l 826 157 l 783 158 l 757 158 l 740 161 l 657 161 l 628 158 l 549 157 l 510 158 l 471 157 l 374 157 l 335 174 l 322 210 l 322 247 l 324 269 l 324 296 l 322 317 l 322 347 l 325 371 l 326 392 l 328 411 l 338 419 l 356 425 l 372 428 l 406 429 l 431 428 l 447 429 l 504 428 l 519 428 l 564 426 l 644 431 l 718 431 l 746 444 l 756 461 l 760 490 l 757 522 l 756 533 l 753 547 l 747 563 l 731 579 l 707 586 l 686 588 l 610 588 l 504 586 l 474 583 l 444 586 l 421 586 l 385 583 l 354 588 l 343 588 l 326 597 l 319 629 l 321 665 l 318 700 l 319 732 l 319 756 l 322 765 l 324 789 l 328 811 l 353 818 l 379 818 l 410 819 l 435 819 l 508 821 l 536 824 l 550 824 l 582 822 l 635 821 l 700 821 l 744 824 l 757 822 l 786 824 l 836 825 l 868 828 l 883 833 l 899 853 l 907 878 l 908 896 l 906 925 l 897 953 l 886 969 l 865 978 l 843 981 l 822 979 l 807 981 l 751 978 l 729 979 l 690 981 l 668 978 l 638 978 l 607 982 l 517 982 l 474 981 l 444 979 l 406 978 l 314 978 l 256 981 l 215 981 l 200 978 l 189 972 l 174 963 l 164 947 l 158 929 l 157 892 l 156 865 l 156 850 l 154 824 l 154 807 l 153 789 l 156 765 l 156 675 l 157 635 l 157 611 l 156 572 l 154 514 l 156 481 l 156 468 l 157 451 l 156 439 l 157 435 l 157 401 l 156 381 l 156 361 l 157 347 l 158 318 l 160 292 l 160 249 l 158 217 l 160 174 l 160 75 l 163 42 l 179 14 l 201 1 l 224 0 l 268 0 l 318 1 l 364 0 l 406 0 l 436 -3 l 443 -1 l 465 -3 l 485 0 l 507 0 l 533 -1 l 563 -1 l 601 0 l 619 -1 l 647 0 l 679 -3 l 692 -1 l 701 -3 l 714 -4 l 715 -10 l 700 -25 l 678 -50 l 636 -114 l 619 -137 l 614 -153 l 607 -169 l 604 -187 l 601 -211 l 608 -253 l 628 -292 l 649 -319 l 665 -333 l 682 -342 l 706 -350 l 728 -360 l 761 -365 z "},"F":{"ha":976,"x_min":0,"x_max":0,"o":"m 224 -4 l 251 -3 l 282 1 l 299 10 l 314 24 l 319 42 l 322 57 l 322 126 l 325 169 l 324 215 l 322 249 l 321 264 l 321 290 l 318 317 l 318 365 l 321 381 l 332 399 l 347 406 l 369 410 l 397 411 l 421 414 l 439 413 l 458 414 l 482 413 l 521 414 l 632 417 l 658 418 l 694 418 l 726 426 l 743 442 l 754 479 l 754 507 l 747 536 l 732 558 l 719 568 l 708 572 l 679 576 l 561 576 l 544 574 l 524 574 l 500 572 l 428 575 l 407 574 l 371 575 l 342 578 l 333 583 l 325 597 l 319 625 l 318 651 l 318 715 l 319 732 l 318 772 l 322 806 l 340 813 l 383 815 l 486 815 l 501 817 l 543 817 l 574 819 l 661 821 l 696 821 l 731 819 l 846 819 l 874 824 l 889 832 l 897 850 l 900 876 l 900 910 l 894 938 l 886 951 l 875 961 l 858 969 l 838 974 l 793 976 l 765 976 l 679 979 l 671 978 l 650 978 l 571 975 l 547 975 l 517 974 l 485 975 l 465 972 l 440 972 l 410 974 l 381 971 l 346 969 l 314 971 l 296 969 l 238 971 l 203 971 l 185 965 l 168 950 l 161 933 l 157 915 l 156 899 l 157 876 l 157 800 l 158 779 l 156 760 l 157 732 l 157 686 l 156 638 l 157 594 l 154 556 l 158 518 l 156 464 l 156 389 l 154 354 l 156 335 l 154 308 l 157 279 l 157 158 l 156 115 l 157 68 l 156 36 l 163 18 l 171 7 l 196 -3 z "},"G":{"ha":1169,"x_min":0,"x_max":0,"o":"m 585 -29 l 601 -26 l 628 -26 l 654 -25 l 667 -21 l 690 -21 l 711 -15 l 724 -14 l 735 -11 l 754 -4 l 775 0 l 803 10 l 831 24 l 842 28 l 868 44 l 876 51 l 890 58 l 906 69 l 919 81 l 949 108 l 971 135 l 985 149 l 1001 169 l 1013 188 l 1021 201 l 1033 224 l 1042 243 l 1050 257 l 1060 288 l 1072 319 l 1075 339 l 1079 351 l 1085 378 l 1090 428 l 1090 486 l 1076 529 l 1056 551 l 1040 560 l 1026 564 l 978 568 l 922 571 l 896 571 l 797 572 l 767 572 l 749 571 l 707 571 l 654 567 l 597 567 l 583 563 l 569 554 l 558 538 l 553 522 l 553 494 l 557 457 l 563 435 l 574 418 l 596 410 l 625 407 l 646 407 l 658 404 l 678 406 l 694 407 l 736 408 l 788 408 l 801 406 l 840 407 l 897 407 l 915 396 l 917 382 l 914 364 l 908 342 l 894 314 l 881 289 l 867 268 l 854 250 l 828 221 l 807 201 l 778 182 l 731 160 l 704 151 l 668 142 l 640 138 l 586 133 l 554 136 l 529 142 l 492 151 l 453 167 l 407 193 l 367 226 l 346 244 l 335 258 l 322 278 l 313 290 l 300 303 l 292 318 l 282 332 l 274 349 l 265 368 l 260 390 l 257 414 l 254 447 l 250 471 l 250 518 l 256 558 l 265 589 l 272 611 l 283 639 l 299 672 l 308 686 l 315 699 l 354 743 l 365 753 l 378 765 l 394 779 l 424 797 l 454 813 l 475 822 l 506 829 l 553 838 l 583 840 l 590 842 l 617 839 l 694 825 l 717 818 l 742 808 l 774 790 l 808 768 l 840 742 l 868 715 l 889 697 l 908 690 l 939 692 l 968 707 l 988 722 l 1001 743 l 1010 771 l 1006 792 l 996 811 l 975 838 l 958 858 l 949 867 l 933 881 l 911 896 l 885 917 l 843 936 l 831 944 l 815 951 l 794 963 l 760 975 l 746 979 l 725 983 l 697 990 l 676 993 l 667 996 l 632 999 l 600 1003 l 572 1001 l 540 1001 l 522 997 l 493 993 l 460 982 l 425 971 l 401 964 l 386 958 l 371 950 l 354 939 l 339 931 l 311 913 l 289 899 l 275 886 l 243 860 l 211 829 l 192 801 l 169 775 l 156 749 l 147 736 l 135 714 l 124 693 l 121 683 l 117 671 l 110 658 l 104 640 l 101 625 l 96 606 l 93 585 l 88 563 l 86 539 l 86 528 l 83 506 l 86 476 l 85 460 l 88 447 l 90 421 l 94 397 l 97 382 l 101 360 l 108 332 l 114 314 l 122 297 l 133 267 l 150 229 l 171 197 l 193 169 l 210 146 l 233 121 l 260 99 l 275 85 l 294 72 l 322 50 l 372 22 l 399 11 l 438 0 l 460 -7 l 474 -11 l 503 -17 l 529 -25 l 554 -28 z "},"Ģ":{"ha":1169,"x_min":0,"x_max":0,"o":"m 585 -29 l 601 -26 l 628 -26 l 654 -25 l 667 -21 l 690 -21 l 711 -15 l 724 -14 l 735 -11 l 754 -4 l 775 0 l 803 10 l 831 24 l 842 28 l 868 44 l 876 51 l 890 58 l 906 69 l 919 81 l 949 108 l 971 135 l 985 149 l 1001 169 l 1013 188 l 1021 201 l 1033 224 l 1042 243 l 1050 257 l 1060 288 l 1072 319 l 1075 339 l 1079 351 l 1085 378 l 1090 428 l 1090 486 l 1076 529 l 1056 551 l 1040 560 l 1026 564 l 978 568 l 922 571 l 896 571 l 797 572 l 767 572 l 749 571 l 707 571 l 654 567 l 597 567 l 583 563 l 569 554 l 558 538 l 553 522 l 553 494 l 557 457 l 563 435 l 574 418 l 596 410 l 625 407 l 646 407 l 658 404 l 678 406 l 694 407 l 736 408 l 788 408 l 801 406 l 840 407 l 897 407 l 915 396 l 917 382 l 914 364 l 908 342 l 894 314 l 881 289 l 867 268 l 854 250 l 828 221 l 807 201 l 778 182 l 731 160 l 704 151 l 668 142 l 640 138 l 586 133 l 554 136 l 529 142 l 492 151 l 453 167 l 407 193 l 367 226 l 346 244 l 335 258 l 322 278 l 313 290 l 300 303 l 292 318 l 282 332 l 274 349 l 265 368 l 260 390 l 257 414 l 254 447 l 250 471 l 250 518 l 256 558 l 265 589 l 272 611 l 283 639 l 299 672 l 308 686 l 315 699 l 354 743 l 365 753 l 378 765 l 394 779 l 424 797 l 454 813 l 475 822 l 506 829 l 553 838 l 583 840 l 590 842 l 617 839 l 694 825 l 717 818 l 742 808 l 774 790 l 808 768 l 840 742 l 868 715 l 889 697 l 908 690 l 939 692 l 968 707 l 988 722 l 1001 743 l 1010 771 l 1006 792 l 996 811 l 975 838 l 958 858 l 949 867 l 933 881 l 911 896 l 885 917 l 843 936 l 831 944 l 815 951 l 794 963 l 760 975 l 746 979 l 725 983 l 697 990 l 676 993 l 667 996 l 632 999 l 600 1003 l 572 1001 l 540 1001 l 522 997 l 493 993 l 460 982 l 425 971 l 401 964 l 386 958 l 371 950 l 354 939 l 339 931 l 311 913 l 289 899 l 275 886 l 243 860 l 211 829 l 192 801 l 169 775 l 156 749 l 147 736 l 135 714 l 124 693 l 121 683 l 117 671 l 110 658 l 104 640 l 101 625 l 96 606 l 93 585 l 88 563 l 86 539 l 86 528 l 83 506 l 86 476 l 85 460 l 88 447 l 90 421 l 94 397 l 97 382 l 101 360 l 108 332 l 114 314 l 122 297 l 133 267 l 150 229 l 171 197 l 193 169 l 210 146 l 233 121 l 260 99 l 275 85 l 294 72 l 322 50 l 372 22 l 399 11 l 438 0 l 460 -7 l 474 -11 l 503 -17 l 529 -25 l 554 -28 z m 592 -367 l 624 -364 l 636 -349 l 643 -324 l 654 -299 l 654 -281 l 663 -260 l 667 -244 l 674 -229 l 675 -215 l 681 -197 l 696 -157 l 700 -125 l 689 -108 l 675 -94 l 653 -86 l 621 -75 l 599 -75 l 582 -76 l 565 -83 l 554 -96 l 547 -107 l 542 -122 l 538 -140 l 531 -153 l 529 -168 l 521 -193 l 514 -215 l 511 -232 l 503 -258 l 497 -285 l 493 -304 l 496 -321 l 506 -336 l 522 -351 l 550 -360 l 571 -362 z "},"H":{"ha":1133,"x_min":0,"x_max":0,"o":"m 229 -3 l 246 -3 l 271 3 l 297 14 l 310 24 l 319 38 l 322 63 l 324 89 l 322 110 l 322 139 l 321 176 l 318 201 l 319 224 l 321 243 l 321 367 l 326 400 l 349 419 l 358 422 l 382 424 l 419 424 l 461 425 l 486 425 l 519 428 l 568 426 l 622 428 l 675 424 l 711 425 l 781 422 l 803 419 l 814 403 l 815 367 l 815 108 l 814 60 l 817 40 l 825 19 l 843 6 l 857 0 l 896 -3 l 933 1 l 954 10 l 971 32 l 976 63 l 979 93 l 979 113 l 978 128 l 981 149 l 979 172 l 981 192 l 981 213 l 979 231 l 976 257 l 978 288 l 979 306 l 979 326 l 978 360 l 981 397 l 978 442 l 976 489 l 978 526 l 976 553 l 979 575 l 978 613 l 978 640 l 979 683 l 981 724 l 979 771 l 978 813 l 978 849 l 981 878 l 978 904 l 975 924 l 968 953 l 949 969 l 925 976 l 897 976 l 874 978 l 847 972 l 829 957 l 822 946 l 818 932 l 814 907 l 814 769 l 813 749 l 814 708 l 814 644 l 811 621 l 806 603 l 800 592 l 786 588 l 763 585 l 728 586 l 688 585 l 660 586 l 619 585 l 510 585 l 475 583 l 425 585 l 400 585 l 360 586 l 335 588 l 324 593 l 321 601 l 318 618 l 319 632 l 319 649 l 318 675 l 317 700 l 317 763 l 318 789 l 318 818 l 317 861 l 317 900 l 314 922 l 311 939 l 307 950 l 299 963 l 289 971 l 274 975 l 254 979 l 229 979 l 194 975 l 174 961 l 167 954 l 157 938 l 154 896 l 154 858 l 156 825 l 154 794 l 154 767 l 156 717 l 156 617 l 157 582 l 157 544 l 158 522 l 158 483 l 157 450 l 157 418 l 158 404 l 160 383 l 160 322 l 156 272 l 156 249 l 157 208 l 156 186 l 157 165 l 157 128 l 158 99 l 157 76 l 158 49 l 164 29 l 174 14 l 203 1 z "},"I":{"ha":481,"x_min":0,"x_max":0,"o":"m 231 0 l 242 1 l 271 1 l 296 11 l 306 15 l 313 24 l 319 39 l 326 78 l 328 110 l 328 175 l 325 190 l 325 263 l 324 285 l 324 363 l 322 375 l 322 393 l 325 432 l 324 497 l 325 535 l 324 565 l 324 600 l 322 619 l 322 647 l 324 690 l 325 725 l 322 749 l 322 782 l 324 817 l 321 840 l 322 856 l 322 879 l 321 914 l 319 939 l 308 957 l 297 969 l 275 976 l 246 978 l 221 978 l 194 975 l 176 963 l 168 954 l 161 942 l 156 919 l 157 892 l 157 758 l 158 731 l 157 693 l 157 653 l 153 611 l 154 588 l 158 549 l 158 526 l 157 510 l 161 485 l 161 460 l 163 443 l 158 418 l 161 390 l 158 357 l 158 314 l 163 290 l 161 275 l 160 257 l 163 222 l 161 190 l 164 168 l 163 135 l 163 79 l 161 47 l 167 28 l 186 8 l 213 1 z "},"Í":{"ha":481,"x_min":0,"x_max":0,"o":"m 231 0 l 242 1 l 271 1 l 296 11 l 306 15 l 313 24 l 319 39 l 326 78 l 328 110 l 328 175 l 325 190 l 325 263 l 324 285 l 324 363 l 322 375 l 322 393 l 325 432 l 324 497 l 325 535 l 324 565 l 324 600 l 322 619 l 322 647 l 324 690 l 325 725 l 322 749 l 322 782 l 324 817 l 321 840 l 322 856 l 322 879 l 321 914 l 319 939 l 308 957 l 297 969 l 275 976 l 246 978 l 221 978 l 194 975 l 176 963 l 168 954 l 161 942 l 156 919 l 157 892 l 157 758 l 158 731 l 157 693 l 157 653 l 153 611 l 154 588 l 158 549 l 158 526 l 157 510 l 161 485 l 161 460 l 163 443 l 158 418 l 161 390 l 158 357 l 158 314 l 163 290 l 161 275 l 160 257 l 163 222 l 161 190 l 164 168 l 163 135 l 163 79 l 161 47 l 167 28 l 186 8 l 213 1 z m 208 1090 l 225 1100 l 240 1121 l 258 1142 l 265 1158 l 279 1176 l 299 1201 l 306 1214 l 317 1229 l 332 1249 l 347 1264 l 358 1278 l 369 1296 l 379 1319 l 374 1339 l 365 1357 l 347 1372 l 321 1392 l 300 1400 l 283 1403 l 265 1403 l 251 1396 l 242 1386 l 235 1375 l 226 1367 l 219 1357 l 208 1343 l 200 1328 l 190 1319 l 183 1306 l 167 1285 l 154 1267 l 144 1250 l 129 1229 l 115 1206 l 104 1189 l 101 1172 l 106 1154 l 117 1133 l 140 1117 l 158 1108 l 178 1097 z "},"Î":{"ha":481,"x_min":0,"x_max":0,"o":"m 231 0 l 242 1 l 271 1 l 296 11 l 306 15 l 313 24 l 319 39 l 326 78 l 328 110 l 328 175 l 325 190 l 325 263 l 324 285 l 324 363 l 322 375 l 322 393 l 325 432 l 324 497 l 325 535 l 324 565 l 324 600 l 322 619 l 322 647 l 324 690 l 325 725 l 322 749 l 322 782 l 324 817 l 321 840 l 322 856 l 322 879 l 321 914 l 319 939 l 308 957 l 297 969 l 275 976 l 246 978 l 221 978 l 194 975 l 176 963 l 168 954 l 161 942 l 156 919 l 157 892 l 157 758 l 158 731 l 157 693 l 157 653 l 153 611 l 154 588 l 158 549 l 158 526 l 157 510 l 161 485 l 161 460 l 163 443 l 158 418 l 161 390 l 158 357 l 158 314 l 163 290 l 161 275 l 160 257 l 163 222 l 161 190 l 164 168 l 163 135 l 163 79 l 161 47 l 167 28 l 186 8 l 213 1 z m 125 1096 l 131 1097 l 157 1114 l 179 1136 l 217 1186 l 229 1200 l 242 1207 l 268 1190 l 288 1169 l 293 1161 l 300 1151 l 308 1140 l 317 1131 l 324 1122 l 333 1111 l 342 1103 l 356 1099 l 371 1097 l 389 1101 l 411 1117 l 428 1128 l 436 1136 l 447 1150 l 454 1168 l 449 1190 l 426 1225 l 410 1249 l 393 1268 l 372 1290 l 361 1306 l 344 1325 l 325 1347 l 306 1367 l 288 1379 l 269 1386 l 242 1388 l 213 1388 l 200 1383 l 189 1375 l 169 1358 l 150 1335 l 138 1322 l 129 1311 l 119 1300 l 106 1282 l 92 1269 l 82 1258 l 71 1243 l 57 1228 l 47 1213 l 38 1196 l 28 1175 l 32 1150 l 51 1129 l 60 1122 l 90 1101 l 108 1099 z "},"Ï":{"ha":481,"x_min":0,"x_max":0,"o":"m 231 0 l 242 1 l 271 1 l 296 11 l 306 15 l 313 24 l 319 39 l 326 78 l 328 110 l 328 175 l 325 190 l 325 263 l 324 285 l 324 363 l 322 375 l 322 393 l 325 432 l 324 497 l 325 535 l 324 565 l 324 600 l 322 619 l 322 647 l 324 690 l 325 725 l 322 749 l 322 782 l 324 817 l 321 840 l 322 856 l 322 879 l 321 914 l 319 939 l 308 957 l 297 969 l 275 976 l 246 978 l 221 978 l 194 975 l 176 963 l 168 954 l 161 942 l 156 919 l 157 892 l 157 758 l 158 731 l 157 693 l 157 653 l 153 611 l 154 588 l 158 549 l 158 526 l 157 510 l 161 485 l 161 460 l 163 443 l 158 418 l 161 390 l 158 357 l 158 314 l 163 290 l 161 275 l 160 257 l 163 222 l 161 190 l 164 168 l 163 135 l 163 79 l 161 47 l 167 28 l 186 8 l 213 1 z m 75 1115 l 118 1121 l 154 1138 l 175 1158 l 185 1179 l 189 1201 l 189 1217 l 186 1232 l 172 1267 l 149 1296 l 117 1310 l 83 1314 l 57 1306 l 33 1296 l 18 1282 l 0 1264 l -10 1231 l -8 1203 l -4 1181 l 7 1157 l 19 1143 l 39 1125 z m 379 1115 l 422 1121 l 457 1138 l 478 1158 l 489 1179 l 493 1201 l 493 1217 l 490 1232 l 475 1267 l 451 1296 l 421 1310 l 386 1314 l 361 1306 l 336 1296 l 321 1282 l 304 1264 l 292 1231 l 294 1203 l 299 1181 l 310 1157 l 322 1143 l 342 1125 z "},"Ì":{"ha":481,"x_min":0,"x_max":0,"o":"m 231 0 l 242 1 l 271 1 l 296 11 l 306 15 l 313 24 l 319 39 l 326 78 l 328 110 l 328 175 l 325 190 l 325 263 l 324 285 l 324 363 l 322 375 l 322 393 l 325 432 l 324 497 l 325 535 l 324 565 l 324 600 l 322 619 l 322 647 l 324 690 l 325 725 l 322 749 l 322 782 l 324 817 l 321 840 l 322 856 l 322 879 l 321 914 l 319 939 l 308 957 l 297 969 l 275 976 l 246 978 l 221 978 l 194 975 l 176 963 l 168 954 l 161 942 l 156 919 l 157 892 l 157 758 l 158 731 l 157 693 l 157 653 l 153 611 l 154 588 l 158 549 l 158 526 l 157 510 l 161 485 l 161 460 l 163 443 l 158 418 l 161 390 l 158 357 l 158 314 l 163 290 l 161 275 l 160 257 l 163 222 l 161 190 l 164 168 l 163 135 l 163 79 l 161 47 l 167 28 l 186 8 l 213 1 z m 272 1090 l 303 1097 l 322 1108 l 340 1117 l 364 1133 l 375 1154 l 379 1172 l 376 1189 l 365 1206 l 351 1229 l 336 1250 l 328 1267 l 314 1285 l 297 1306 l 290 1319 l 281 1328 l 272 1343 l 261 1357 l 254 1367 l 246 1375 l 239 1386 l 229 1396 l 215 1403 l 197 1404 l 181 1400 l 160 1392 l 133 1372 l 117 1357 l 107 1339 l 101 1321 l 111 1297 l 122 1278 l 133 1264 l 149 1249 l 164 1229 l 175 1214 l 182 1201 l 201 1176 l 215 1158 l 222 1142 l 240 1121 l 256 1100 z "},"Ī":{"ha":481,"x_min":0,"x_max":0,"o":"m 231 0 l 242 1 l 271 1 l 296 11 l 306 15 l 313 24 l 319 39 l 326 78 l 328 110 l 328 175 l 325 190 l 325 263 l 324 285 l 324 363 l 322 375 l 322 393 l 325 432 l 324 497 l 325 535 l 324 565 l 324 600 l 322 619 l 322 647 l 324 690 l 325 725 l 322 749 l 322 782 l 324 817 l 321 840 l 322 856 l 322 879 l 321 914 l 319 939 l 308 957 l 297 969 l 275 976 l 246 978 l 221 978 l 194 975 l 176 963 l 168 954 l 161 942 l 156 919 l 157 892 l 157 758 l 158 731 l 157 693 l 157 653 l 153 611 l 154 588 l 158 549 l 158 526 l 157 510 l 161 485 l 161 460 l 163 443 l 158 418 l 161 390 l 158 357 l 158 314 l 163 290 l 161 275 l 160 257 l 163 222 l 161 190 l 164 168 l 163 135 l 163 79 l 161 47 l 167 28 l 186 8 l 213 1 z m 353 1149 l 369 1149 l 390 1154 l 404 1158 l 418 1167 l 426 1176 l 435 1192 l 438 1207 l 438 1224 l 433 1254 l 426 1276 l 413 1290 l 389 1300 l 347 1303 l 328 1303 l 300 1299 l 269 1299 l 254 1301 l 235 1301 l 204 1303 l 183 1303 l 167 1300 l 136 1303 l 96 1301 l 71 1294 l 61 1289 l 49 1267 l 44 1242 l 43 1219 l 51 1196 l 58 1178 l 65 1165 l 85 1157 l 133 1154 l 201 1154 l 242 1153 l 281 1154 l 328 1153 z "},"Į":{"ha":481,"x_min":0,"x_max":0,"o":"m 213 -367 l 244 -361 l 279 -347 l 310 -326 l 324 -312 l 336 -303 l 346 -290 l 351 -282 l 356 -272 l 358 -260 l 358 -244 l 354 -232 l 338 -212 l 318 -196 l 301 -190 l 286 -187 l 260 -194 l 232 -207 l 221 -214 l 210 -219 l 192 -212 l 188 -200 l 190 -189 l 193 -176 l 203 -156 l 215 -131 l 221 -121 l 226 -106 l 236 -87 l 249 -67 l 258 -53 l 265 -44 l 276 -31 l 288 -15 l 304 10 l 319 39 l 326 78 l 328 110 l 328 175 l 325 190 l 325 263 l 324 285 l 324 363 l 322 375 l 322 393 l 325 432 l 324 497 l 325 535 l 324 565 l 324 600 l 322 619 l 322 647 l 324 690 l 325 725 l 322 749 l 322 782 l 324 817 l 321 840 l 322 856 l 322 879 l 321 914 l 319 939 l 308 957 l 297 969 l 275 976 l 246 978 l 221 978 l 194 975 l 176 963 l 168 954 l 161 942 l 156 919 l 157 892 l 157 758 l 158 731 l 157 693 l 157 653 l 153 611 l 154 588 l 158 549 l 158 526 l 157 510 l 161 485 l 161 460 l 163 443 l 158 418 l 161 390 l 158 357 l 158 314 l 163 290 l 161 275 l 160 257 l 163 222 l 161 190 l 164 168 l 163 135 l 163 79 l 161 47 l 165 33 l 160 19 l 139 3 l 114 -25 l 92 -50 l 50 -114 l 33 -137 l 28 -153 l 21 -169 l 18 -187 l 15 -211 l 22 -253 l 42 -292 l 63 -319 l 79 -333 l 96 -342 l 119 -350 l 142 -360 l 175 -365 z "},"J":{"ha":999,"x_min":0,"x_max":0,"o":"m 471 -28 l 501 -28 l 515 -26 l 564 -19 l 585 -15 l 614 -7 l 631 -3 l 658 7 l 685 19 l 700 29 l 722 44 l 751 65 l 768 88 l 782 104 l 793 122 l 804 143 l 814 168 l 819 188 l 822 201 l 831 219 l 836 250 l 838 276 l 840 306 l 842 326 l 842 349 l 840 392 l 840 417 l 842 467 l 842 519 l 843 549 l 842 569 l 844 611 l 844 647 l 846 674 l 844 703 l 844 786 l 843 806 l 844 824 l 843 850 l 843 868 l 842 878 l 840 907 l 838 940 l 833 954 l 825 967 l 800 979 l 754 982 l 715 976 l 694 964 l 679 933 l 678 883 l 676 840 l 676 814 l 678 788 l 678 714 l 681 671 l 681 636 l 679 631 l 679 589 l 681 581 l 681 518 l 682 507 l 681 483 l 682 450 l 682 417 l 681 397 l 679 379 l 681 365 l 679 350 l 679 333 l 678 304 l 674 281 l 672 267 l 665 236 l 643 197 l 614 172 l 594 161 l 571 153 l 531 143 l 501 139 l 485 142 l 469 140 l 443 143 l 404 150 l 372 161 l 349 174 l 319 199 l 293 236 l 288 258 l 281 276 l 276 293 l 275 303 l 274 338 l 275 381 l 274 410 l 264 433 l 246 449 l 228 454 l 188 457 l 165 454 l 142 446 l 125 429 l 117 411 l 111 385 l 113 349 l 113 325 l 114 308 l 117 286 l 119 268 l 125 240 l 129 214 l 138 188 l 153 147 l 168 121 l 183 99 l 197 76 l 222 54 l 246 35 l 272 21 l 299 10 l 317 0 l 360 -12 l 407 -22 l 429 -24 l 439 -26 z "},"K":{"ha":1092,"x_min":0,"x_max":0,"o":"m 892 -8 l 918 1 l 947 22 l 971 43 l 981 56 l 988 76 l 979 106 l 957 139 l 931 172 l 911 199 l 899 214 l 893 224 l 878 243 l 863 264 l 853 279 l 842 292 l 832 306 l 818 328 l 799 354 l 782 372 l 769 388 l 757 404 l 746 419 l 735 436 l 724 449 l 711 465 l 699 481 l 682 507 l 667 528 l 658 540 l 649 561 l 653 579 l 665 597 l 688 619 l 711 644 l 732 663 l 746 678 l 786 721 l 864 799 l 886 822 l 901 838 l 913 850 l 924 864 l 935 889 l 936 915 l 928 931 l 921 940 l 907 951 l 894 963 l 874 978 l 839 985 l 821 979 l 813 975 l 790 956 l 767 932 l 751 914 l 736 900 l 714 879 l 688 853 l 667 828 l 643 807 l 628 792 l 597 763 l 544 714 l 525 694 l 500 671 l 478 646 l 444 613 l 413 582 l 390 558 l 372 542 l 344 511 l 321 508 l 321 528 l 319 554 l 318 590 l 321 619 l 319 656 l 321 686 l 319 728 l 321 781 l 321 860 l 319 892 l 318 928 l 313 946 l 297 964 l 285 971 l 263 974 l 232 974 l 217 975 l 203 974 l 181 968 l 165 956 l 158 939 l 156 926 l 154 911 l 154 886 l 153 853 l 154 825 l 153 790 l 153 753 l 154 719 l 157 699 l 156 683 l 158 654 l 158 593 l 157 556 l 157 376 l 158 336 l 157 313 l 157 153 l 160 110 l 160 82 l 158 69 l 164 38 l 167 26 l 171 15 l 189 4 l 206 -3 l 233 -4 l 272 -1 l 301 14 l 317 32 l 319 50 l 321 76 l 321 93 l 322 106 l 321 136 l 324 172 l 322 201 l 321 232 l 329 272 l 358 303 l 389 331 l 407 350 l 424 367 l 440 385 l 456 397 l 469 414 l 482 426 l 501 442 l 521 435 l 535 413 l 550 396 l 561 381 l 572 368 l 583 354 l 607 328 l 633 290 l 653 264 l 660 251 l 679 228 l 700 200 l 711 189 l 731 160 l 758 129 l 772 106 l 788 86 l 797 69 l 810 56 l 854 3 l 869 -7 z "},"Ķ":{"ha":1092,"x_min":0,"x_max":0,"o":"m 892 -8 l 918 1 l 947 22 l 971 43 l 981 56 l 988 76 l 979 106 l 957 139 l 931 172 l 911 199 l 899 214 l 893 224 l 878 243 l 863 264 l 853 279 l 842 292 l 832 306 l 818 328 l 799 354 l 782 372 l 769 388 l 757 404 l 746 419 l 735 436 l 724 449 l 711 465 l 699 481 l 682 507 l 667 528 l 658 540 l 649 561 l 653 579 l 665 597 l 688 619 l 711 644 l 732 663 l 746 678 l 786 721 l 864 799 l 886 822 l 901 838 l 913 850 l 924 864 l 935 889 l 936 915 l 928 931 l 921 940 l 907 951 l 894 963 l 874 978 l 839 985 l 821 979 l 813 975 l 790 956 l 767 932 l 751 914 l 736 900 l 714 879 l 688 853 l 667 828 l 643 807 l 628 792 l 597 763 l 544 714 l 525 694 l 500 671 l 478 646 l 444 613 l 413 582 l 390 558 l 372 542 l 344 511 l 321 508 l 321 528 l 319 554 l 318 590 l 321 619 l 319 656 l 321 686 l 319 728 l 321 781 l 321 860 l 319 892 l 318 928 l 313 946 l 297 964 l 285 971 l 263 974 l 232 974 l 217 975 l 203 974 l 181 968 l 165 956 l 158 939 l 156 926 l 154 911 l 154 886 l 153 853 l 154 825 l 153 790 l 153 753 l 154 719 l 157 699 l 156 683 l 158 654 l 158 593 l 157 556 l 157 376 l 158 336 l 157 313 l 157 153 l 160 110 l 160 82 l 158 69 l 164 38 l 167 26 l 171 15 l 189 4 l 206 -3 l 233 -4 l 272 -1 l 301 14 l 317 32 l 319 50 l 321 76 l 321 93 l 322 106 l 321 136 l 324 172 l 322 201 l 321 232 l 329 272 l 358 303 l 389 331 l 407 350 l 424 367 l 440 385 l 456 397 l 469 414 l 482 426 l 501 442 l 521 435 l 535 413 l 550 396 l 561 381 l 572 368 l 583 354 l 607 328 l 633 290 l 653 264 l 660 251 l 679 228 l 700 200 l 711 189 l 731 160 l 758 129 l 772 106 l 788 86 l 797 69 l 810 56 l 854 3 l 869 -7 z m 549 -367 l 581 -364 l 593 -349 l 600 -324 l 611 -299 l 611 -281 l 619 -260 l 624 -244 l 631 -229 l 632 -215 l 638 -197 l 653 -157 l 657 -125 l 646 -108 l 632 -94 l 610 -86 l 578 -75 l 556 -75 l 539 -76 l 522 -83 l 511 -96 l 504 -107 l 499 -122 l 494 -140 l 488 -153 l 486 -168 l 478 -193 l 471 -215 l 468 -232 l 460 -258 l 454 -285 l 450 -304 l 453 -321 l 463 -336 l 479 -351 l 507 -360 l 528 -362 z "},"L":{"ha":931,"x_min":0,"x_max":0,"o":"m 213 -3 l 481 -3 l 563 0 l 583 -1 l 663 -1 l 681 -3 l 704 1 l 776 1 l 800 0 l 819 3 l 843 15 l 854 25 l 858 35 l 861 49 l 861 111 l 858 121 l 843 139 l 828 149 l 810 153 l 790 153 l 769 154 l 736 154 l 703 150 l 678 150 l 661 153 l 633 153 l 613 154 l 588 154 l 561 153 l 539 149 l 510 149 l 482 150 l 460 151 l 446 153 l 433 151 l 403 153 l 342 153 l 335 156 l 326 167 l 325 179 l 325 190 l 321 224 l 319 247 l 319 279 l 324 310 l 325 357 l 325 382 l 328 410 l 326 419 l 328 432 l 328 444 l 329 471 l 328 497 l 326 513 l 328 522 l 326 553 l 325 594 l 324 619 l 321 646 l 319 676 l 319 764 l 321 788 l 324 815 l 324 838 l 321 868 l 321 889 l 319 917 l 318 939 l 315 949 l 308 961 l 300 969 l 285 975 l 263 974 l 236 974 l 218 976 l 200 975 l 183 971 l 174 965 l 167 956 l 163 946 l 157 924 l 157 847 l 158 813 l 158 772 l 161 753 l 161 689 l 158 660 l 161 624 l 158 588 l 157 557 l 154 526 l 154 500 l 153 461 l 153 375 l 154 344 l 157 329 l 157 203 l 158 167 l 156 146 l 157 118 l 156 88 l 157 58 l 164 33 l 174 14 l 192 4 z "},"Ĺ":{"ha":931,"x_min":0,"x_max":0,"o":"m 213 -3 l 481 -3 l 563 0 l 583 -1 l 663 -1 l 681 -3 l 704 1 l 776 1 l 800 0 l 819 3 l 843 15 l 854 25 l 858 35 l 861 49 l 861 111 l 858 121 l 843 139 l 828 149 l 810 153 l 790 153 l 769 154 l 736 154 l 703 150 l 678 150 l 661 153 l 633 153 l 613 154 l 588 154 l 561 153 l 539 149 l 510 149 l 482 150 l 460 151 l 446 153 l 433 151 l 403 153 l 342 153 l 335 156 l 326 167 l 325 179 l 325 190 l 321 224 l 319 247 l 319 279 l 324 310 l 325 357 l 325 382 l 328 410 l 326 419 l 328 432 l 328 444 l 329 471 l 328 497 l 326 513 l 328 522 l 326 553 l 325 594 l 324 619 l 321 646 l 319 676 l 319 764 l 321 788 l 324 815 l 324 838 l 321 868 l 321 889 l 319 917 l 318 939 l 315 949 l 308 961 l 300 969 l 285 975 l 263 974 l 236 974 l 218 976 l 200 975 l 183 971 l 174 965 l 167 956 l 163 946 l 157 924 l 157 847 l 158 813 l 158 772 l 161 753 l 161 689 l 158 660 l 161 624 l 158 588 l 157 557 l 154 526 l 154 500 l 153 461 l 153 375 l 154 344 l 157 329 l 157 203 l 158 167 l 156 146 l 157 118 l 156 88 l 157 58 l 164 33 l 174 14 l 192 4 z m 219 1092 l 236 1101 l 251 1122 l 269 1143 l 276 1160 l 290 1178 l 310 1203 l 317 1215 l 328 1231 l 343 1250 l 358 1265 l 369 1279 l 381 1297 l 390 1321 l 385 1340 l 376 1358 l 358 1374 l 332 1393 l 311 1401 l 294 1404 l 276 1404 l 263 1397 l 253 1388 l 246 1376 l 238 1368 l 231 1358 l 219 1344 l 211 1329 l 201 1321 l 194 1307 l 178 1286 l 165 1268 l 156 1251 l 140 1231 l 126 1207 l 115 1190 l 113 1174 l 117 1156 l 128 1135 l 151 1118 l 169 1110 l 189 1099 z "},"Ľ":{"ha":931,"x_min":0,"x_max":0,"o":"m 213 -3 l 481 -3 l 563 0 l 583 -1 l 663 -1 l 681 -3 l 704 1 l 776 1 l 800 0 l 819 3 l 843 15 l 854 25 l 858 35 l 861 49 l 861 111 l 858 121 l 843 139 l 828 149 l 810 153 l 790 153 l 769 154 l 736 154 l 703 150 l 678 150 l 661 153 l 633 153 l 613 154 l 588 154 l 561 153 l 539 149 l 510 149 l 482 150 l 460 151 l 446 153 l 433 151 l 403 153 l 342 153 l 335 156 l 326 167 l 325 179 l 325 190 l 321 224 l 319 247 l 319 279 l 324 310 l 325 357 l 325 382 l 328 410 l 326 419 l 328 432 l 328 444 l 329 471 l 328 497 l 326 513 l 328 522 l 326 553 l 325 594 l 324 619 l 321 646 l 319 676 l 319 764 l 321 788 l 324 815 l 324 838 l 321 868 l 321 889 l 319 917 l 318 939 l 315 949 l 308 961 l 300 969 l 285 975 l 263 974 l 236 974 l 218 976 l 200 975 l 183 971 l 174 965 l 167 956 l 163 946 l 157 924 l 157 847 l 158 813 l 158 772 l 161 753 l 161 689 l 158 660 l 161 624 l 158 588 l 157 557 l 154 526 l 154 500 l 153 461 l 153 375 l 154 344 l 157 329 l 157 203 l 158 167 l 156 146 l 157 118 l 156 88 l 157 58 l 164 33 l 174 14 l 192 4 z m 643 675 l 665 675 l 696 682 l 707 697 l 710 724 l 718 749 l 717 767 l 722 789 l 724 806 l 728 821 l 729 835 l 732 854 l 738 878 l 744 899 l 749 915 l 750 938 l 747 963 l 735 978 l 719 990 l 696 996 l 664 1001 l 642 1000 l 625 996 l 610 988 l 600 975 l 594 961 l 594 949 l 590 938 l 589 926 l 585 908 l 582 892 l 578 879 l 578 864 l 572 839 l 569 815 l 567 797 l 564 771 l 560 744 l 558 725 l 564 708 l 575 693 l 594 681 l 622 676 z "},"Ļ":{"ha":931,"x_min":0,"x_max":0,"o":"m 213 -3 l 481 -3 l 563 0 l 583 -1 l 663 -1 l 681 -3 l 704 1 l 776 1 l 800 0 l 819 3 l 843 15 l 854 25 l 858 35 l 861 49 l 861 111 l 858 121 l 843 139 l 828 149 l 810 153 l 790 153 l 769 154 l 736 154 l 703 150 l 678 150 l 661 153 l 633 153 l 613 154 l 588 154 l 561 153 l 539 149 l 510 149 l 482 150 l 460 151 l 446 153 l 433 151 l 403 153 l 342 153 l 335 156 l 326 167 l 325 179 l 325 190 l 321 224 l 319 247 l 319 279 l 324 310 l 325 357 l 325 382 l 328 410 l 326 419 l 328 432 l 328 444 l 329 471 l 328 497 l 326 513 l 328 522 l 326 553 l 325 594 l 324 619 l 321 646 l 319 676 l 319 764 l 321 788 l 324 815 l 324 838 l 321 868 l 321 889 l 319 917 l 318 939 l 315 949 l 308 961 l 300 969 l 285 975 l 263 974 l 236 974 l 218 976 l 200 975 l 183 971 l 174 965 l 167 956 l 163 946 l 157 924 l 157 847 l 158 813 l 158 772 l 161 753 l 161 689 l 158 660 l 161 624 l 158 588 l 157 557 l 154 526 l 154 500 l 153 461 l 153 375 l 154 344 l 157 329 l 157 203 l 158 167 l 156 146 l 157 118 l 156 88 l 157 58 l 164 33 l 174 14 l 192 4 z m 518 -367 l 550 -364 l 563 -349 l 569 -324 l 581 -299 l 581 -281 l 589 -260 l 593 -244 l 600 -229 l 601 -215 l 607 -197 l 622 -157 l 626 -125 l 615 -108 l 601 -94 l 579 -86 l 547 -75 l 525 -75 l 508 -76 l 492 -83 l 481 -96 l 474 -107 l 468 -122 l 464 -140 l 457 -153 l 456 -168 l 447 -193 l 440 -215 l 438 -232 l 429 -258 l 424 -285 l 419 -304 l 422 -321 l 432 -336 l 449 -351 l 476 -360 l 497 -362 z "},"Ł":{"ha":931,"x_min":0,"x_max":0,"o":"m 213 -3 l 481 -3 l 563 0 l 583 -1 l 663 -1 l 681 -3 l 704 1 l 776 1 l 800 0 l 819 3 l 843 15 l 854 25 l 858 35 l 861 49 l 861 111 l 858 121 l 843 139 l 828 149 l 810 153 l 790 153 l 769 154 l 736 154 l 703 150 l 678 150 l 661 153 l 633 153 l 613 154 l 588 154 l 561 153 l 539 149 l 510 149 l 482 150 l 460 151 l 446 153 l 433 151 l 403 153 l 342 153 l 335 156 l 326 167 l 325 179 l 325 190 l 321 224 l 319 247 l 319 279 l 324 310 l 325 357 l 325 382 l 328 410 l 326 419 l 328 429 l 343 439 l 415 474 l 453 490 l 486 507 l 507 514 l 517 519 l 538 529 l 561 543 l 571 557 l 576 571 l 578 581 l 576 599 l 558 632 l 538 660 l 526 672 l 519 679 l 506 683 l 485 681 l 461 672 l 432 660 l 408 649 l 383 638 l 346 619 l 324 621 l 321 646 l 319 676 l 319 764 l 321 788 l 324 815 l 324 838 l 321 868 l 321 889 l 319 917 l 318 939 l 315 949 l 308 961 l 300 969 l 285 975 l 263 974 l 236 974 l 218 976 l 200 975 l 183 971 l 174 965 l 167 956 l 163 946 l 157 924 l 157 847 l 158 813 l 158 772 l 161 753 l 161 689 l 158 660 l 161 624 l 158 588 l 157 557 l 156 536 l 151 528 l 110 508 l 103 504 l 83 496 l 63 485 l 49 476 l 29 457 l 25 426 l 29 404 l 39 388 l 68 350 l 88 336 l 97 333 l 108 332 l 135 339 l 154 343 l 157 329 l 157 203 l 158 167 l 156 146 l 157 118 l 156 88 l 157 58 l 164 33 l 174 14 l 192 4 z "},"M":{"ha":1325,"x_min":0,"x_max":0,"o":"m 219 -7 l 250 -7 l 296 6 l 310 24 l 314 39 l 318 78 l 318 103 l 315 133 l 315 153 l 313 178 l 314 201 l 313 235 l 313 294 l 314 317 l 315 369 l 315 397 l 313 438 l 314 458 l 314 476 l 313 488 l 313 511 l 314 543 l 314 564 l 318 568 l 328 557 l 344 526 l 361 490 l 378 463 l 388 440 l 401 413 l 418 374 l 433 350 l 440 336 l 454 307 l 468 276 l 475 267 l 504 218 l 511 204 l 517 192 l 525 172 l 539 147 l 554 114 l 565 89 l 576 68 l 593 33 l 608 13 l 624 6 l 643 4 l 663 6 l 679 7 l 697 10 l 722 28 l 735 46 l 738 54 l 750 81 l 765 110 l 771 121 l 778 132 l 783 144 l 790 154 l 797 171 l 815 204 l 825 231 l 835 254 l 856 293 l 871 321 l 881 342 l 893 367 l 907 390 l 922 413 l 936 443 l 949 471 l 958 490 l 967 504 l 974 518 l 983 535 l 988 547 l 994 557 l 997 560 l 1001 557 l 1003 553 l 1003 517 l 1004 501 l 1004 475 l 1003 444 l 1003 422 l 1000 392 l 1004 346 l 1004 231 l 1006 172 l 1006 126 l 1004 97 l 1008 54 l 1026 15 l 1043 7 l 1057 3 l 1071 0 l 1089 0 l 1113 -1 l 1129 3 l 1140 7 l 1154 15 l 1163 25 l 1169 50 l 1172 81 l 1171 122 l 1172 158 l 1171 186 l 1169 217 l 1171 235 l 1171 257 l 1172 292 l 1172 397 l 1169 440 l 1171 474 l 1167 515 l 1168 544 l 1168 564 l 1167 599 l 1167 724 l 1165 756 l 1167 785 l 1167 925 l 1164 947 l 1161 957 l 1153 969 l 1131 978 l 1106 981 l 1043 975 l 1026 969 l 1010 958 l 989 925 l 975 897 l 969 881 l 958 861 l 954 846 l 942 819 l 921 778 l 904 740 l 886 707 l 871 674 l 857 653 l 844 628 l 832 600 l 819 574 l 806 544 l 793 521 l 785 508 l 775 488 l 761 467 l 757 454 l 753 443 l 744 433 l 733 417 l 725 399 l 710 368 l 693 333 l 683 315 l 674 300 l 664 286 l 657 282 l 649 286 l 642 304 l 629 328 l 615 349 l 600 381 l 585 410 l 575 426 l 568 440 l 560 458 l 546 486 l 526 521 l 513 554 l 504 571 l 497 583 l 490 597 l 475 624 l 460 658 l 443 686 l 417 739 l 400 775 l 382 808 l 357 851 l 342 885 l 325 915 l 310 939 l 300 960 l 290 969 l 279 976 l 254 981 l 233 979 l 224 979 l 196 976 l 169 972 l 158 964 l 149 949 l 146 938 l 146 914 l 149 886 l 150 854 l 150 783 l 149 765 l 149 682 l 150 626 l 150 572 l 149 533 l 147 515 l 147 463 l 150 424 l 150 401 l 149 354 l 151 317 l 150 297 l 150 260 l 153 224 l 151 197 l 153 167 l 154 139 l 151 114 l 151 86 l 154 71 l 156 40 l 168 14 l 196 0 z "},"N":{"ha":1131,"x_min":0,"x_max":0,"o":"m 233 -3 l 243 0 l 261 0 l 283 4 l 296 8 l 310 18 l 319 36 l 322 58 l 322 83 l 324 101 l 322 124 l 324 153 l 324 174 l 326 213 l 326 271 l 328 314 l 324 340 l 322 375 l 321 432 l 321 489 l 318 532 l 319 561 l 319 589 l 318 621 l 319 647 l 332 654 l 346 649 l 354 640 l 365 625 l 383 606 l 400 583 l 426 544 l 458 501 l 475 483 l 485 465 l 497 453 l 515 431 l 544 389 l 557 376 l 571 356 l 592 332 l 617 300 l 650 253 l 681 207 l 694 188 l 721 153 l 776 74 l 800 42 l 819 17 l 838 4 l 867 -1 l 911 0 l 942 -3 l 956 -1 l 967 4 l 982 18 l 985 51 l 981 75 l 981 232 l 979 253 l 981 292 l 981 456 l 985 471 l 983 483 l 985 499 l 982 528 l 985 546 l 985 558 l 981 579 l 981 651 l 979 692 l 979 746 l 978 760 l 979 781 l 978 800 l 979 821 l 976 847 l 978 863 l 981 894 l 978 931 l 968 953 l 956 967 l 939 975 l 899 975 l 883 971 l 865 969 l 853 967 l 838 958 l 826 950 l 819 925 l 818 899 l 818 860 l 819 839 l 819 817 l 821 789 l 819 767 l 822 753 l 822 660 l 819 640 l 819 615 l 821 589 l 821 564 l 818 525 l 818 386 l 817 357 l 814 326 l 810 319 l 794 319 l 781 331 l 771 343 l 757 360 l 732 399 l 707 428 l 689 454 l 678 471 l 664 486 l 631 531 l 610 564 l 576 608 l 549 642 l 533 658 l 515 683 l 492 710 l 476 729 l 463 754 l 454 765 l 435 790 l 417 818 l 399 840 l 379 871 l 356 904 l 342 925 l 319 953 l 301 965 l 272 971 l 242 974 l 215 972 l 194 971 l 169 957 l 163 951 l 160 933 l 157 911 l 157 897 l 156 881 l 154 854 l 154 817 l 156 792 l 157 764 l 158 746 l 157 732 l 160 708 l 158 678 l 160 643 l 157 618 l 157 608 l 160 583 l 157 561 l 157 549 l 160 528 l 160 486 l 157 447 l 157 432 l 156 407 l 157 383 l 156 360 l 156 318 l 160 292 l 163 265 l 164 229 l 161 210 l 161 183 l 163 158 l 163 140 l 164 114 l 161 88 l 160 63 l 164 40 l 175 19 l 204 0 z "},"Ń":{"ha":1131,"x_min":0,"x_max":0,"o":"m 233 -3 l 243 0 l 261 0 l 283 4 l 296 8 l 310 18 l 319 36 l 322 58 l 322 83 l 324 101 l 322 124 l 324 153 l 324 174 l 326 213 l 326 271 l 328 314 l 324 340 l 322 375 l 321 432 l 321 489 l 318 532 l 319 561 l 319 589 l 318 621 l 319 647 l 332 654 l 346 649 l 354 640 l 365 625 l 383 606 l 400 583 l 426 544 l 458 501 l 475 483 l 485 465 l 497 453 l 515 431 l 544 389 l 557 376 l 571 356 l 592 332 l 617 300 l 650 253 l 681 207 l 694 188 l 721 153 l 776 74 l 800 42 l 819 17 l 838 4 l 867 -1 l 911 0 l 942 -3 l 956 -1 l 967 4 l 982 18 l 985 51 l 981 75 l 981 232 l 979 253 l 981 292 l 981 456 l 985 471 l 983 483 l 985 499 l 982 528 l 985 546 l 985 558 l 981 579 l 981 651 l 979 692 l 979 746 l 978 760 l 979 781 l 978 800 l 979 821 l 976 847 l 978 863 l 981 894 l 978 931 l 968 953 l 956 967 l 939 975 l 899 975 l 883 971 l 865 969 l 853 967 l 838 958 l 826 950 l 819 925 l 818 899 l 818 860 l 819 839 l 819 817 l 821 789 l 819 767 l 822 753 l 822 660 l 819 640 l 819 615 l 821 589 l 821 564 l 818 525 l 818 386 l 817 357 l 814 326 l 810 319 l 794 319 l 781 331 l 771 343 l 757 360 l 732 399 l 707 428 l 689 454 l 678 471 l 664 486 l 631 531 l 610 564 l 576 608 l 549 642 l 533 658 l 515 683 l 492 710 l 476 729 l 463 754 l 454 765 l 435 790 l 417 818 l 399 840 l 379 871 l 356 904 l 342 925 l 319 953 l 301 965 l 272 971 l 242 974 l 215 972 l 194 971 l 169 957 l 163 951 l 160 933 l 157 911 l 157 897 l 156 881 l 154 854 l 154 817 l 156 792 l 157 764 l 158 746 l 157 732 l 160 708 l 158 678 l 160 643 l 157 618 l 157 608 l 160 583 l 157 561 l 157 549 l 160 528 l 160 486 l 157 447 l 157 432 l 156 407 l 157 383 l 156 360 l 156 318 l 160 292 l 163 265 l 164 229 l 161 210 l 161 183 l 163 158 l 163 140 l 164 114 l 161 88 l 160 63 l 164 40 l 175 19 l 204 0 z m 533 1090 l 550 1100 l 565 1121 l 583 1142 l 590 1158 l 604 1176 l 624 1201 l 631 1214 l 642 1229 l 657 1249 l 672 1264 l 683 1278 l 694 1296 l 704 1319 l 699 1339 l 690 1357 l 672 1372 l 646 1392 l 625 1400 l 608 1403 l 590 1403 l 576 1396 l 567 1386 l 560 1375 l 551 1367 l 544 1357 l 533 1343 l 525 1328 l 515 1319 l 508 1306 l 492 1285 l 479 1267 l 469 1250 l 454 1229 l 440 1206 l 429 1189 l 426 1172 l 431 1154 l 442 1133 l 465 1117 l 483 1108 l 503 1097 z "},"Ň":{"ha":1131,"x_min":0,"x_max":0,"o":"m 233 -3 l 243 0 l 261 0 l 283 4 l 296 8 l 310 18 l 319 36 l 322 58 l 322 83 l 324 101 l 322 124 l 324 153 l 324 174 l 326 213 l 326 271 l 328 314 l 324 340 l 322 375 l 321 432 l 321 489 l 318 532 l 319 561 l 319 589 l 318 621 l 319 647 l 332 654 l 346 649 l 354 640 l 365 625 l 383 606 l 400 583 l 426 544 l 458 501 l 475 483 l 485 465 l 497 453 l 515 431 l 544 389 l 557 376 l 571 356 l 592 332 l 617 300 l 650 253 l 681 207 l 694 188 l 721 153 l 776 74 l 800 42 l 819 17 l 838 4 l 867 -1 l 911 0 l 942 -3 l 956 -1 l 967 4 l 982 18 l 985 51 l 981 75 l 981 232 l 979 253 l 981 292 l 981 456 l 985 471 l 983 483 l 985 499 l 982 528 l 985 546 l 985 558 l 981 579 l 981 651 l 979 692 l 979 746 l 978 760 l 979 781 l 978 800 l 979 821 l 976 847 l 978 863 l 981 894 l 978 931 l 968 953 l 956 967 l 939 975 l 899 975 l 883 971 l 865 969 l 853 967 l 838 958 l 826 950 l 819 925 l 818 899 l 818 860 l 819 839 l 819 817 l 821 789 l 819 767 l 822 753 l 822 660 l 819 640 l 819 615 l 821 589 l 821 564 l 818 525 l 818 386 l 817 357 l 814 326 l 810 319 l 794 319 l 781 331 l 771 343 l 757 360 l 732 399 l 707 428 l 689 454 l 678 471 l 664 486 l 631 531 l 610 564 l 576 608 l 549 642 l 533 658 l 515 683 l 492 710 l 476 729 l 463 754 l 454 765 l 435 790 l 417 818 l 399 840 l 379 871 l 356 904 l 342 925 l 319 953 l 301 965 l 272 971 l 242 974 l 215 972 l 194 971 l 169 957 l 163 951 l 160 933 l 157 911 l 157 897 l 156 881 l 154 854 l 154 817 l 156 792 l 157 764 l 158 746 l 157 732 l 160 708 l 158 678 l 160 643 l 157 618 l 157 608 l 160 583 l 157 561 l 157 549 l 160 528 l 160 486 l 157 447 l 157 432 l 156 407 l 157 383 l 156 360 l 156 318 l 160 292 l 163 265 l 164 229 l 161 210 l 161 183 l 163 158 l 163 140 l 164 114 l 161 88 l 160 63 l 164 40 l 175 19 l 204 0 z m 538 1099 l 567 1099 l 594 1100 l 613 1107 l 631 1119 l 650 1139 l 669 1161 l 697 1196 l 718 1218 l 735 1238 l 751 1261 l 774 1296 l 779 1318 l 772 1336 l 761 1350 l 753 1358 l 736 1371 l 714 1385 l 696 1389 l 681 1388 l 667 1383 l 649 1365 l 642 1356 l 633 1346 l 625 1335 l 618 1325 l 613 1317 l 593 1296 l 567 1279 l 554 1286 l 504 1349 l 482 1372 l 456 1389 l 450 1390 l 433 1389 l 415 1385 l 385 1364 l 376 1357 l 357 1336 l 354 1311 l 363 1290 l 372 1274 l 382 1258 l 396 1244 l 407 1228 l 417 1217 l 431 1204 l 444 1186 l 454 1175 l 463 1165 l 475 1151 l 494 1128 l 514 1111 l 525 1103 z "},"Ņ":{"ha":1131,"x_min":0,"x_max":0,"o":"m 233 -3 l 243 0 l 261 0 l 283 4 l 296 8 l 310 18 l 319 36 l 322 58 l 322 83 l 324 101 l 322 124 l 324 153 l 324 174 l 326 213 l 326 271 l 328 314 l 324 340 l 322 375 l 321 432 l 321 489 l 318 532 l 319 561 l 319 589 l 318 621 l 319 647 l 332 654 l 346 649 l 354 640 l 365 625 l 383 606 l 400 583 l 426 544 l 458 501 l 475 483 l 485 465 l 497 453 l 515 431 l 544 389 l 557 376 l 571 356 l 592 332 l 617 300 l 650 253 l 681 207 l 694 188 l 721 153 l 776 74 l 800 42 l 819 17 l 838 4 l 867 -1 l 911 0 l 942 -3 l 956 -1 l 967 4 l 982 18 l 985 51 l 981 75 l 981 232 l 979 253 l 981 292 l 981 456 l 985 471 l 983 483 l 985 499 l 982 528 l 985 546 l 985 558 l 981 579 l 981 651 l 979 692 l 979 746 l 978 760 l 979 781 l 978 800 l 979 821 l 976 847 l 978 863 l 981 894 l 978 931 l 968 953 l 956 967 l 939 975 l 899 975 l 883 971 l 865 969 l 853 967 l 838 958 l 826 950 l 819 925 l 818 899 l 818 860 l 819 839 l 819 817 l 821 789 l 819 767 l 822 753 l 822 660 l 819 640 l 819 615 l 821 589 l 821 564 l 818 525 l 818 386 l 817 357 l 814 326 l 810 319 l 794 319 l 781 331 l 771 343 l 757 360 l 732 399 l 707 428 l 689 454 l 678 471 l 664 486 l 631 531 l 610 564 l 576 608 l 549 642 l 533 658 l 515 683 l 492 710 l 476 729 l 463 754 l 454 765 l 435 790 l 417 818 l 399 840 l 379 871 l 356 904 l 342 925 l 319 953 l 301 965 l 272 971 l 242 974 l 215 972 l 194 971 l 169 957 l 163 951 l 160 933 l 157 911 l 157 897 l 156 881 l 154 854 l 154 817 l 156 792 l 157 764 l 158 746 l 157 732 l 160 708 l 158 678 l 160 643 l 157 618 l 157 608 l 160 583 l 157 561 l 157 549 l 160 528 l 160 486 l 157 447 l 157 432 l 156 407 l 157 383 l 156 360 l 156 318 l 160 292 l 163 265 l 164 229 l 161 210 l 161 183 l 163 158 l 163 140 l 164 114 l 161 88 l 160 63 l 164 40 l 175 19 l 204 0 z m 564 -367 l 596 -364 l 608 -349 l 615 -324 l 626 -299 l 626 -281 l 635 -260 l 639 -244 l 646 -229 l 647 -215 l 653 -197 l 668 -157 l 672 -125 l 661 -108 l 647 -94 l 625 -86 l 593 -75 l 571 -75 l 554 -76 l 538 -83 l 526 -96 l 519 -107 l 514 -122 l 510 -140 l 503 -153 l 501 -168 l 493 -193 l 486 -215 l 483 -232 l 475 -258 l 469 -285 l 465 -304 l 468 -321 l 478 -336 l 494 -351 l 522 -360 l 543 -362 z "},"Ŋ":{"ha":1129,"x_min":0,"x_max":0,"o":"m 790 -336 l 818 -331 l 861 -318 l 900 -290 l 925 -274 l 936 -258 l 947 -237 l 961 -210 l 968 -185 l 974 -158 l 979 -131 l 981 -97 l 979 -64 l 979 7 l 978 40 l 979 76 l 979 110 l 978 136 l 978 190 l 979 204 l 981 221 l 983 240 l 979 286 l 982 315 l 981 347 l 981 424 l 979 460 l 976 483 l 976 511 l 979 556 l 979 590 l 981 618 l 979 636 l 978 656 l 979 689 l 979 715 l 975 756 l 975 813 l 978 824 l 978 843 l 975 872 l 978 913 l 963 951 l 943 964 l 926 969 l 907 971 l 885 968 l 858 965 l 843 961 l 832 954 l 822 936 l 818 896 l 817 871 l 818 847 l 818 818 l 817 789 l 818 757 l 818 732 l 819 706 l 819 654 l 818 617 l 818 513 l 817 454 l 814 408 l 814 376 l 811 340 l 803 322 l 788 326 l 765 346 l 750 369 l 735 390 l 714 415 l 689 451 l 660 490 l 643 511 l 625 532 l 600 568 l 583 586 l 579 593 l 560 618 l 539 651 l 528 667 l 515 686 l 496 714 l 485 729 l 475 740 l 461 763 l 446 781 l 425 814 l 399 843 l 389 861 l 375 881 l 357 903 l 336 931 l 321 950 l 303 965 l 269 974 l 229 969 l 196 971 l 181 967 l 172 960 l 164 947 l 158 929 l 157 897 l 157 867 l 154 842 l 154 788 l 158 743 l 158 710 l 157 685 l 158 651 l 156 610 l 154 590 l 153 569 l 153 540 l 156 514 l 157 467 l 157 439 l 158 390 l 158 296 l 160 271 l 158 250 l 161 232 l 158 215 l 158 136 l 156 118 l 156 79 l 157 61 l 160 46 l 165 31 l 172 17 l 194 3 l 231 -6 l 269 -3 l 290 3 l 306 13 l 315 36 l 319 60 l 319 99 l 321 135 l 321 161 l 324 188 l 324 199 l 321 219 l 324 267 l 325 304 l 325 332 l 322 364 l 324 393 l 324 436 l 322 460 l 322 490 l 324 525 l 321 546 l 324 572 l 324 608 l 325 638 l 331 647 l 346 646 l 354 638 l 364 625 l 381 604 l 394 586 l 408 567 l 424 549 l 436 528 l 461 494 l 478 469 l 489 454 l 496 439 l 513 422 l 532 392 l 546 375 l 557 358 l 574 339 l 585 322 l 603 304 l 614 290 l 624 279 l 640 253 l 660 226 l 679 203 l 697 175 l 715 149 l 736 124 l 753 97 l 765 78 l 775 63 l 788 49 l 800 31 l 813 6 l 818 -35 l 818 -64 l 814 -90 l 810 -126 l 803 -151 l 790 -165 l 781 -171 l 769 -174 l 750 -171 l 733 -164 l 717 -150 l 689 -136 l 668 -137 l 639 -146 l 611 -172 l 600 -185 l 593 -204 l 590 -226 l 599 -249 l 615 -269 l 628 -285 l 653 -304 l 685 -319 l 707 -326 l 747 -335 z "},"Ñ":{"ha":1131,"x_min":0,"x_max":0,"o":"m 233 -3 l 243 0 l 261 0 l 283 4 l 296 8 l 310 18 l 319 36 l 322 58 l 322 83 l 324 101 l 322 124 l 324 153 l 324 174 l 326 213 l 326 271 l 328 314 l 324 340 l 322 375 l 321 432 l 321 489 l 318 532 l 319 561 l 319 589 l 318 621 l 319 647 l 332 654 l 346 649 l 354 640 l 365 625 l 383 606 l 400 583 l 426 544 l 458 501 l 475 483 l 485 465 l 497 453 l 515 431 l 544 389 l 557 376 l 571 356 l 592 332 l 617 300 l 650 253 l 681 207 l 694 188 l 721 153 l 776 74 l 800 42 l 819 17 l 838 4 l 867 -1 l 911 0 l 942 -3 l 956 -1 l 967 4 l 982 18 l 985 51 l 981 75 l 981 232 l 979 253 l 981 292 l 981 456 l 985 471 l 983 483 l 985 499 l 982 528 l 985 546 l 985 558 l 981 579 l 981 651 l 979 692 l 979 746 l 978 760 l 979 781 l 978 800 l 979 821 l 976 847 l 978 863 l 981 894 l 978 931 l 968 953 l 956 967 l 939 975 l 899 975 l 883 971 l 865 969 l 853 967 l 838 958 l 826 950 l 819 925 l 818 899 l 818 860 l 819 839 l 819 817 l 821 789 l 819 767 l 822 753 l 822 660 l 819 640 l 819 615 l 821 589 l 821 564 l 818 525 l 818 386 l 817 357 l 814 326 l 810 319 l 794 319 l 781 331 l 771 343 l 757 360 l 732 399 l 707 428 l 689 454 l 678 471 l 664 486 l 631 531 l 610 564 l 576 608 l 549 642 l 533 658 l 515 683 l 492 710 l 476 729 l 463 754 l 454 765 l 435 790 l 417 818 l 399 840 l 379 871 l 356 904 l 342 925 l 319 953 l 301 965 l 272 971 l 242 974 l 215 972 l 194 971 l 169 957 l 163 951 l 160 933 l 157 911 l 157 897 l 156 881 l 154 854 l 154 817 l 156 792 l 157 764 l 158 746 l 157 732 l 160 708 l 158 678 l 160 643 l 157 618 l 157 608 l 160 583 l 157 561 l 157 549 l 160 528 l 160 486 l 157 447 l 157 432 l 156 407 l 157 383 l 156 360 l 156 318 l 160 292 l 163 265 l 164 229 l 161 210 l 161 183 l 163 158 l 163 140 l 164 114 l 161 88 l 160 63 l 164 40 l 175 19 l 204 0 z m 638 1110 l 665 1111 l 694 1121 l 721 1133 l 751 1158 l 768 1182 l 774 1194 l 779 1215 l 781 1242 l 778 1269 l 767 1290 l 753 1303 l 736 1311 l 719 1314 l 688 1311 l 657 1296 l 646 1281 l 640 1272 l 633 1269 l 622 1282 l 613 1296 l 599 1311 l 583 1325 l 560 1338 l 535 1346 l 511 1350 l 488 1351 l 467 1351 l 447 1347 l 429 1339 l 403 1324 l 379 1299 l 365 1271 l 356 1249 l 351 1231 l 350 1219 l 349 1200 l 357 1175 l 374 1158 l 400 1150 l 429 1146 l 446 1146 l 461 1151 l 479 1164 l 488 1174 l 493 1182 l 501 1182 l 511 1175 l 524 1161 l 544 1146 l 574 1128 l 597 1117 l 622 1111 z "},"O":{"ha":1189,"x_min":0,"x_max":0,"o":"m 636 -22 l 676 -22 l 706 -18 l 740 -8 l 769 1 l 785 7 l 808 17 l 839 35 l 867 50 l 883 61 l 893 69 l 907 78 l 918 88 l 931 97 l 940 106 l 953 118 l 971 132 l 986 147 l 994 157 l 1000 167 l 1008 179 l 1018 192 l 1029 206 l 1036 219 l 1046 236 l 1058 263 l 1069 293 l 1082 326 l 1088 350 l 1092 367 l 1096 394 l 1097 417 l 1100 439 l 1103 475 l 1106 499 l 1104 521 l 1104 540 l 1101 563 l 1094 597 l 1089 615 l 1086 628 l 1079 650 l 1071 678 l 1057 710 l 1044 735 l 1035 749 l 1026 765 l 1017 779 l 994 806 l 960 847 l 931 875 l 901 899 l 863 924 l 833 939 l 811 951 l 792 961 l 772 968 l 751 975 l 739 981 l 721 985 l 693 992 l 668 996 l 653 996 l 619 999 l 571 997 l 538 999 l 515 994 l 481 989 l 443 976 l 425 968 l 396 960 l 357 942 l 324 925 l 286 904 l 271 889 l 260 883 l 246 869 l 232 854 l 222 842 l 208 829 l 185 797 l 158 756 l 144 725 l 132 706 l 118 669 l 107 638 l 103 615 l 92 581 l 89 556 l 85 529 l 85 489 l 83 465 l 85 446 l 89 422 l 90 406 l 96 378 l 103 344 l 110 326 l 118 296 l 136 264 l 153 233 l 172 196 l 222 136 l 238 121 l 261 100 l 281 82 l 294 74 l 307 64 l 325 54 l 340 44 l 354 38 l 382 22 l 415 10 l 440 0 l 458 -4 l 472 -8 l 497 -14 l 532 -14 l 560 -18 l 581 -19 l 604 -19 z m 611 138 l 578 139 l 539 144 l 500 151 l 476 158 l 447 172 l 422 186 l 417 189 l 407 194 l 379 213 l 357 232 l 347 243 l 321 276 l 288 326 l 271 357 l 267 378 l 261 403 l 257 418 l 256 425 l 256 446 l 253 468 l 251 488 l 250 504 l 253 539 l 260 569 l 263 589 l 269 611 l 278 633 l 288 651 l 293 667 l 300 676 l 313 700 l 329 724 l 338 731 l 349 744 l 363 760 l 440 804 l 486 824 l 518 833 l 543 836 l 564 840 l 640 840 l 664 835 l 682 829 l 693 826 l 722 818 l 749 807 l 793 781 l 840 743 l 856 728 l 865 715 l 882 694 l 893 672 l 901 657 l 908 633 l 922 604 l 932 572 l 942 522 l 944 486 l 942 467 l 939 429 l 935 399 l 929 372 l 921 342 l 893 300 l 872 274 l 861 257 l 854 249 l 833 226 l 797 200 l 769 182 l 743 168 l 726 163 l 708 154 l 690 151 l 685 149 l 678 144 l 669 143 l 651 142 z "},"Ó":{"ha":1189,"x_min":0,"x_max":0,"o":"m 636 -22 l 676 -22 l 706 -18 l 740 -8 l 769 1 l 785 7 l 808 17 l 839 35 l 867 50 l 883 61 l 893 69 l 907 78 l 918 88 l 931 97 l 940 106 l 953 118 l 971 132 l 986 147 l 994 157 l 1000 167 l 1008 179 l 1018 192 l 1029 206 l 1036 219 l 1046 236 l 1058 263 l 1069 293 l 1082 326 l 1088 350 l 1092 367 l 1096 394 l 1097 417 l 1100 439 l 1103 475 l 1106 499 l 1104 521 l 1104 540 l 1101 563 l 1094 597 l 1089 615 l 1086 628 l 1079 650 l 1071 678 l 1057 710 l 1044 735 l 1035 749 l 1026 765 l 1017 779 l 994 806 l 960 847 l 931 875 l 901 899 l 863 924 l 833 939 l 811 951 l 792 961 l 772 968 l 751 975 l 739 981 l 721 985 l 693 992 l 668 996 l 653 996 l 619 999 l 571 997 l 538 999 l 515 994 l 481 989 l 443 976 l 425 968 l 396 960 l 357 942 l 324 925 l 286 904 l 271 889 l 260 883 l 246 869 l 232 854 l 222 842 l 208 829 l 185 797 l 158 756 l 144 725 l 132 706 l 118 669 l 107 638 l 103 615 l 92 581 l 89 556 l 85 529 l 85 489 l 83 465 l 85 446 l 89 422 l 90 406 l 96 378 l 103 344 l 110 326 l 118 296 l 136 264 l 153 233 l 172 196 l 222 136 l 238 121 l 261 100 l 281 82 l 294 74 l 307 64 l 325 54 l 340 44 l 354 38 l 382 22 l 415 10 l 440 0 l 458 -4 l 472 -8 l 497 -14 l 532 -14 l 560 -18 l 581 -19 l 604 -19 z m 611 138 l 578 139 l 539 144 l 500 151 l 476 158 l 447 172 l 422 186 l 417 189 l 407 194 l 379 213 l 357 232 l 347 243 l 321 276 l 288 326 l 271 357 l 267 378 l 261 403 l 257 418 l 256 425 l 256 446 l 253 468 l 251 488 l 250 504 l 253 539 l 260 569 l 263 589 l 269 611 l 278 633 l 288 651 l 293 667 l 300 676 l 313 700 l 329 724 l 338 731 l 349 744 l 363 760 l 440 804 l 486 824 l 518 833 l 543 836 l 564 840 l 640 840 l 664 835 l 682 829 l 693 826 l 722 818 l 749 807 l 793 781 l 840 743 l 856 728 l 865 715 l 882 694 l 893 672 l 901 657 l 908 633 l 922 604 l 932 572 l 942 522 l 944 486 l 942 467 l 939 429 l 935 399 l 929 372 l 921 342 l 893 300 l 872 274 l 861 257 l 854 249 l 833 226 l 797 200 l 769 182 l 743 168 l 726 163 l 708 154 l 690 151 l 685 149 l 678 144 l 669 143 l 651 142 z m 563 1090 l 579 1100 l 594 1121 l 613 1142 l 619 1158 l 633 1176 l 653 1201 l 660 1214 l 671 1229 l 686 1249 l 701 1264 l 713 1278 l 724 1296 l 733 1319 l 728 1339 l 719 1357 l 701 1372 l 675 1392 l 654 1400 l 638 1403 l 619 1403 l 606 1396 l 596 1386 l 589 1375 l 581 1367 l 574 1357 l 563 1343 l 554 1328 l 544 1319 l 538 1306 l 521 1285 l 508 1267 l 499 1250 l 483 1229 l 469 1206 l 458 1189 l 456 1172 l 460 1154 l 471 1133 l 494 1117 l 513 1108 l 532 1097 z "},"Ô":{"ha":1189,"x_min":0,"x_max":0,"o":"m 636 -22 l 676 -22 l 706 -18 l 740 -8 l 769 1 l 785 7 l 808 17 l 839 35 l 867 50 l 883 61 l 893 69 l 907 78 l 918 88 l 931 97 l 940 106 l 953 118 l 971 132 l 986 147 l 994 157 l 1000 167 l 1008 179 l 1018 192 l 1029 206 l 1036 219 l 1046 236 l 1058 263 l 1069 293 l 1082 326 l 1088 350 l 1092 367 l 1096 394 l 1097 417 l 1100 439 l 1103 475 l 1106 499 l 1104 521 l 1104 540 l 1101 563 l 1094 597 l 1089 615 l 1086 628 l 1079 650 l 1071 678 l 1057 710 l 1044 735 l 1035 749 l 1026 765 l 1017 779 l 994 806 l 960 847 l 931 875 l 901 899 l 863 924 l 833 939 l 811 951 l 792 961 l 772 968 l 751 975 l 739 981 l 721 985 l 693 992 l 668 996 l 653 996 l 619 999 l 571 997 l 538 999 l 515 994 l 481 989 l 443 976 l 425 968 l 396 960 l 357 942 l 324 925 l 286 904 l 271 889 l 260 883 l 246 869 l 232 854 l 222 842 l 208 829 l 185 797 l 158 756 l 144 725 l 132 706 l 118 669 l 107 638 l 103 615 l 92 581 l 89 556 l 85 529 l 85 489 l 83 465 l 85 446 l 89 422 l 90 406 l 96 378 l 103 344 l 110 326 l 118 296 l 136 264 l 153 233 l 172 196 l 222 136 l 238 121 l 261 100 l 281 82 l 294 74 l 307 64 l 325 54 l 340 44 l 354 38 l 382 22 l 415 10 l 440 0 l 458 -4 l 472 -8 l 497 -14 l 532 -14 l 560 -18 l 581 -19 l 604 -19 z m 611 138 l 578 139 l 539 144 l 500 151 l 476 158 l 447 172 l 422 186 l 417 189 l 407 194 l 379 213 l 357 232 l 347 243 l 321 276 l 288 326 l 271 357 l 267 378 l 261 403 l 257 418 l 256 425 l 256 446 l 253 468 l 251 488 l 250 504 l 253 539 l 260 569 l 263 589 l 269 611 l 278 633 l 288 651 l 293 667 l 300 676 l 313 700 l 329 724 l 338 731 l 349 744 l 363 760 l 440 804 l 486 824 l 518 833 l 543 836 l 564 840 l 640 840 l 664 835 l 682 829 l 693 826 l 722 818 l 749 807 l 793 781 l 840 743 l 856 728 l 865 715 l 882 694 l 893 672 l 901 657 l 908 633 l 922 604 l 932 572 l 942 522 l 944 486 l 942 467 l 939 429 l 935 399 l 929 372 l 921 342 l 893 300 l 872 274 l 861 257 l 854 249 l 833 226 l 797 200 l 769 182 l 743 168 l 726 163 l 708 154 l 690 151 l 685 149 l 678 144 l 669 143 l 651 142 z m 479 1096 l 485 1097 l 511 1114 l 533 1136 l 571 1186 l 583 1200 l 596 1207 l 622 1190 l 642 1169 l 647 1161 l 654 1151 l 663 1140 l 671 1131 l 678 1122 l 688 1111 l 696 1103 l 710 1099 l 725 1097 l 743 1101 l 765 1117 l 782 1128 l 790 1136 l 801 1150 l 808 1168 l 803 1190 l 781 1225 l 764 1249 l 747 1268 l 726 1290 l 715 1306 l 699 1325 l 679 1347 l 660 1367 l 642 1379 l 624 1386 l 596 1388 l 567 1388 l 554 1383 l 543 1375 l 524 1358 l 504 1335 l 492 1322 l 483 1311 l 474 1300 l 460 1282 l 446 1269 l 436 1258 l 425 1243 l 411 1228 l 401 1213 l 392 1196 l 382 1175 l 386 1150 l 406 1129 l 414 1122 l 444 1101 l 463 1099 z "},"Ö":{"ha":1189,"x_min":0,"x_max":0,"o":"m 636 -22 l 676 -22 l 706 -18 l 740 -8 l 769 1 l 785 7 l 808 17 l 839 35 l 867 50 l 883 61 l 893 69 l 907 78 l 918 88 l 931 97 l 940 106 l 953 118 l 971 132 l 986 147 l 994 157 l 1000 167 l 1008 179 l 1018 192 l 1029 206 l 1036 219 l 1046 236 l 1058 263 l 1069 293 l 1082 326 l 1088 350 l 1092 367 l 1096 394 l 1097 417 l 1100 439 l 1103 475 l 1106 499 l 1104 521 l 1104 540 l 1101 563 l 1094 597 l 1089 615 l 1086 628 l 1079 650 l 1071 678 l 1057 710 l 1044 735 l 1035 749 l 1026 765 l 1017 779 l 994 806 l 960 847 l 931 875 l 901 899 l 863 924 l 833 939 l 811 951 l 792 961 l 772 968 l 751 975 l 739 981 l 721 985 l 693 992 l 668 996 l 653 996 l 619 999 l 571 997 l 538 999 l 515 994 l 481 989 l 443 976 l 425 968 l 396 960 l 357 942 l 324 925 l 286 904 l 271 889 l 260 883 l 246 869 l 232 854 l 222 842 l 208 829 l 185 797 l 158 756 l 144 725 l 132 706 l 118 669 l 107 638 l 103 615 l 92 581 l 89 556 l 85 529 l 85 489 l 83 465 l 85 446 l 89 422 l 90 406 l 96 378 l 103 344 l 110 326 l 118 296 l 136 264 l 153 233 l 172 196 l 222 136 l 238 121 l 261 100 l 281 82 l 294 74 l 307 64 l 325 54 l 340 44 l 354 38 l 382 22 l 415 10 l 440 0 l 458 -4 l 472 -8 l 497 -14 l 532 -14 l 560 -18 l 581 -19 l 604 -19 z m 611 138 l 578 139 l 539 144 l 500 151 l 476 158 l 447 172 l 422 186 l 417 189 l 407 194 l 379 213 l 357 232 l 347 243 l 321 276 l 288 326 l 271 357 l 267 378 l 261 403 l 257 418 l 256 425 l 256 446 l 253 468 l 251 488 l 250 504 l 253 539 l 260 569 l 263 589 l 269 611 l 278 633 l 288 651 l 293 667 l 300 676 l 313 700 l 329 724 l 338 731 l 349 744 l 363 760 l 440 804 l 486 824 l 518 833 l 543 836 l 564 840 l 640 840 l 664 835 l 682 829 l 693 826 l 722 818 l 749 807 l 793 781 l 840 743 l 856 728 l 865 715 l 882 694 l 893 672 l 901 657 l 908 633 l 922 604 l 932 572 l 942 522 l 944 486 l 942 467 l 939 429 l 935 399 l 929 372 l 921 342 l 893 300 l 872 274 l 861 257 l 854 249 l 833 226 l 797 200 l 769 182 l 743 168 l 726 163 l 708 154 l 690 151 l 685 149 l 678 144 l 669 143 l 651 142 z m 429 1115 l 472 1121 l 508 1138 l 529 1158 l 539 1179 l 543 1201 l 543 1217 l 540 1232 l 526 1267 l 503 1296 l 471 1310 l 438 1314 l 411 1306 l 388 1296 l 372 1282 l 354 1264 l 344 1231 l 346 1203 l 350 1181 l 361 1157 l 374 1143 l 393 1125 z m 733 1115 l 776 1121 l 811 1138 l 832 1158 l 843 1179 l 847 1201 l 847 1217 l 844 1232 l 829 1267 l 806 1296 l 775 1310 l 740 1314 l 715 1306 l 690 1296 l 675 1282 l 658 1264 l 646 1231 l 649 1203 l 653 1181 l 664 1157 l 676 1143 l 696 1125 z "},"Ò":{"ha":1189,"x_min":0,"x_max":0,"o":"m 636 -22 l 676 -22 l 706 -18 l 740 -8 l 769 1 l 785 7 l 808 17 l 839 35 l 867 50 l 883 61 l 893 69 l 907 78 l 918 88 l 931 97 l 940 106 l 953 118 l 971 132 l 986 147 l 994 157 l 1000 167 l 1008 179 l 1018 192 l 1029 206 l 1036 219 l 1046 236 l 1058 263 l 1069 293 l 1082 326 l 1088 350 l 1092 367 l 1096 394 l 1097 417 l 1100 439 l 1103 475 l 1106 499 l 1104 521 l 1104 540 l 1101 563 l 1094 597 l 1089 615 l 1086 628 l 1079 650 l 1071 678 l 1057 710 l 1044 735 l 1035 749 l 1026 765 l 1017 779 l 994 806 l 960 847 l 931 875 l 901 899 l 863 924 l 833 939 l 811 951 l 792 961 l 772 968 l 751 975 l 739 981 l 721 985 l 693 992 l 668 996 l 653 996 l 619 999 l 571 997 l 538 999 l 515 994 l 481 989 l 443 976 l 425 968 l 396 960 l 357 942 l 324 925 l 286 904 l 271 889 l 260 883 l 246 869 l 232 854 l 222 842 l 208 829 l 185 797 l 158 756 l 144 725 l 132 706 l 118 669 l 107 638 l 103 615 l 92 581 l 89 556 l 85 529 l 85 489 l 83 465 l 85 446 l 89 422 l 90 406 l 96 378 l 103 344 l 110 326 l 118 296 l 136 264 l 153 233 l 172 196 l 222 136 l 238 121 l 261 100 l 281 82 l 294 74 l 307 64 l 325 54 l 340 44 l 354 38 l 382 22 l 415 10 l 440 0 l 458 -4 l 472 -8 l 497 -14 l 532 -14 l 560 -18 l 581 -19 l 604 -19 z m 611 138 l 578 139 l 539 144 l 500 151 l 476 158 l 447 172 l 422 186 l 417 189 l 407 194 l 379 213 l 357 232 l 347 243 l 321 276 l 288 326 l 271 357 l 267 378 l 261 403 l 257 418 l 256 425 l 256 446 l 253 468 l 251 488 l 250 504 l 253 539 l 260 569 l 263 589 l 269 611 l 278 633 l 288 651 l 293 667 l 300 676 l 313 700 l 329 724 l 338 731 l 349 744 l 363 760 l 440 804 l 486 824 l 518 833 l 543 836 l 564 840 l 640 840 l 664 835 l 682 829 l 693 826 l 722 818 l 749 807 l 793 781 l 840 743 l 856 728 l 865 715 l 882 694 l 893 672 l 901 657 l 908 633 l 922 604 l 932 572 l 942 522 l 944 486 l 942 467 l 939 429 l 935 399 l 929 372 l 921 342 l 893 300 l 872 274 l 861 257 l 854 249 l 833 226 l 797 200 l 769 182 l 743 168 l 726 163 l 708 154 l 690 151 l 685 149 l 678 144 l 669 143 l 651 142 z m 626 1090 l 657 1097 l 676 1108 l 694 1117 l 718 1133 l 729 1154 l 733 1172 l 731 1189 l 719 1206 l 706 1229 l 690 1250 l 682 1267 l 668 1285 l 651 1306 l 644 1319 l 635 1328 l 626 1343 l 615 1357 l 608 1367 l 600 1375 l 593 1386 l 583 1396 l 569 1403 l 551 1404 l 535 1400 l 514 1392 l 488 1372 l 471 1357 l 461 1339 l 456 1321 l 465 1297 l 476 1278 l 488 1264 l 503 1249 l 518 1229 l 529 1214 l 536 1201 l 556 1176 l 569 1158 l 576 1142 l 594 1121 l 610 1100 z "},"Ő":{"ha":1189,"x_min":0,"x_max":0,"o":"m 636 -22 l 676 -22 l 706 -18 l 740 -8 l 769 1 l 785 7 l 808 17 l 839 35 l 867 50 l 883 61 l 893 69 l 907 78 l 918 88 l 931 97 l 940 106 l 953 118 l 971 132 l 986 147 l 994 157 l 1000 167 l 1008 179 l 1018 192 l 1029 206 l 1036 219 l 1046 236 l 1058 263 l 1069 293 l 1082 326 l 1088 350 l 1092 367 l 1096 394 l 1097 417 l 1100 439 l 1103 475 l 1106 499 l 1104 521 l 1104 540 l 1101 563 l 1094 597 l 1089 615 l 1086 628 l 1079 650 l 1071 678 l 1057 710 l 1044 735 l 1035 749 l 1026 765 l 1017 779 l 994 806 l 960 847 l 931 875 l 901 899 l 863 924 l 833 939 l 811 951 l 792 961 l 772 968 l 751 975 l 739 981 l 721 985 l 693 992 l 668 996 l 653 996 l 619 999 l 571 997 l 538 999 l 515 994 l 481 989 l 443 976 l 425 968 l 396 960 l 357 942 l 324 925 l 286 904 l 271 889 l 260 883 l 246 869 l 232 854 l 222 842 l 208 829 l 185 797 l 158 756 l 144 725 l 132 706 l 118 669 l 107 638 l 103 615 l 92 581 l 89 556 l 85 529 l 85 489 l 83 465 l 85 446 l 89 422 l 90 406 l 96 378 l 103 344 l 110 326 l 118 296 l 136 264 l 153 233 l 172 196 l 222 136 l 238 121 l 261 100 l 281 82 l 294 74 l 307 64 l 325 54 l 340 44 l 354 38 l 382 22 l 415 10 l 440 0 l 458 -4 l 472 -8 l 497 -14 l 532 -14 l 560 -18 l 581 -19 l 604 -19 z m 611 138 l 578 139 l 539 144 l 500 151 l 476 158 l 447 172 l 422 186 l 417 189 l 407 194 l 379 213 l 357 232 l 347 243 l 321 276 l 288 326 l 271 357 l 267 378 l 261 403 l 257 418 l 256 425 l 256 446 l 253 468 l 251 488 l 250 504 l 253 539 l 260 569 l 263 589 l 269 611 l 278 633 l 288 651 l 293 667 l 300 676 l 313 700 l 329 724 l 338 731 l 349 744 l 363 760 l 440 804 l 486 824 l 518 833 l 543 836 l 564 840 l 640 840 l 664 835 l 682 829 l 693 826 l 722 818 l 749 807 l 793 781 l 840 743 l 856 728 l 865 715 l 882 694 l 893 672 l 901 657 l 908 633 l 922 604 l 932 572 l 942 522 l 944 486 l 942 467 l 939 429 l 935 399 l 929 372 l 921 342 l 893 300 l 872 274 l 861 257 l 854 249 l 833 226 l 797 200 l 769 182 l 743 168 l 726 163 l 708 154 l 690 151 l 685 149 l 678 144 l 669 143 l 651 142 z m 503 1101 l 519 1111 l 536 1131 l 551 1151 l 558 1167 l 574 1186 l 582 1199 l 592 1210 l 600 1224 l 611 1239 l 626 1258 l 653 1288 l 663 1306 l 671 1329 l 667 1349 l 658 1365 l 644 1379 l 625 1393 l 607 1400 l 592 1403 l 574 1403 l 560 1396 l 550 1386 l 542 1375 l 535 1367 l 528 1357 l 515 1343 l 507 1329 l 497 1319 l 492 1306 l 475 1285 l 463 1267 l 453 1251 l 422 1207 l 413 1189 l 410 1172 l 413 1154 l 424 1136 l 440 1122 l 456 1114 l 475 1104 z m 736 1101 l 753 1111 l 769 1131 l 785 1151 l 792 1167 l 807 1186 l 815 1199 l 825 1210 l 833 1224 l 844 1239 l 860 1258 l 886 1288 l 896 1306 l 904 1329 l 900 1349 l 892 1365 l 878 1379 l 858 1393 l 840 1400 l 825 1403 l 807 1403 l 793 1396 l 783 1386 l 775 1375 l 768 1367 l 761 1357 l 749 1343 l 740 1329 l 731 1319 l 725 1306 l 708 1285 l 696 1267 l 686 1251 l 656 1207 l 646 1189 l 643 1172 l 646 1154 l 657 1136 l 674 1122 l 689 1114 l 708 1104 z "},"Ō":{"ha":1189,"x_min":0,"x_max":0,"o":"m 636 -22 l 676 -22 l 706 -18 l 740 -8 l 769 1 l 785 7 l 808 17 l 839 35 l 867 50 l 883 61 l 893 69 l 907 78 l 918 88 l 931 97 l 940 106 l 953 118 l 971 132 l 986 147 l 994 157 l 1000 167 l 1008 179 l 1018 192 l 1029 206 l 1036 219 l 1046 236 l 1058 263 l 1069 293 l 1082 326 l 1088 350 l 1092 367 l 1096 394 l 1097 417 l 1100 439 l 1103 475 l 1106 499 l 1104 521 l 1104 540 l 1101 563 l 1094 597 l 1089 615 l 1086 628 l 1079 650 l 1071 678 l 1057 710 l 1044 735 l 1035 749 l 1026 765 l 1017 779 l 994 806 l 960 847 l 931 875 l 901 899 l 863 924 l 833 939 l 811 951 l 792 961 l 772 968 l 751 975 l 739 981 l 721 985 l 693 992 l 668 996 l 653 996 l 619 999 l 571 997 l 538 999 l 515 994 l 481 989 l 443 976 l 425 968 l 396 960 l 357 942 l 324 925 l 286 904 l 271 889 l 260 883 l 246 869 l 232 854 l 222 842 l 208 829 l 185 797 l 158 756 l 144 725 l 132 706 l 118 669 l 107 638 l 103 615 l 92 581 l 89 556 l 85 529 l 85 489 l 83 465 l 85 446 l 89 422 l 90 406 l 96 378 l 103 344 l 110 326 l 118 296 l 136 264 l 153 233 l 172 196 l 222 136 l 238 121 l 261 100 l 281 82 l 294 74 l 307 64 l 325 54 l 340 44 l 354 38 l 382 22 l 415 10 l 440 0 l 458 -4 l 472 -8 l 497 -14 l 532 -14 l 560 -18 l 581 -19 l 604 -19 z m 611 138 l 578 139 l 539 144 l 500 151 l 476 158 l 447 172 l 422 186 l 417 189 l 407 194 l 379 213 l 357 232 l 347 243 l 321 276 l 288 326 l 271 357 l 267 378 l 261 403 l 257 418 l 256 425 l 256 446 l 253 468 l 251 488 l 250 504 l 253 539 l 260 569 l 263 589 l 269 611 l 278 633 l 288 651 l 293 667 l 300 676 l 313 700 l 329 724 l 338 731 l 349 744 l 363 760 l 440 804 l 486 824 l 518 833 l 543 836 l 564 840 l 640 840 l 664 835 l 682 829 l 693 826 l 722 818 l 749 807 l 793 781 l 840 743 l 856 728 l 865 715 l 882 694 l 893 672 l 901 657 l 908 633 l 922 604 l 932 572 l 942 522 l 944 486 l 942 467 l 939 429 l 935 399 l 929 372 l 921 342 l 893 300 l 872 274 l 861 257 l 854 249 l 833 226 l 797 200 l 769 182 l 743 168 l 726 163 l 708 154 l 690 151 l 685 149 l 678 144 l 669 143 l 651 142 z m 707 1149 l 724 1149 l 744 1154 l 758 1158 l 772 1167 l 781 1176 l 789 1192 l 792 1207 l 792 1224 l 788 1254 l 781 1276 l 767 1290 l 743 1300 l 701 1303 l 682 1303 l 654 1299 l 624 1299 l 608 1301 l 589 1301 l 558 1303 l 538 1303 l 521 1300 l 490 1303 l 450 1301 l 425 1294 l 415 1289 l 403 1267 l 399 1242 l 397 1219 l 406 1196 l 413 1178 l 419 1165 l 439 1157 l 488 1154 l 556 1154 l 596 1153 l 635 1154 l 682 1153 z "},"Ø":{"ha":1200,"x_min":0,"x_max":0,"o":"m 560 -28 l 586 -28 l 613 -26 l 628 -24 l 676 -21 l 685 -21 l 703 -15 l 729 -11 l 746 -6 l 767 3 l 786 8 l 800 15 l 819 22 l 847 38 l 872 53 l 885 60 l 935 93 l 957 111 l 979 132 l 1001 157 l 1028 190 l 1053 233 l 1061 267 l 1064 275 l 1069 285 l 1074 297 l 1079 319 l 1085 344 l 1089 357 l 1089 385 l 1093 411 l 1096 442 l 1099 454 l 1099 517 l 1097 538 l 1094 550 l 1093 574 l 1086 590 l 1085 597 l 1086 611 l 1083 626 l 1082 638 l 1074 661 l 1067 689 l 1063 704 l 1056 721 l 1046 747 l 1039 764 l 1033 785 l 1044 803 l 1061 818 l 1082 836 l 1090 846 l 1099 860 l 1108 875 l 1113 888 l 1117 903 l 1108 922 l 1096 939 l 1081 957 l 1058 972 l 1042 979 l 1028 979 l 994 971 l 992 967 l 986 957 l 975 951 l 921 908 l 911 904 l 897 904 l 886 910 l 875 914 l 863 921 l 849 929 l 833 938 l 822 943 l 815 946 l 803 951 l 786 958 l 776 963 l 772 963 l 768 968 l 757 971 l 746 976 l 736 981 l 718 983 l 706 985 l 694 990 l 675 992 l 664 990 l 656 993 l 638 996 l 622 994 l 599 996 l 571 994 l 558 992 l 544 993 l 532 992 l 510 989 l 472 986 l 447 981 l 431 972 l 415 968 l 407 965 l 399 960 l 388 958 l 360 942 l 332 928 l 325 918 l 308 908 l 294 897 l 282 888 l 268 876 l 251 861 l 238 849 l 219 829 l 207 813 l 190 796 l 175 774 l 164 760 l 156 744 l 143 719 l 132 700 l 121 669 l 115 651 l 110 639 l 106 626 l 100 604 l 96 579 l 93 553 l 93 533 l 92 518 l 93 504 l 90 500 l 85 494 l 85 483 l 83 471 l 88 436 l 89 407 l 94 381 l 100 357 l 110 338 l 115 314 l 121 297 l 131 272 l 140 254 l 151 231 l 160 197 l 151 179 l 144 168 l 132 151 l 100 117 l 92 100 l 88 83 l 94 58 l 108 43 l 125 29 l 147 8 l 176 -7 l 210 1 l 243 32 l 275 58 l 299 60 l 318 51 l 335 40 l 351 28 l 375 19 l 397 8 l 417 1 l 436 -8 l 500 -19 l 539 -24 z m 590 131 l 496 147 l 463 163 l 440 174 l 426 182 l 421 193 l 429 210 l 447 228 l 469 246 l 479 258 l 494 272 l 521 297 l 538 313 l 556 333 l 572 349 l 596 372 l 608 382 l 621 394 l 632 407 l 643 415 l 660 433 l 683 451 l 700 465 l 713 481 l 728 493 l 774 542 l 811 579 l 825 590 l 839 603 l 853 618 l 868 629 l 888 642 l 903 642 l 911 638 l 919 621 l 926 604 l 933 586 l 940 563 l 946 546 l 947 515 l 947 463 l 946 446 l 943 433 l 942 414 l 936 393 l 932 379 l 926 368 l 921 349 l 907 318 l 897 296 l 892 289 l 882 275 l 872 267 l 865 257 l 847 239 l 818 217 l 797 200 l 785 193 l 764 176 l 740 165 l 728 157 l 714 154 l 696 147 l 669 136 l 636 133 z m 296 326 l 283 340 l 272 364 l 261 396 l 256 418 l 254 431 l 254 449 l 249 478 l 247 504 l 246 514 l 251 524 l 256 543 l 264 576 l 274 604 l 275 614 l 285 632 l 300 661 l 311 681 l 319 694 l 336 714 l 347 726 l 368 747 l 410 783 l 442 804 l 458 814 l 486 821 l 515 828 l 543 829 l 571 832 l 604 833 l 658 831 l 696 821 l 725 810 l 754 800 l 771 790 l 776 776 l 774 771 l 767 763 l 751 750 l 736 735 l 721 721 l 715 708 l 713 701 l 700 693 l 679 672 l 668 660 l 638 632 l 628 622 l 617 610 l 604 600 l 597 594 l 592 586 l 578 574 l 563 563 l 553 553 l 542 544 l 535 539 l 531 532 l 514 518 l 510 510 l 500 501 l 483 489 l 472 476 l 464 469 l 451 460 l 419 431 l 400 408 l 371 383 l 357 368 l 346 357 l 326 340 l 315 331 l 310 328 z "},"Õ":{"ha":1189,"x_min":0,"x_max":0,"o":"m 636 -22 l 676 -22 l 706 -18 l 740 -8 l 769 1 l 785 7 l 808 17 l 839 35 l 867 50 l 883 61 l 893 69 l 907 78 l 918 88 l 931 97 l 940 106 l 953 118 l 971 132 l 986 147 l 994 157 l 1000 167 l 1008 179 l 1018 192 l 1029 206 l 1036 219 l 1046 236 l 1058 263 l 1069 293 l 1082 326 l 1088 350 l 1092 367 l 1096 394 l 1097 417 l 1100 439 l 1103 475 l 1106 499 l 1104 521 l 1104 540 l 1101 563 l 1094 597 l 1089 615 l 1086 628 l 1079 650 l 1071 678 l 1057 710 l 1044 735 l 1035 749 l 1026 765 l 1017 779 l 994 806 l 960 847 l 931 875 l 901 899 l 863 924 l 833 939 l 811 951 l 792 961 l 772 968 l 751 975 l 739 981 l 721 985 l 693 992 l 668 996 l 653 996 l 619 999 l 571 997 l 538 999 l 515 994 l 481 989 l 443 976 l 425 968 l 396 960 l 357 942 l 324 925 l 286 904 l 271 889 l 260 883 l 246 869 l 232 854 l 222 842 l 208 829 l 185 797 l 158 756 l 144 725 l 132 706 l 118 669 l 107 638 l 103 615 l 92 581 l 89 556 l 85 529 l 85 489 l 83 465 l 85 446 l 89 422 l 90 406 l 96 378 l 103 344 l 110 326 l 118 296 l 136 264 l 153 233 l 172 196 l 222 136 l 238 121 l 261 100 l 281 82 l 294 74 l 307 64 l 325 54 l 340 44 l 354 38 l 382 22 l 415 10 l 440 0 l 458 -4 l 472 -8 l 497 -14 l 532 -14 l 560 -18 l 581 -19 l 604 -19 z m 611 138 l 578 139 l 539 144 l 500 151 l 476 158 l 447 172 l 422 186 l 417 189 l 407 194 l 379 213 l 357 232 l 347 243 l 321 276 l 288 326 l 271 357 l 267 378 l 261 403 l 257 418 l 256 425 l 256 446 l 253 468 l 251 488 l 250 504 l 253 539 l 260 569 l 263 589 l 269 611 l 278 633 l 288 651 l 293 667 l 300 676 l 313 700 l 329 724 l 338 731 l 349 744 l 363 760 l 440 804 l 486 824 l 518 833 l 543 836 l 564 840 l 640 840 l 664 835 l 682 829 l 693 826 l 722 818 l 749 807 l 793 781 l 840 743 l 856 728 l 865 715 l 882 694 l 893 672 l 901 657 l 908 633 l 922 604 l 932 572 l 942 522 l 944 486 l 942 467 l 939 429 l 935 399 l 929 372 l 921 342 l 893 300 l 872 274 l 861 257 l 854 249 l 833 226 l 797 200 l 769 182 l 743 168 l 726 163 l 708 154 l 690 151 l 685 149 l 678 144 l 669 143 l 651 142 z m 667 1110 l 694 1111 l 724 1121 l 750 1133 l 781 1158 l 797 1182 l 803 1194 l 808 1215 l 810 1242 l 807 1269 l 796 1290 l 782 1303 l 765 1311 l 749 1314 l 717 1311 l 686 1296 l 675 1281 l 669 1272 l 663 1269 l 651 1282 l 642 1296 l 628 1311 l 613 1325 l 589 1338 l 564 1346 l 540 1350 l 517 1351 l 496 1351 l 476 1347 l 458 1339 l 432 1324 l 408 1299 l 394 1271 l 385 1249 l 381 1231 l 379 1219 l 378 1200 l 386 1175 l 403 1158 l 429 1150 l 458 1146 l 475 1146 l 490 1151 l 508 1164 l 517 1174 l 522 1182 l 531 1182 l 540 1175 l 553 1161 l 574 1146 l 603 1128 l 626 1117 l 651 1111 z "},"Œ":{"ha":1774,"x_min":0,"x_max":0,"o":"m 531 -24 l 567 -24 l 603 -22 l 624 -22 l 646 -18 l 674 -14 l 697 -11 l 713 -7 l 724 -7 l 754 -1 l 782 11 l 814 22 l 839 39 l 861 53 l 876 65 l 896 76 l 915 89 l 924 93 l 932 89 l 936 82 l 939 57 l 947 29 l 957 18 l 971 4 l 1011 1 l 1069 1 l 1118 0 l 1149 3 l 1165 1 l 1179 1 l 1189 0 l 1224 0 l 1257 1 l 1279 -3 l 1299 -3 l 1321 1 l 1338 7 l 1363 6 l 1382 6 l 1392 3 l 1413 6 l 1426 4 l 1435 4 l 1443 6 l 1449 4 l 1456 3 l 1468 11 l 1476 11 l 1486 7 l 1501 6 l 1515 6 l 1524 4 l 1539 7 l 1572 6 l 1603 8 l 1619 3 l 1631 -1 l 1639 3 l 1678 17 l 1689 33 l 1693 50 l 1696 76 l 1693 113 l 1685 133 l 1675 144 l 1642 156 l 1632 154 l 1618 149 l 1607 146 l 1578 147 l 1553 147 l 1547 146 l 1514 147 l 1503 150 l 1489 149 l 1467 149 l 1446 147 l 1397 150 l 1369 149 l 1351 149 l 1343 150 l 1332 153 l 1319 150 l 1258 147 l 1233 147 l 1218 150 l 1207 151 l 1164 151 l 1143 156 l 1121 160 l 1101 178 l 1096 196 l 1096 222 l 1097 233 l 1099 249 l 1096 261 l 1099 268 l 1099 321 l 1100 363 l 1101 393 l 1106 410 l 1110 424 l 1129 428 l 1151 429 l 1165 428 l 1182 429 l 1215 429 l 1231 431 l 1283 431 l 1290 433 l 1297 438 l 1307 436 l 1313 433 l 1319 428 l 1328 429 l 1343 432 l 1356 433 l 1358 431 l 1364 428 l 1372 432 l 1383 436 l 1393 435 l 1404 428 l 1410 431 l 1413 433 l 1426 436 l 1447 438 l 1458 439 l 1467 439 l 1481 442 l 1492 436 l 1504 435 l 1518 447 l 1526 465 l 1531 482 l 1529 515 l 1528 546 l 1524 554 l 1510 571 l 1467 579 l 1438 576 l 1425 575 l 1413 576 l 1401 576 l 1386 575 l 1379 574 l 1369 574 l 1354 575 l 1332 574 l 1310 575 l 1300 575 l 1286 576 l 1275 578 l 1256 579 l 1228 579 l 1196 576 l 1176 578 l 1163 578 l 1150 579 l 1138 585 l 1125 588 l 1111 592 l 1103 600 l 1101 613 l 1100 636 l 1100 703 l 1103 735 l 1104 753 l 1107 778 l 1111 797 l 1114 810 l 1124 819 l 1140 821 l 1151 825 l 1160 826 l 1186 826 l 1200 825 l 1240 831 l 1307 831 l 1319 832 l 1333 832 l 1351 833 l 1367 836 l 1376 835 l 1381 831 l 1382 825 l 1386 824 l 1393 831 l 1411 832 l 1426 831 l 1438 828 l 1447 829 l 1454 824 l 1461 825 l 1471 829 l 1489 825 l 1536 826 l 1558 826 l 1578 829 l 1588 829 l 1590 828 l 1596 821 l 1618 825 l 1636 825 l 1642 824 l 1650 824 l 1664 836 l 1679 858 l 1681 886 l 1681 917 l 1676 938 l 1664 958 l 1653 968 l 1644 967 l 1626 965 l 1603 969 l 1567 968 l 1536 971 l 1524 967 l 1499 968 l 1474 967 l 1461 968 l 1451 967 l 1411 967 l 1392 969 l 1375 968 l 1358 968 l 1344 969 l 1333 969 l 1325 967 l 1313 972 l 1285 972 l 1271 971 l 1250 972 l 1225 969 l 1193 972 l 1165 975 l 1154 974 l 1133 974 l 1104 972 l 1085 974 l 1058 979 l 1028 972 l 1006 972 l 967 967 l 947 931 l 944 913 l 940 897 l 933 886 l 928 882 l 917 886 l 907 894 l 888 907 l 871 918 l 857 924 l 833 936 l 821 946 l 815 946 l 803 947 l 790 954 l 775 963 l 765 965 l 751 972 l 731 978 l 717 983 l 700 986 l 685 993 l 671 990 l 663 992 l 657 992 l 621 999 l 604 996 l 589 997 l 574 996 l 558 996 l 547 994 l 538 994 l 522 993 l 510 993 l 490 990 l 472 985 l 458 982 l 446 978 l 438 974 l 428 978 l 407 975 l 375 963 l 343 944 l 328 933 l 311 928 l 286 910 l 264 892 l 254 881 l 247 874 l 232 861 l 203 828 l 175 793 l 158 765 l 144 746 l 136 731 l 124 703 l 115 682 l 111 668 l 106 650 l 96 633 l 93 617 l 90 593 l 88 568 l 85 553 l 85 532 l 83 496 l 83 449 l 86 429 l 89 407 l 94 382 l 99 360 l 104 344 l 106 333 l 113 310 l 122 286 l 135 261 l 149 232 l 164 211 l 174 196 l 178 185 l 192 168 l 208 151 l 221 136 l 229 128 l 239 119 l 253 107 l 265 92 l 282 75 l 304 61 l 324 50 l 338 40 l 363 29 l 374 25 l 389 17 l 408 8 l 422 7 l 436 3 l 467 -8 l 493 -17 l 503 -18 l 511 -21 z m 615 131 l 536 136 l 514 140 l 507 139 l 489 146 l 471 151 l 465 156 l 450 161 l 433 169 l 421 178 l 410 182 l 393 196 l 368 213 l 358 222 l 351 232 l 342 239 l 331 244 l 318 263 l 307 274 l 300 288 l 290 303 l 276 332 l 260 368 l 254 390 l 250 399 l 249 413 l 244 438 l 244 467 l 240 489 l 233 500 l 236 508 l 239 519 l 240 539 l 242 565 l 246 579 l 250 596 l 256 610 l 258 621 l 263 636 l 271 651 l 279 669 l 285 678 l 289 688 l 299 699 l 310 715 l 325 729 l 338 742 l 344 753 l 360 765 l 374 772 l 392 788 l 404 796 l 422 804 l 453 819 l 481 831 l 499 840 l 519 849 l 540 851 l 556 854 l 568 854 l 579 847 l 588 844 l 597 850 l 610 851 l 619 850 l 618 843 l 628 842 l 640 843 l 651 839 l 661 838 l 672 833 l 688 833 l 701 831 l 710 825 l 719 824 l 722 818 l 726 814 l 742 815 l 744 810 l 749 807 l 754 806 l 758 808 l 763 806 l 764 800 l 769 793 l 775 793 l 781 794 l 786 782 l 797 785 l 800 779 l 808 775 l 813 769 l 815 767 l 819 764 l 828 750 l 835 749 l 840 742 l 847 733 l 849 731 l 851 719 l 863 710 l 864 703 l 867 699 l 871 693 l 875 683 l 888 658 l 893 642 l 903 633 l 914 604 l 922 578 l 932 539 l 933 504 l 933 458 l 931 433 l 925 406 l 915 372 l 908 349 l 899 331 l 886 307 l 867 275 l 849 251 l 818 224 l 786 196 l 769 183 l 758 169 l 743 164 l 722 154 l 701 147 l 690 143 l 663 139 l 632 133 z "},"P":{"ha":1047,"x_min":0,"x_max":0,"o":"m 232 -3 l 254 -1 l 267 3 l 286 7 l 303 22 l 310 36 l 311 49 l 311 72 l 315 89 l 315 138 l 314 176 l 315 207 l 314 225 l 315 239 l 315 319 l 324 349 l 333 372 l 365 376 l 400 376 l 490 378 l 531 382 l 563 381 l 586 383 l 610 382 l 638 382 l 651 383 l 713 383 l 731 386 l 746 388 l 758 390 l 774 397 l 783 403 l 808 408 l 822 414 l 833 419 l 842 425 l 853 431 l 863 442 l 876 460 l 889 472 l 896 482 l 911 501 l 925 517 l 931 529 l 938 543 l 940 554 l 951 575 l 954 601 l 961 631 l 963 661 l 963 707 l 958 726 l 956 746 l 950 771 l 943 789 l 942 800 l 936 815 l 929 833 l 919 853 l 908 871 l 899 883 l 879 904 l 853 926 l 828 939 l 804 950 l 775 961 l 756 965 l 733 971 l 714 974 l 699 975 l 674 974 l 643 975 l 631 978 l 624 975 l 618 975 l 608 976 l 596 972 l 582 975 l 567 976 l 553 975 l 540 972 l 528 972 l 501 974 l 481 974 l 471 971 l 425 971 l 404 969 l 379 969 l 354 971 l 336 969 l 328 971 l 256 974 l 240 975 l 228 972 l 207 972 l 192 968 l 179 967 l 169 958 l 164 953 l 156 932 l 153 901 l 153 885 l 154 856 l 154 788 l 157 771 l 157 744 l 160 692 l 160 660 l 161 635 l 163 611 l 164 586 l 164 571 l 161 561 l 158 542 l 158 515 l 156 503 l 158 493 l 157 475 l 154 463 l 156 456 l 156 442 l 158 432 l 156 426 l 154 422 l 157 415 l 164 417 l 167 417 l 168 410 l 161 407 l 156 403 l 158 392 l 163 379 l 161 369 l 160 349 l 161 324 l 163 303 l 163 267 l 161 243 l 163 217 l 161 192 l 161 175 l 158 140 l 154 110 l 154 96 l 157 65 l 158 46 l 161 26 l 171 14 l 182 4 l 201 -1 z m 485 536 l 463 538 l 393 538 l 369 539 l 347 542 l 329 546 l 322 551 l 318 560 l 315 585 l 315 688 l 318 707 l 319 725 l 319 753 l 324 781 l 329 801 l 336 817 l 346 821 l 354 819 l 386 817 l 421 819 l 444 818 l 463 819 l 471 819 l 479 818 l 496 817 l 574 817 l 589 818 l 608 817 l 626 818 l 653 819 l 674 818 l 714 814 l 754 796 l 771 785 l 781 775 l 792 754 l 799 724 l 804 693 l 804 665 l 803 647 l 797 624 l 778 589 l 754 564 l 733 553 l 704 544 l 632 542 l 600 543 l 579 542 l 568 540 l 560 542 l 550 540 l 514 539 z "},"Þ":{"ha":1047,"x_min":0,"x_max":0,"o":"m 267 -11 l 283 -8 l 297 1 l 307 10 l 311 18 l 317 32 l 321 58 l 324 86 l 325 101 l 325 126 l 321 146 l 319 163 l 324 179 l 329 189 l 339 196 l 351 200 l 367 201 l 385 200 l 406 199 l 449 199 l 492 197 l 522 199 l 607 199 l 621 201 l 706 203 l 733 203 l 761 210 l 788 213 l 801 218 l 813 222 l 828 231 l 844 240 l 857 246 l 876 263 l 908 299 l 921 322 l 932 344 l 947 388 l 958 422 l 958 432 l 961 449 l 964 478 l 963 501 l 963 549 l 958 568 l 956 594 l 949 618 l 942 633 l 929 663 l 906 699 l 889 719 l 869 740 l 851 757 l 818 774 l 781 789 l 757 793 l 715 794 l 679 797 l 657 797 l 636 799 l 586 799 l 528 800 l 496 799 l 469 801 l 438 803 l 351 803 l 329 807 l 324 817 l 322 846 l 321 894 l 319 926 l 314 947 l 307 963 l 299 969 l 286 976 l 275 976 l 258 978 l 239 979 l 200 976 l 185 974 l 171 963 l 161 953 l 158 933 l 156 903 l 157 879 l 154 857 l 154 836 l 156 826 l 157 818 l 156 808 l 156 800 l 157 793 l 157 782 l 156 774 l 158 764 l 156 753 l 157 742 l 156 732 l 156 719 l 157 706 l 157 682 l 158 669 l 157 657 l 157 647 l 156 638 l 158 628 l 158 596 l 157 569 l 158 546 l 157 528 l 156 511 l 154 488 l 158 464 l 158 386 l 163 365 l 164 329 l 160 310 l 161 304 l 161 300 l 163 293 l 163 278 l 164 268 l 161 254 l 161 231 l 163 213 l 165 192 l 163 175 l 164 154 l 160 136 l 160 65 l 161 44 l 168 24 l 183 6 l 196 -4 l 215 -7 l 235 -7 l 247 -8 z m 490 354 l 447 360 l 410 360 l 374 365 l 344 364 l 333 367 l 324 389 l 322 407 l 322 506 l 324 528 l 321 564 l 321 588 l 325 617 l 331 625 l 349 635 l 397 639 l 435 639 l 450 642 l 468 642 l 496 643 l 532 643 l 556 642 l 574 642 l 586 639 l 625 639 l 697 635 l 711 636 l 738 628 l 769 610 l 783 590 l 790 576 l 793 564 l 799 550 l 800 538 l 801 508 l 800 475 l 797 457 l 793 433 l 782 415 l 772 401 l 765 386 l 756 379 l 744 372 l 729 367 l 699 363 l 669 360 l 658 361 l 592 358 l 568 360 l 540 358 l 525 358 l 513 357 z "},"Q":{"ha":1189,"x_min":0,"x_max":0,"o":"m 914 -153 l 932 -153 l 960 -139 l 982 -124 l 996 -111 l 1010 -90 l 1011 -74 l 1010 -57 l 1001 -36 l 982 -3 l 963 29 l 946 54 l 938 74 l 939 82 l 944 96 l 956 114 l 976 139 l 994 158 l 1008 178 l 1025 200 l 1036 218 l 1040 228 l 1047 239 l 1054 257 l 1064 272 l 1072 294 l 1085 319 l 1086 338 l 1092 360 l 1100 388 l 1103 410 l 1104 425 l 1101 436 l 1101 457 l 1106 475 l 1106 515 l 1101 542 l 1097 571 l 1090 594 l 1088 611 l 1079 642 l 1065 692 l 1043 735 l 1032 758 l 1021 771 l 1007 789 l 989 811 l 981 824 l 956 851 l 942 863 l 918 883 l 890 907 l 872 921 l 831 944 l 806 954 l 781 961 l 733 978 l 699 988 l 657 994 l 626 997 l 585 997 l 549 996 l 497 992 l 467 983 l 454 981 l 444 978 l 426 971 l 399 960 l 354 938 l 325 918 l 289 897 l 285 892 l 265 875 l 254 865 l 246 857 l 235 847 l 225 835 l 217 829 l 200 810 l 189 788 l 179 778 l 165 753 l 150 726 l 138 700 l 129 682 l 124 668 l 115 651 l 104 621 l 96 592 l 93 572 l 89 556 l 89 544 l 85 522 l 86 500 l 86 486 l 88 461 l 90 429 l 96 403 l 101 375 l 108 347 l 115 321 l 124 299 l 131 282 l 136 268 l 146 254 l 154 239 l 172 203 l 189 182 l 203 160 l 215 142 l 249 107 l 268 85 l 281 78 l 296 67 l 313 57 l 328 47 l 343 40 l 357 32 l 375 24 l 397 11 l 425 3 l 443 -1 l 454 -6 l 474 -10 l 497 -17 l 513 -19 l 526 -22 l 550 -29 l 589 -29 l 622 -26 l 642 -25 l 668 -21 l 688 -18 l 707 -12 l 747 -6 l 776 -8 l 788 -15 l 793 -24 l 806 -40 l 817 -58 l 826 -74 l 847 -99 l 864 -126 l 886 -146 z m 592 132 l 558 133 l 529 139 l 503 144 l 479 153 l 461 160 l 440 168 l 418 178 l 397 190 l 375 208 l 357 226 l 304 292 l 292 317 l 271 361 l 258 419 l 251 449 l 251 471 l 254 504 l 260 543 l 268 578 l 275 611 l 286 635 l 314 683 l 342 719 l 358 739 l 376 754 l 397 774 l 421 793 l 435 801 l 451 810 l 472 817 l 500 824 l 521 833 l 546 836 l 569 840 l 594 839 l 625 836 l 671 831 l 701 821 l 710 819 l 728 811 l 753 801 l 768 794 l 782 786 l 796 776 l 815 763 l 836 746 l 857 726 l 869 711 l 883 693 l 896 667 l 908 647 l 915 632 l 918 624 l 919 614 l 928 600 l 931 579 l 936 553 l 940 525 l 942 513 l 942 432 l 939 422 l 935 397 l 924 368 l 915 346 l 903 324 l 892 303 l 878 281 l 860 260 l 847 246 l 832 240 l 821 247 l 801 275 l 783 297 l 767 328 l 756 343 l 743 356 l 726 364 l 704 360 l 681 351 l 656 335 l 632 318 l 618 296 l 619 269 l 625 250 l 636 232 l 650 207 l 665 175 l 669 158 l 668 151 l 653 142 l 638 136 l 619 136 z "},"R":{"ha":1078,"x_min":0,"x_max":0,"o":"m 868 -15 l 899 -3 l 922 14 l 942 26 l 958 54 l 964 72 l 967 82 l 957 107 l 942 126 l 931 144 l 917 161 l 900 183 l 885 203 l 843 263 l 832 275 l 825 288 l 811 304 l 792 328 l 776 353 l 768 367 l 767 372 l 765 379 l 774 388 l 803 400 l 826 417 l 843 425 l 867 440 l 881 456 l 894 468 l 910 485 l 918 499 l 926 511 l 940 543 l 950 571 l 956 586 l 960 601 l 963 613 l 964 633 l 963 676 l 961 710 l 960 728 l 961 744 l 958 756 l 956 768 l 950 779 l 943 799 l 933 822 l 926 844 l 914 868 l 893 890 l 882 903 l 863 922 l 828 943 l 796 957 l 771 965 l 754 969 l 679 976 l 647 978 l 583 978 l 557 976 l 539 976 l 468 978 l 436 976 l 413 975 l 397 976 l 375 976 l 343 975 l 294 974 l 233 976 l 193 971 l 178 963 l 169 956 l 161 943 l 156 919 l 154 892 l 154 867 l 158 840 l 156 826 l 158 813 l 158 746 l 156 725 l 157 719 l 157 694 l 156 681 l 154 672 l 156 663 l 156 635 l 158 618 l 156 604 l 156 585 l 157 556 l 157 501 l 156 475 l 156 411 l 157 400 l 156 383 l 154 357 l 154 263 l 157 240 l 158 213 l 158 179 l 154 125 l 156 111 l 157 78 l 157 44 l 164 25 l 176 3 l 190 -3 l 206 -6 l 236 -8 l 261 -6 l 278 -6 l 292 -1 l 300 3 l 307 11 l 314 25 l 317 47 l 319 67 l 319 96 l 321 119 l 321 146 l 322 157 l 321 196 l 321 224 l 322 260 l 324 276 l 326 308 l 329 346 l 336 368 l 364 378 l 397 381 l 483 378 l 496 379 l 514 376 l 529 374 l 543 367 l 557 357 l 567 350 l 575 339 l 589 319 l 611 293 l 628 269 l 649 244 l 667 222 l 679 204 l 694 185 l 717 160 l 732 138 l 743 124 l 751 110 l 764 92 l 775 75 l 786 60 l 797 46 l 814 22 l 829 6 l 840 -4 l 854 -12 z m 619 536 l 561 542 l 524 542 l 493 540 l 485 542 l 456 542 l 425 543 l 410 546 l 385 543 l 367 544 l 349 549 l 328 561 l 324 586 l 325 628 l 324 672 l 325 704 l 325 749 l 326 785 l 328 803 l 332 813 l 340 815 l 374 819 l 417 819 l 438 815 l 463 817 l 485 817 l 504 815 l 597 815 l 614 818 l 629 817 l 642 817 l 654 815 l 675 814 l 701 813 l 728 804 l 747 799 l 771 783 l 788 757 l 794 735 l 801 710 l 804 689 l 801 672 l 800 651 l 797 639 l 792 610 l 781 581 l 772 569 l 763 560 l 754 553 l 742 549 l 732 544 l 719 539 l 706 540 l 694 539 l 679 538 l 667 536 z "},"Ŕ":{"ha":1078,"x_min":0,"x_max":0,"o":"m 868 -15 l 899 -3 l 922 14 l 942 26 l 958 54 l 964 72 l 967 82 l 957 107 l 942 126 l 931 144 l 917 161 l 900 183 l 885 203 l 843 263 l 832 275 l 825 288 l 811 304 l 792 328 l 776 353 l 768 367 l 767 372 l 765 379 l 774 388 l 803 400 l 826 417 l 843 425 l 867 440 l 881 456 l 894 468 l 910 485 l 918 499 l 926 511 l 940 543 l 950 571 l 956 586 l 960 601 l 963 613 l 964 633 l 963 676 l 961 710 l 960 728 l 961 744 l 958 756 l 956 768 l 950 779 l 943 799 l 933 822 l 926 844 l 914 868 l 893 890 l 882 903 l 863 922 l 828 943 l 796 957 l 771 965 l 754 969 l 679 976 l 647 978 l 583 978 l 557 976 l 539 976 l 468 978 l 436 976 l 413 975 l 397 976 l 375 976 l 343 975 l 294 974 l 233 976 l 193 971 l 178 963 l 169 956 l 161 943 l 156 919 l 154 892 l 154 867 l 158 840 l 156 826 l 158 813 l 158 746 l 156 725 l 157 719 l 157 694 l 156 681 l 154 672 l 156 663 l 156 635 l 158 618 l 156 604 l 156 585 l 157 556 l 157 501 l 156 475 l 156 411 l 157 400 l 156 383 l 154 357 l 154 263 l 157 240 l 158 213 l 158 179 l 154 125 l 156 111 l 157 78 l 157 44 l 164 25 l 176 3 l 190 -3 l 206 -6 l 236 -8 l 261 -6 l 278 -6 l 292 -1 l 300 3 l 307 11 l 314 25 l 317 47 l 319 67 l 319 96 l 321 119 l 321 146 l 322 157 l 321 196 l 321 224 l 322 260 l 324 276 l 326 308 l 329 346 l 336 368 l 364 378 l 397 381 l 483 378 l 496 379 l 514 376 l 529 374 l 543 367 l 557 357 l 567 350 l 575 339 l 589 319 l 611 293 l 628 269 l 649 244 l 667 222 l 679 204 l 694 185 l 717 160 l 732 138 l 743 124 l 751 110 l 764 92 l 775 75 l 786 60 l 797 46 l 814 22 l 829 6 l 840 -4 l 854 -12 z m 619 536 l 561 542 l 524 542 l 493 540 l 485 542 l 456 542 l 425 543 l 410 546 l 385 543 l 367 544 l 349 549 l 328 561 l 324 586 l 325 628 l 324 672 l 325 704 l 325 749 l 326 785 l 328 803 l 332 813 l 340 815 l 374 819 l 417 819 l 438 815 l 463 817 l 485 817 l 504 815 l 597 815 l 614 818 l 629 817 l 642 817 l 654 815 l 675 814 l 701 813 l 728 804 l 747 799 l 771 783 l 788 757 l 794 735 l 801 710 l 804 689 l 801 672 l 800 651 l 797 639 l 792 610 l 781 581 l 772 569 l 763 560 l 754 553 l 742 549 l 732 544 l 719 539 l 706 540 l 694 539 l 679 538 l 667 536 z m 507 1090 l 524 1100 l 539 1121 l 557 1142 l 564 1158 l 578 1176 l 597 1201 l 604 1214 l 615 1229 l 631 1249 l 646 1264 l 657 1278 l 668 1296 l 678 1319 l 672 1339 l 664 1357 l 646 1372 l 619 1392 l 599 1400 l 582 1403 l 564 1403 l 550 1396 l 540 1386 l 533 1375 l 525 1367 l 518 1357 l 507 1343 l 499 1328 l 489 1319 l 482 1306 l 465 1285 l 453 1267 l 443 1250 l 428 1229 l 414 1206 l 403 1189 l 400 1172 l 404 1154 l 415 1133 l 439 1117 l 457 1108 l 476 1097 z "},"Ř":{"ha":1078,"x_min":0,"x_max":0,"o":"m 868 -15 l 899 -3 l 922 14 l 942 26 l 958 54 l 964 72 l 967 82 l 957 107 l 942 126 l 931 144 l 917 161 l 900 183 l 885 203 l 843 263 l 832 275 l 825 288 l 811 304 l 792 328 l 776 353 l 768 367 l 767 372 l 765 379 l 774 388 l 803 400 l 826 417 l 843 425 l 867 440 l 881 456 l 894 468 l 910 485 l 918 499 l 926 511 l 940 543 l 950 571 l 956 586 l 960 601 l 963 613 l 964 633 l 963 676 l 961 710 l 960 728 l 961 744 l 958 756 l 956 768 l 950 779 l 943 799 l 933 822 l 926 844 l 914 868 l 893 890 l 882 903 l 863 922 l 828 943 l 796 957 l 771 965 l 754 969 l 679 976 l 647 978 l 583 978 l 557 976 l 539 976 l 468 978 l 436 976 l 413 975 l 397 976 l 375 976 l 343 975 l 294 974 l 233 976 l 193 971 l 178 963 l 169 956 l 161 943 l 156 919 l 154 892 l 154 867 l 158 840 l 156 826 l 158 813 l 158 746 l 156 725 l 157 719 l 157 694 l 156 681 l 154 672 l 156 663 l 156 635 l 158 618 l 156 604 l 156 585 l 157 556 l 157 501 l 156 475 l 156 411 l 157 400 l 156 383 l 154 357 l 154 263 l 157 240 l 158 213 l 158 179 l 154 125 l 156 111 l 157 78 l 157 44 l 164 25 l 176 3 l 190 -3 l 206 -6 l 236 -8 l 261 -6 l 278 -6 l 292 -1 l 300 3 l 307 11 l 314 25 l 317 47 l 319 67 l 319 96 l 321 119 l 321 146 l 322 157 l 321 196 l 321 224 l 322 260 l 324 276 l 326 308 l 329 346 l 336 368 l 364 378 l 397 381 l 483 378 l 496 379 l 514 376 l 529 374 l 543 367 l 557 357 l 567 350 l 575 339 l 589 319 l 611 293 l 628 269 l 649 244 l 667 222 l 679 204 l 694 185 l 717 160 l 732 138 l 743 124 l 751 110 l 764 92 l 775 75 l 786 60 l 797 46 l 814 22 l 829 6 l 840 -4 l 854 -12 z m 619 536 l 561 542 l 524 542 l 493 540 l 485 542 l 456 542 l 425 543 l 410 546 l 385 543 l 367 544 l 349 549 l 328 561 l 324 586 l 325 628 l 324 672 l 325 704 l 325 749 l 326 785 l 328 803 l 332 813 l 340 815 l 374 819 l 417 819 l 438 815 l 463 817 l 485 817 l 504 815 l 597 815 l 614 818 l 629 817 l 642 817 l 654 815 l 675 814 l 701 813 l 728 804 l 747 799 l 771 783 l 788 757 l 794 735 l 801 710 l 804 689 l 801 672 l 800 651 l 797 639 l 792 610 l 781 581 l 772 569 l 763 560 l 754 553 l 742 549 l 732 544 l 719 539 l 706 540 l 694 539 l 679 538 l 667 536 z m 511 1099 l 540 1099 l 568 1100 l 586 1107 l 604 1119 l 624 1139 l 643 1161 l 671 1196 l 692 1218 l 708 1238 l 725 1261 l 747 1296 l 753 1318 l 746 1336 l 735 1350 l 726 1358 l 710 1371 l 688 1385 l 669 1389 l 654 1388 l 640 1383 l 622 1365 l 615 1356 l 607 1346 l 599 1335 l 592 1325 l 586 1317 l 567 1296 l 540 1279 l 528 1286 l 478 1349 l 456 1372 l 429 1389 l 424 1390 l 407 1389 l 389 1385 l 358 1364 l 350 1357 l 331 1336 l 328 1311 l 336 1290 l 346 1274 l 356 1258 l 369 1244 l 381 1228 l 390 1217 l 404 1204 l 418 1186 l 428 1175 l 436 1165 l 449 1151 l 468 1128 l 488 1111 l 499 1103 z "},"Ŗ":{"ha":1078,"x_min":0,"x_max":0,"o":"m 868 -15 l 899 -3 l 922 14 l 942 26 l 958 54 l 964 72 l 967 82 l 957 107 l 942 126 l 931 144 l 917 161 l 900 183 l 885 203 l 843 263 l 832 275 l 825 288 l 811 304 l 792 328 l 776 353 l 768 367 l 767 372 l 765 379 l 774 388 l 803 400 l 826 417 l 843 425 l 867 440 l 881 456 l 894 468 l 910 485 l 918 499 l 926 511 l 940 543 l 950 571 l 956 586 l 960 601 l 963 613 l 964 633 l 963 676 l 961 710 l 960 728 l 961 744 l 958 756 l 956 768 l 950 779 l 943 799 l 933 822 l 926 844 l 914 868 l 893 890 l 882 903 l 863 922 l 828 943 l 796 957 l 771 965 l 754 969 l 679 976 l 647 978 l 583 978 l 557 976 l 539 976 l 468 978 l 436 976 l 413 975 l 397 976 l 375 976 l 343 975 l 294 974 l 233 976 l 193 971 l 178 963 l 169 956 l 161 943 l 156 919 l 154 892 l 154 867 l 158 840 l 156 826 l 158 813 l 158 746 l 156 725 l 157 719 l 157 694 l 156 681 l 154 672 l 156 663 l 156 635 l 158 618 l 156 604 l 156 585 l 157 556 l 157 501 l 156 475 l 156 411 l 157 400 l 156 383 l 154 357 l 154 263 l 157 240 l 158 213 l 158 179 l 154 125 l 156 111 l 157 78 l 157 44 l 164 25 l 176 3 l 190 -3 l 206 -6 l 236 -8 l 261 -6 l 278 -6 l 292 -1 l 300 3 l 307 11 l 314 25 l 317 47 l 319 67 l 319 96 l 321 119 l 321 146 l 322 157 l 321 196 l 321 224 l 322 260 l 324 276 l 326 308 l 329 346 l 336 368 l 364 378 l 397 381 l 483 378 l 496 379 l 514 376 l 529 374 l 543 367 l 557 357 l 567 350 l 575 339 l 589 319 l 611 293 l 628 269 l 649 244 l 667 222 l 679 204 l 694 185 l 717 160 l 732 138 l 743 124 l 751 110 l 764 92 l 775 75 l 786 60 l 797 46 l 814 22 l 829 6 l 840 -4 l 854 -12 z m 538 -367 l 569 -364 l 582 -349 l 589 -324 l 600 -299 l 600 -281 l 608 -260 l 613 -244 l 619 -229 l 621 -215 l 626 -197 l 642 -157 l 646 -125 l 635 -108 l 621 -94 l 599 -86 l 567 -75 l 544 -75 l 528 -76 l 511 -83 l 500 -96 l 493 -107 l 488 -122 l 483 -140 l 476 -153 l 475 -168 l 467 -193 l 460 -215 l 457 -232 l 449 -258 l 443 -285 l 439 -304 l 442 -321 l 451 -336 l 468 -351 l 496 -360 l 517 -362 z m 619 536 l 561 542 l 524 542 l 493 540 l 485 542 l 456 542 l 425 543 l 410 546 l 385 543 l 367 544 l 349 549 l 328 561 l 324 586 l 325 628 l 324 672 l 325 704 l 325 749 l 326 785 l 328 803 l 332 813 l 340 815 l 374 819 l 417 819 l 438 815 l 463 817 l 485 817 l 504 815 l 597 815 l 614 818 l 629 817 l 642 817 l 654 815 l 675 814 l 701 813 l 728 804 l 747 799 l 771 783 l 788 757 l 794 735 l 801 710 l 804 689 l 801 672 l 800 651 l 797 639 l 792 610 l 781 581 l 772 569 l 763 560 l 754 553 l 742 549 l 732 544 l 719 539 l 706 540 l 694 539 l 679 538 l 667 536 z "},"S":{"ha":1057,"x_min":0,"x_max":0,"o":"m 524 -21 l 578 -21 l 606 -19 l 626 -17 l 660 -14 l 696 -6 l 724 4 l 743 10 l 753 14 l 767 19 l 781 26 l 790 32 l 804 40 l 828 56 l 844 67 l 857 79 l 867 92 l 874 99 l 883 111 l 894 124 l 907 142 l 917 158 l 919 168 l 926 182 l 933 201 l 939 224 l 944 256 l 944 307 l 943 326 l 940 329 l 939 335 l 936 354 l 928 376 l 925 388 l 919 397 l 911 413 l 903 429 l 882 453 l 863 467 l 854 475 l 831 493 l 801 506 l 771 519 l 707 536 l 671 540 l 665 544 l 651 546 l 638 550 l 610 557 l 586 561 l 569 565 l 542 565 l 528 567 l 518 567 l 503 574 l 490 576 l 472 579 l 457 581 l 440 585 l 414 590 l 371 603 l 342 614 l 322 629 l 311 638 l 304 647 l 296 669 l 290 694 l 292 719 l 297 736 l 306 757 l 333 782 l 356 797 l 372 807 l 413 825 l 454 833 l 482 835 l 515 838 l 553 839 l 578 838 l 615 833 l 638 828 l 669 814 l 685 801 l 708 789 l 721 779 l 740 763 l 764 738 l 779 722 l 793 713 l 815 703 l 838 701 l 864 711 l 889 726 l 900 736 l 906 746 l 908 754 l 911 796 l 899 819 l 875 853 l 849 881 l 818 904 l 799 922 l 764 938 l 746 949 l 733 954 l 719 963 l 683 976 l 667 979 l 654 982 l 640 985 l 629 985 l 621 988 l 572 992 l 563 993 l 550 993 l 522 994 l 492 992 l 474 990 l 458 988 l 426 983 l 400 979 l 350 965 l 336 957 l 324 956 l 311 950 l 296 942 l 278 928 l 254 917 l 235 903 l 221 896 l 178 853 l 163 832 l 153 817 l 147 804 l 140 790 l 135 776 l 129 756 l 125 724 l 122 700 l 122 660 l 136 606 l 150 583 l 157 571 l 168 554 l 176 543 l 186 535 l 204 518 l 219 506 l 225 503 l 247 489 l 278 474 l 300 465 l 319 457 l 347 447 l 375 440 l 392 435 l 411 431 l 467 421 l 496 418 l 511 414 l 540 411 l 569 406 l 589 404 l 607 400 l 626 397 l 647 392 l 668 389 l 688 383 l 708 376 l 724 369 l 751 353 l 775 315 l 779 281 l 776 254 l 768 233 l 764 222 l 744 199 l 714 174 l 690 160 l 672 154 l 661 149 l 646 144 l 628 143 l 611 140 l 590 140 l 569 135 l 536 136 l 515 138 l 507 136 l 494 139 l 483 138 l 472 138 l 458 140 l 439 146 l 417 157 l 386 168 l 358 183 l 343 190 l 326 203 l 286 235 l 281 240 l 275 250 l 242 281 l 228 289 l 210 293 l 192 293 l 178 288 l 164 283 l 140 271 l 125 251 l 113 228 l 113 200 l 125 176 l 142 150 l 172 124 l 211 89 l 235 72 l 251 60 l 289 39 l 342 17 l 369 7 l 411 -7 l 449 -12 l 472 -17 l 490 -19 z "},"Ś":{"ha":1057,"x_min":0,"x_max":0,"o":"m 524 -21 l 578 -21 l 606 -19 l 626 -17 l 660 -14 l 696 -6 l 724 4 l 743 10 l 753 14 l 767 19 l 781 26 l 790 32 l 804 40 l 828 56 l 844 67 l 857 79 l 867 92 l 874 99 l 883 111 l 894 124 l 907 142 l 917 158 l 919 168 l 926 182 l 933 201 l 939 224 l 944 256 l 944 307 l 943 326 l 940 329 l 939 335 l 936 354 l 928 376 l 925 388 l 919 397 l 911 413 l 903 429 l 882 453 l 863 467 l 854 475 l 831 493 l 801 506 l 771 519 l 707 536 l 671 540 l 665 544 l 651 546 l 638 550 l 610 557 l 586 561 l 569 565 l 542 565 l 528 567 l 518 567 l 503 574 l 490 576 l 472 579 l 457 581 l 440 585 l 414 590 l 371 603 l 342 614 l 322 629 l 311 638 l 304 647 l 296 669 l 290 694 l 292 719 l 297 736 l 306 757 l 333 782 l 356 797 l 372 807 l 413 825 l 454 833 l 482 835 l 515 838 l 553 839 l 578 838 l 615 833 l 638 828 l 669 814 l 685 801 l 708 789 l 721 779 l 740 763 l 764 738 l 779 722 l 793 713 l 815 703 l 838 701 l 864 711 l 889 726 l 900 736 l 906 746 l 908 754 l 911 796 l 899 819 l 875 853 l 849 881 l 818 904 l 799 922 l 764 938 l 746 949 l 733 954 l 719 963 l 683 976 l 667 979 l 654 982 l 640 985 l 629 985 l 621 988 l 572 992 l 563 993 l 550 993 l 522 994 l 492 992 l 474 990 l 458 988 l 426 983 l 400 979 l 350 965 l 336 957 l 324 956 l 311 950 l 296 942 l 278 928 l 254 917 l 235 903 l 221 896 l 178 853 l 163 832 l 153 817 l 147 804 l 140 790 l 135 776 l 129 756 l 125 724 l 122 700 l 122 660 l 136 606 l 150 583 l 157 571 l 168 554 l 176 543 l 186 535 l 204 518 l 219 506 l 225 503 l 247 489 l 278 474 l 300 465 l 319 457 l 347 447 l 375 440 l 392 435 l 411 431 l 467 421 l 496 418 l 511 414 l 540 411 l 569 406 l 589 404 l 607 400 l 626 397 l 647 392 l 668 389 l 688 383 l 708 376 l 724 369 l 751 353 l 775 315 l 779 281 l 776 254 l 768 233 l 764 222 l 744 199 l 714 174 l 690 160 l 672 154 l 661 149 l 646 144 l 628 143 l 611 140 l 590 140 l 569 135 l 536 136 l 515 138 l 507 136 l 494 139 l 483 138 l 472 138 l 458 140 l 439 146 l 417 157 l 386 168 l 358 183 l 343 190 l 326 203 l 286 235 l 281 240 l 275 250 l 242 281 l 228 289 l 210 293 l 192 293 l 178 288 l 164 283 l 140 271 l 125 251 l 113 228 l 113 200 l 125 176 l 142 150 l 172 124 l 211 89 l 235 72 l 251 60 l 289 39 l 342 17 l 369 7 l 411 -7 l 449 -12 l 472 -17 l 490 -19 z m 497 1090 l 514 1100 l 529 1121 l 547 1142 l 554 1158 l 568 1176 l 588 1201 l 594 1214 l 606 1229 l 621 1249 l 636 1264 l 647 1278 l 658 1296 l 668 1319 l 663 1339 l 654 1357 l 636 1372 l 610 1392 l 589 1400 l 572 1403 l 554 1403 l 540 1396 l 531 1386 l 524 1375 l 515 1367 l 508 1357 l 497 1343 l 489 1328 l 479 1319 l 472 1306 l 456 1285 l 443 1267 l 433 1250 l 418 1229 l 404 1206 l 393 1189 l 390 1172 l 394 1154 l 406 1133 l 429 1117 l 447 1108 l 467 1097 z "},"Š":{"ha":1057,"x_min":0,"x_max":0,"o":"m 524 -21 l 578 -21 l 606 -19 l 626 -17 l 660 -14 l 696 -6 l 724 4 l 743 10 l 753 14 l 767 19 l 781 26 l 790 32 l 804 40 l 828 56 l 844 67 l 857 79 l 867 92 l 874 99 l 883 111 l 894 124 l 907 142 l 917 158 l 919 168 l 926 182 l 933 201 l 939 224 l 944 256 l 944 307 l 943 326 l 940 329 l 939 335 l 936 354 l 928 376 l 925 388 l 919 397 l 911 413 l 903 429 l 882 453 l 863 467 l 854 475 l 831 493 l 801 506 l 771 519 l 707 536 l 671 540 l 665 544 l 651 546 l 638 550 l 610 557 l 586 561 l 569 565 l 542 565 l 528 567 l 518 567 l 503 574 l 490 576 l 472 579 l 457 581 l 440 585 l 414 590 l 371 603 l 342 614 l 322 629 l 311 638 l 304 647 l 296 669 l 290 694 l 292 719 l 297 736 l 306 757 l 333 782 l 356 797 l 372 807 l 413 825 l 454 833 l 482 835 l 515 838 l 553 839 l 578 838 l 615 833 l 638 828 l 669 814 l 685 801 l 708 789 l 721 779 l 740 763 l 764 738 l 779 722 l 793 713 l 815 703 l 838 701 l 864 711 l 889 726 l 900 736 l 906 746 l 908 754 l 911 796 l 899 819 l 875 853 l 849 881 l 818 904 l 799 922 l 764 938 l 746 949 l 733 954 l 719 963 l 683 976 l 667 979 l 654 982 l 640 985 l 629 985 l 621 988 l 572 992 l 563 993 l 550 993 l 522 994 l 492 992 l 474 990 l 458 988 l 426 983 l 400 979 l 350 965 l 336 957 l 324 956 l 311 950 l 296 942 l 278 928 l 254 917 l 235 903 l 221 896 l 178 853 l 163 832 l 153 817 l 147 804 l 140 790 l 135 776 l 129 756 l 125 724 l 122 700 l 122 660 l 136 606 l 150 583 l 157 571 l 168 554 l 176 543 l 186 535 l 204 518 l 219 506 l 225 503 l 247 489 l 278 474 l 300 465 l 319 457 l 347 447 l 375 440 l 392 435 l 411 431 l 467 421 l 496 418 l 511 414 l 540 411 l 569 406 l 589 404 l 607 400 l 626 397 l 647 392 l 668 389 l 688 383 l 708 376 l 724 369 l 751 353 l 775 315 l 779 281 l 776 254 l 768 233 l 764 222 l 744 199 l 714 174 l 690 160 l 672 154 l 661 149 l 646 144 l 628 143 l 611 140 l 590 140 l 569 135 l 536 136 l 515 138 l 507 136 l 494 139 l 483 138 l 472 138 l 458 140 l 439 146 l 417 157 l 386 168 l 358 183 l 343 190 l 326 203 l 286 235 l 281 240 l 275 250 l 242 281 l 228 289 l 210 293 l 192 293 l 178 288 l 164 283 l 140 271 l 125 251 l 113 228 l 113 200 l 125 176 l 142 150 l 172 124 l 211 89 l 235 72 l 251 60 l 289 39 l 342 17 l 369 7 l 411 -7 l 449 -12 l 472 -17 l 490 -19 z m 501 1099 l 531 1099 l 558 1100 l 576 1107 l 594 1119 l 614 1139 l 633 1161 l 661 1196 l 682 1218 l 699 1238 l 715 1261 l 738 1296 l 743 1318 l 736 1336 l 725 1350 l 717 1358 l 700 1371 l 678 1385 l 660 1389 l 644 1388 l 631 1383 l 613 1365 l 606 1356 l 597 1346 l 589 1335 l 582 1325 l 576 1317 l 557 1296 l 531 1279 l 518 1286 l 468 1349 l 446 1372 l 419 1389 l 414 1390 l 397 1389 l 379 1385 l 349 1364 l 340 1357 l 321 1336 l 318 1311 l 326 1290 l 336 1274 l 346 1258 l 360 1244 l 371 1228 l 381 1217 l 394 1204 l 408 1186 l 418 1175 l 426 1165 l 439 1151 l 458 1128 l 478 1111 l 489 1103 z "},"Ş":{"ha":1057,"x_min":0,"x_max":0,"o":"m 564 -367 l 575 -367 l 589 -365 l 606 -361 l 622 -356 l 633 -351 l 649 -343 l 679 -325 l 699 -304 l 711 -286 l 724 -251 l 728 -211 l 728 -194 l 719 -162 l 701 -128 l 678 -103 l 653 -89 l 635 -78 l 617 -71 l 610 -67 l 603 -61 l 601 -54 l 604 -36 l 606 -21 l 611 -18 l 660 -14 l 696 -6 l 724 4 l 743 10 l 753 14 l 767 19 l 781 26 l 790 32 l 804 40 l 828 56 l 844 67 l 857 79 l 867 92 l 874 99 l 883 111 l 894 124 l 907 142 l 917 158 l 919 168 l 926 182 l 933 201 l 939 224 l 944 256 l 944 307 l 943 326 l 940 329 l 939 335 l 936 354 l 928 376 l 925 388 l 919 397 l 911 413 l 903 429 l 882 453 l 863 467 l 854 475 l 831 493 l 801 506 l 771 519 l 707 536 l 671 540 l 665 544 l 651 546 l 638 550 l 610 557 l 586 561 l 569 565 l 542 565 l 528 567 l 518 567 l 503 574 l 490 576 l 472 579 l 457 581 l 440 585 l 414 590 l 371 603 l 342 614 l 322 629 l 311 638 l 304 647 l 296 669 l 290 694 l 292 719 l 297 736 l 306 757 l 333 782 l 356 797 l 372 807 l 413 825 l 454 833 l 482 835 l 515 838 l 553 839 l 578 838 l 615 833 l 638 828 l 669 814 l 685 801 l 708 789 l 721 779 l 740 763 l 764 738 l 779 722 l 793 713 l 815 703 l 838 701 l 864 711 l 889 726 l 900 736 l 906 746 l 908 754 l 911 796 l 899 819 l 875 853 l 849 881 l 818 904 l 799 922 l 764 938 l 746 949 l 733 954 l 719 963 l 683 976 l 667 979 l 654 982 l 640 985 l 629 985 l 621 988 l 572 992 l 563 993 l 550 993 l 522 994 l 492 992 l 474 990 l 458 988 l 426 983 l 400 979 l 350 965 l 336 957 l 324 956 l 311 950 l 296 942 l 278 928 l 254 917 l 235 903 l 221 896 l 178 853 l 163 832 l 153 817 l 147 804 l 140 790 l 135 776 l 129 756 l 125 724 l 122 700 l 122 660 l 136 606 l 150 583 l 157 571 l 168 554 l 176 543 l 186 535 l 204 518 l 219 506 l 225 503 l 247 489 l 278 474 l 300 465 l 319 457 l 347 447 l 375 440 l 392 435 l 411 431 l 467 421 l 496 418 l 511 414 l 540 411 l 569 406 l 589 404 l 607 400 l 626 397 l 647 392 l 668 389 l 688 383 l 708 376 l 724 369 l 751 353 l 775 315 l 779 281 l 776 254 l 768 233 l 764 222 l 744 199 l 714 174 l 690 160 l 672 154 l 661 149 l 646 144 l 628 143 l 611 140 l 590 140 l 569 135 l 536 136 l 515 138 l 507 136 l 494 139 l 483 138 l 472 138 l 458 140 l 439 146 l 417 157 l 386 168 l 358 183 l 343 190 l 326 203 l 286 235 l 281 240 l 275 250 l 242 281 l 228 289 l 210 293 l 192 293 l 178 288 l 164 283 l 140 271 l 125 251 l 113 228 l 113 200 l 125 176 l 142 150 l 172 124 l 211 89 l 235 72 l 251 60 l 289 39 l 342 17 l 369 7 l 411 -7 l 447 -12 l 454 -26 l 449 -47 l 440 -68 l 438 -85 l 436 -104 l 439 -125 l 444 -137 l 454 -154 l 468 -165 l 481 -174 l 499 -176 l 524 -176 l 547 -175 l 563 -178 l 571 -186 l 575 -200 l 569 -212 l 554 -221 l 535 -225 l 514 -218 l 492 -204 l 479 -199 l 453 -192 l 431 -193 l 417 -201 l 393 -229 l 381 -254 l 381 -274 l 386 -294 l 408 -318 l 438 -337 l 457 -347 l 475 -353 l 490 -358 l 508 -361 l 529 -364 l 547 -364 z "},"T":{"ha":926,"x_min":0,"x_max":0,"o":"m 479 -12 l 494 -7 l 519 4 l 529 8 l 538 24 l 543 40 l 546 57 l 544 72 l 542 86 l 538 96 l 538 108 l 540 126 l 539 149 l 539 183 l 540 196 l 539 208 l 542 224 l 540 236 l 540 257 l 539 294 l 542 315 l 539 324 l 542 338 l 542 357 l 543 379 l 543 399 l 544 419 l 547 435 l 546 450 l 547 465 l 544 476 l 547 490 l 547 521 l 546 539 l 547 549 l 546 564 l 544 581 l 544 594 l 546 628 l 547 657 l 549 681 l 550 708 l 549 735 l 549 767 l 550 796 l 558 808 l 581 814 l 681 811 l 717 814 l 764 813 l 807 818 l 833 826 l 843 838 l 849 846 l 853 857 l 857 876 l 856 889 l 856 907 l 846 940 l 815 964 l 788 968 l 754 971 l 621 974 l 585 975 l 551 974 l 524 975 l 497 974 l 464 972 l 426 972 l 396 974 l 364 974 l 346 975 l 265 975 l 258 976 l 189 976 l 178 978 l 161 978 l 139 974 l 119 972 l 103 967 l 86 956 l 74 932 l 69 894 l 72 861 l 81 842 l 92 829 l 104 819 l 124 815 l 153 817 l 242 814 l 267 814 l 285 813 l 296 814 l 329 817 l 358 815 l 364 811 l 371 794 l 374 771 l 374 756 l 375 744 l 375 726 l 374 704 l 376 690 l 375 679 l 375 650 l 374 606 l 374 568 l 375 544 l 376 507 l 376 471 l 375 456 l 375 444 l 378 411 l 378 314 l 379 260 l 378 236 l 378 207 l 376 181 l 378 146 l 375 119 l 375 99 l 374 78 l 374 49 l 379 22 l 388 14 l 394 6 l 414 -6 l 428 -8 l 451 -8 z "},"Ŧ":{"ha":926,"x_min":0,"x_max":0,"o":"m 479 -12 l 494 -7 l 519 4 l 529 8 l 538 24 l 543 40 l 546 57 l 544 72 l 542 86 l 538 96 l 538 108 l 540 126 l 539 149 l 539 183 l 540 196 l 539 208 l 542 224 l 540 236 l 540 257 l 539 294 l 542 315 l 539 324 l 542 338 l 542 357 l 543 379 l 543 399 l 542 411 l 560 413 l 601 408 l 632 410 l 642 410 l 663 408 l 682 411 l 704 414 l 724 435 l 731 451 l 733 471 l 733 489 l 732 503 l 728 525 l 715 551 l 675 563 l 601 564 l 560 564 l 546 571 l 544 581 l 544 594 l 546 628 l 547 657 l 549 681 l 550 708 l 549 735 l 549 767 l 550 796 l 558 808 l 581 814 l 681 811 l 717 814 l 764 813 l 807 818 l 833 826 l 843 838 l 849 846 l 853 857 l 857 876 l 856 889 l 856 907 l 846 940 l 815 964 l 788 968 l 754 971 l 621 974 l 585 975 l 551 974 l 524 975 l 497 974 l 464 972 l 426 972 l 396 974 l 364 974 l 346 975 l 265 975 l 258 976 l 189 976 l 178 978 l 161 978 l 139 974 l 119 972 l 103 967 l 86 956 l 74 932 l 69 894 l 72 861 l 81 842 l 92 829 l 104 819 l 124 815 l 153 817 l 242 814 l 267 814 l 285 813 l 296 814 l 329 817 l 358 815 l 364 811 l 371 794 l 374 771 l 374 756 l 375 744 l 375 726 l 374 704 l 376 690 l 375 679 l 375 650 l 374 597 l 339 564 l 292 565 l 264 565 l 226 561 l 192 539 l 185 517 l 183 496 l 185 458 l 194 429 l 213 415 l 233 407 l 283 410 l 301 411 l 319 410 l 360 410 l 378 382 l 378 314 l 379 260 l 378 236 l 378 207 l 376 181 l 378 146 l 375 119 l 375 99 l 374 78 l 374 49 l 379 22 l 388 14 l 394 6 l 414 -6 l 428 -8 l 451 -8 z "},"Ť":{"ha":926,"x_min":0,"x_max":0,"o":"m 479 -12 l 494 -7 l 519 4 l 529 8 l 538 24 l 543 40 l 546 57 l 544 72 l 542 86 l 538 96 l 538 108 l 540 126 l 539 149 l 539 183 l 540 196 l 539 208 l 542 224 l 540 236 l 540 257 l 539 294 l 542 315 l 539 324 l 542 338 l 542 357 l 543 379 l 543 399 l 544 419 l 547 435 l 546 450 l 547 465 l 544 476 l 547 490 l 547 521 l 546 539 l 547 549 l 546 564 l 544 581 l 544 594 l 546 628 l 547 657 l 549 681 l 550 708 l 549 735 l 549 767 l 550 796 l 558 808 l 581 814 l 681 811 l 717 814 l 764 813 l 807 818 l 833 826 l 843 838 l 849 846 l 853 857 l 857 876 l 856 889 l 856 907 l 846 940 l 815 964 l 788 968 l 754 971 l 621 974 l 585 975 l 551 974 l 524 975 l 497 974 l 464 972 l 426 972 l 396 974 l 364 974 l 346 975 l 265 975 l 258 976 l 189 976 l 178 978 l 161 978 l 139 974 l 119 972 l 103 967 l 86 956 l 74 932 l 69 894 l 72 861 l 81 842 l 92 829 l 104 819 l 124 815 l 153 817 l 242 814 l 267 814 l 285 813 l 296 814 l 329 817 l 358 815 l 364 811 l 371 794 l 374 771 l 374 756 l 375 744 l 375 726 l 374 704 l 376 690 l 375 679 l 375 650 l 374 606 l 374 568 l 375 544 l 376 507 l 376 471 l 375 456 l 375 444 l 378 411 l 378 314 l 379 260 l 378 236 l 378 207 l 376 181 l 378 146 l 375 119 l 375 99 l 374 78 l 374 49 l 379 22 l 388 14 l 394 6 l 414 -6 l 428 -8 l 451 -8 z m 436 1099 l 465 1099 l 493 1100 l 511 1107 l 529 1119 l 549 1139 l 568 1161 l 596 1196 l 617 1218 l 633 1238 l 650 1261 l 672 1296 l 678 1318 l 671 1336 l 660 1350 l 651 1358 l 635 1371 l 613 1385 l 594 1389 l 579 1388 l 565 1383 l 547 1365 l 540 1356 l 532 1346 l 524 1335 l 517 1325 l 511 1317 l 492 1296 l 465 1279 l 453 1286 l 403 1349 l 381 1372 l 354 1389 l 349 1390 l 332 1389 l 314 1385 l 283 1364 l 275 1357 l 256 1336 l 253 1311 l 261 1290 l 271 1274 l 281 1258 l 294 1244 l 306 1228 l 315 1217 l 329 1204 l 343 1186 l 353 1175 l 361 1165 l 374 1151 l 393 1128 l 413 1111 l 424 1103 z "},"Ţ":{"ha":926,"x_min":0,"x_max":0,"o":"m 479 -367 l 490 -367 l 504 -365 l 521 -361 l 538 -356 l 549 -351 l 564 -343 l 594 -325 l 614 -304 l 626 -286 l 639 -251 l 643 -211 l 643 -194 l 635 -162 l 617 -128 l 593 -103 l 568 -89 l 550 -78 l 532 -71 l 525 -67 l 518 -61 l 517 -54 l 519 -36 l 522 -19 l 528 -3 l 531 11 l 538 24 l 543 40 l 546 57 l 544 72 l 542 86 l 538 96 l 538 108 l 540 126 l 539 149 l 539 183 l 540 196 l 539 208 l 542 224 l 540 236 l 540 257 l 539 294 l 542 315 l 539 324 l 542 338 l 542 357 l 543 379 l 543 399 l 544 419 l 547 435 l 546 450 l 547 465 l 544 476 l 547 490 l 547 521 l 546 539 l 547 549 l 546 564 l 544 581 l 544 594 l 546 628 l 547 657 l 549 681 l 550 708 l 549 735 l 549 767 l 550 796 l 558 808 l 581 814 l 681 811 l 717 814 l 764 813 l 807 818 l 833 826 l 843 838 l 849 846 l 853 857 l 857 876 l 856 889 l 856 907 l 846 940 l 815 964 l 788 968 l 754 971 l 621 974 l 585 975 l 551 974 l 524 975 l 497 974 l 464 972 l 426 972 l 396 974 l 364 974 l 346 975 l 265 975 l 258 976 l 189 976 l 178 978 l 161 978 l 139 974 l 119 972 l 103 967 l 86 956 l 74 932 l 69 894 l 72 861 l 81 842 l 92 829 l 104 819 l 124 815 l 153 817 l 242 814 l 267 814 l 285 813 l 296 814 l 329 817 l 358 815 l 364 811 l 371 794 l 374 771 l 374 756 l 375 744 l 375 726 l 374 704 l 376 690 l 375 679 l 375 650 l 374 606 l 374 568 l 375 544 l 376 507 l 376 471 l 375 456 l 375 444 l 378 411 l 378 314 l 379 260 l 378 236 l 378 207 l 376 181 l 378 146 l 375 119 l 375 99 l 374 78 l 374 49 l 379 24 l 382 14 l 376 0 l 369 -24 l 364 -47 l 356 -68 l 353 -85 l 351 -104 l 354 -125 l 360 -137 l 369 -154 l 383 -165 l 396 -174 l 414 -176 l 439 -176 l 463 -175 l 478 -178 l 486 -186 l 490 -200 l 485 -212 l 469 -221 l 450 -225 l 429 -218 l 407 -204 l 394 -199 l 368 -192 l 346 -193 l 332 -201 l 308 -229 l 296 -254 l 296 -274 l 301 -294 l 324 -318 l 353 -337 l 372 -347 l 390 -353 l 406 -358 l 424 -361 l 444 -364 l 463 -364 z "},"U":{"ha":1093,"x_min":0,"x_max":0,"o":"m 488 -28 l 593 -28 l 674 -15 l 690 -10 l 715 -6 l 742 3 l 771 17 l 793 26 l 804 33 l 818 40 l 829 47 l 835 51 l 858 78 l 879 113 l 894 136 l 907 160 l 917 186 l 926 219 l 931 235 l 935 263 l 939 297 l 940 318 l 942 351 l 940 382 l 940 415 l 942 440 l 942 542 l 940 578 l 942 606 l 940 625 l 940 647 l 942 671 l 944 693 l 946 731 l 946 813 l 947 849 l 946 871 l 946 896 l 943 918 l 936 947 l 915 965 l 893 974 l 874 978 l 854 978 l 831 975 l 811 971 l 799 965 l 788 953 l 782 926 l 779 897 l 781 865 l 781 843 l 782 821 l 782 789 l 779 750 l 779 726 l 781 697 l 782 683 l 782 640 l 783 624 l 783 569 l 785 543 l 785 526 l 788 507 l 788 474 l 785 446 l 785 413 l 783 378 l 785 363 l 782 353 l 783 346 l 781 326 l 781 299 l 778 281 l 775 264 l 772 250 l 769 238 l 763 219 l 754 204 l 749 200 l 738 186 l 721 171 l 708 160 l 682 150 l 653 140 l 629 133 l 571 129 l 536 131 l 525 131 l 501 132 l 483 135 l 465 139 l 444 146 l 426 153 l 401 165 l 381 179 l 369 188 l 354 207 l 333 239 l 326 272 l 319 299 l 318 331 l 315 372 l 315 404 l 317 428 l 318 450 l 315 464 l 317 475 l 317 492 l 315 501 l 317 528 l 318 553 l 315 565 l 317 581 l 317 596 l 318 604 l 317 615 l 315 624 l 315 660 l 314 697 l 315 711 l 315 726 l 318 740 l 317 756 l 315 767 l 315 790 l 313 808 l 313 846 l 311 860 l 314 867 l 314 889 l 313 913 l 310 926 l 311 942 l 307 957 l 293 968 l 276 974 l 257 979 l 243 982 l 228 979 l 206 979 l 179 971 l 165 961 l 160 950 l 157 929 l 156 904 l 157 879 l 154 860 l 156 840 l 156 742 l 157 724 l 158 704 l 158 692 l 157 674 l 157 615 l 160 597 l 160 585 l 161 569 l 161 532 l 163 518 l 158 508 l 161 486 l 161 461 l 160 435 l 157 410 l 158 385 l 160 369 l 160 361 l 163 340 l 163 293 l 161 271 l 165 260 l 167 244 l 174 218 l 183 189 l 189 168 l 193 156 l 200 142 l 210 124 l 228 101 l 244 85 l 254 71 l 272 56 l 288 43 l 307 33 l 328 19 l 342 15 l 363 6 l 393 -6 l 435 -15 l 453 -18 l 469 -22 z "},"Ú":{"ha":1093,"x_min":0,"x_max":0,"o":"m 488 -28 l 593 -28 l 674 -15 l 690 -10 l 715 -6 l 742 3 l 771 17 l 793 26 l 804 33 l 818 40 l 829 47 l 835 51 l 858 78 l 879 113 l 894 136 l 907 160 l 917 186 l 926 219 l 931 235 l 935 263 l 939 297 l 940 318 l 942 351 l 940 382 l 940 415 l 942 440 l 942 542 l 940 578 l 942 606 l 940 625 l 940 647 l 942 671 l 944 693 l 946 731 l 946 813 l 947 849 l 946 871 l 946 896 l 943 918 l 936 947 l 915 965 l 893 974 l 874 978 l 854 978 l 831 975 l 811 971 l 799 965 l 788 953 l 782 926 l 779 897 l 781 865 l 781 843 l 782 821 l 782 789 l 779 750 l 779 726 l 781 697 l 782 683 l 782 640 l 783 624 l 783 569 l 785 543 l 785 526 l 788 507 l 788 474 l 785 446 l 785 413 l 783 378 l 785 363 l 782 353 l 783 346 l 781 326 l 781 299 l 778 281 l 775 264 l 772 250 l 769 238 l 763 219 l 754 204 l 749 200 l 738 186 l 721 171 l 708 160 l 682 150 l 653 140 l 629 133 l 571 129 l 536 131 l 525 131 l 501 132 l 483 135 l 465 139 l 444 146 l 426 153 l 401 165 l 381 179 l 369 188 l 354 207 l 333 239 l 326 272 l 319 299 l 318 331 l 315 372 l 315 404 l 317 428 l 318 450 l 315 464 l 317 475 l 317 492 l 315 501 l 317 528 l 318 553 l 315 565 l 317 581 l 317 596 l 318 604 l 317 615 l 315 624 l 315 660 l 314 697 l 315 711 l 315 726 l 318 740 l 317 756 l 315 767 l 315 790 l 313 808 l 313 846 l 311 860 l 314 867 l 314 889 l 313 913 l 310 926 l 311 942 l 307 957 l 293 968 l 276 974 l 257 979 l 243 982 l 228 979 l 206 979 l 179 971 l 165 961 l 160 950 l 157 929 l 156 904 l 157 879 l 154 860 l 156 840 l 156 742 l 157 724 l 158 704 l 158 692 l 157 674 l 157 615 l 160 597 l 160 585 l 161 569 l 161 532 l 163 518 l 158 508 l 161 486 l 161 461 l 160 435 l 157 410 l 158 385 l 160 369 l 160 361 l 163 340 l 163 293 l 161 271 l 165 260 l 167 244 l 174 218 l 183 189 l 189 168 l 193 156 l 200 142 l 210 124 l 228 101 l 244 85 l 254 71 l 272 56 l 288 43 l 307 33 l 328 19 l 342 15 l 363 6 l 393 -6 l 435 -15 l 453 -18 l 469 -22 z m 515 1090 l 532 1100 l 547 1121 l 565 1142 l 572 1158 l 586 1176 l 606 1201 l 613 1214 l 624 1229 l 639 1249 l 654 1264 l 665 1278 l 676 1296 l 686 1319 l 681 1339 l 672 1357 l 654 1372 l 628 1392 l 607 1400 l 590 1403 l 572 1403 l 558 1396 l 549 1386 l 542 1375 l 533 1367 l 526 1357 l 515 1343 l 507 1328 l 497 1319 l 490 1306 l 474 1285 l 461 1267 l 451 1250 l 436 1229 l 422 1206 l 411 1189 l 408 1172 l 413 1154 l 424 1133 l 447 1117 l 465 1108 l 485 1097 z "},"Û":{"ha":1093,"x_min":0,"x_max":0,"o":"m 488 -28 l 593 -28 l 674 -15 l 690 -10 l 715 -6 l 742 3 l 771 17 l 793 26 l 804 33 l 818 40 l 829 47 l 835 51 l 858 78 l 879 113 l 894 136 l 907 160 l 917 186 l 926 219 l 931 235 l 935 263 l 939 297 l 940 318 l 942 351 l 940 382 l 940 415 l 942 440 l 942 542 l 940 578 l 942 606 l 940 625 l 940 647 l 942 671 l 944 693 l 946 731 l 946 813 l 947 849 l 946 871 l 946 896 l 943 918 l 936 947 l 915 965 l 893 974 l 874 978 l 854 978 l 831 975 l 811 971 l 799 965 l 788 953 l 782 926 l 779 897 l 781 865 l 781 843 l 782 821 l 782 789 l 779 750 l 779 726 l 781 697 l 782 683 l 782 640 l 783 624 l 783 569 l 785 543 l 785 526 l 788 507 l 788 474 l 785 446 l 785 413 l 783 378 l 785 363 l 782 353 l 783 346 l 781 326 l 781 299 l 778 281 l 775 264 l 772 250 l 769 238 l 763 219 l 754 204 l 749 200 l 738 186 l 721 171 l 708 160 l 682 150 l 653 140 l 629 133 l 571 129 l 536 131 l 525 131 l 501 132 l 483 135 l 465 139 l 444 146 l 426 153 l 401 165 l 381 179 l 369 188 l 354 207 l 333 239 l 326 272 l 319 299 l 318 331 l 315 372 l 315 404 l 317 428 l 318 450 l 315 464 l 317 475 l 317 492 l 315 501 l 317 528 l 318 553 l 315 565 l 317 581 l 317 596 l 318 604 l 317 615 l 315 624 l 315 660 l 314 697 l 315 711 l 315 726 l 318 740 l 317 756 l 315 767 l 315 790 l 313 808 l 313 846 l 311 860 l 314 867 l 314 889 l 313 913 l 310 926 l 311 942 l 307 957 l 293 968 l 276 974 l 257 979 l 243 982 l 228 979 l 206 979 l 179 971 l 165 961 l 160 950 l 157 929 l 156 904 l 157 879 l 154 860 l 156 840 l 156 742 l 157 724 l 158 704 l 158 692 l 157 674 l 157 615 l 160 597 l 160 585 l 161 569 l 161 532 l 163 518 l 158 508 l 161 486 l 161 461 l 160 435 l 157 410 l 158 385 l 160 369 l 160 361 l 163 340 l 163 293 l 161 271 l 165 260 l 167 244 l 174 218 l 183 189 l 189 168 l 193 156 l 200 142 l 210 124 l 228 101 l 244 85 l 254 71 l 272 56 l 288 43 l 307 33 l 328 19 l 342 15 l 363 6 l 393 -6 l 435 -15 l 453 -18 l 469 -22 z m 432 1096 l 438 1097 l 464 1114 l 486 1136 l 524 1186 l 536 1200 l 549 1207 l 575 1190 l 594 1169 l 600 1161 l 607 1151 l 615 1140 l 624 1131 l 631 1122 l 640 1111 l 649 1103 l 663 1099 l 678 1097 l 696 1101 l 718 1117 l 735 1128 l 743 1136 l 754 1150 l 761 1168 l 756 1190 l 733 1225 l 717 1249 l 700 1268 l 679 1290 l 668 1306 l 651 1325 l 632 1347 l 613 1367 l 594 1379 l 576 1386 l 549 1388 l 519 1388 l 507 1383 l 496 1375 l 476 1358 l 457 1335 l 444 1322 l 436 1311 l 426 1300 l 413 1282 l 399 1269 l 389 1258 l 378 1243 l 364 1228 l 354 1213 l 344 1196 l 335 1175 l 339 1150 l 358 1129 l 367 1122 l 397 1101 l 415 1099 z "},"Ü":{"ha":1093,"x_min":0,"x_max":0,"o":"m 488 -28 l 593 -28 l 674 -15 l 690 -10 l 715 -6 l 742 3 l 771 17 l 793 26 l 804 33 l 818 40 l 829 47 l 835 51 l 858 78 l 879 113 l 894 136 l 907 160 l 917 186 l 926 219 l 931 235 l 935 263 l 939 297 l 940 318 l 942 351 l 940 382 l 940 415 l 942 440 l 942 542 l 940 578 l 942 606 l 940 625 l 940 647 l 942 671 l 944 693 l 946 731 l 946 813 l 947 849 l 946 871 l 946 896 l 943 918 l 936 947 l 915 965 l 893 974 l 874 978 l 854 978 l 831 975 l 811 971 l 799 965 l 788 953 l 782 926 l 779 897 l 781 865 l 781 843 l 782 821 l 782 789 l 779 750 l 779 726 l 781 697 l 782 683 l 782 640 l 783 624 l 783 569 l 785 543 l 785 526 l 788 507 l 788 474 l 785 446 l 785 413 l 783 378 l 785 363 l 782 353 l 783 346 l 781 326 l 781 299 l 778 281 l 775 264 l 772 250 l 769 238 l 763 219 l 754 204 l 749 200 l 738 186 l 721 171 l 708 160 l 682 150 l 653 140 l 629 133 l 571 129 l 536 131 l 525 131 l 501 132 l 483 135 l 465 139 l 444 146 l 426 153 l 401 165 l 381 179 l 369 188 l 354 207 l 333 239 l 326 272 l 319 299 l 318 331 l 315 372 l 315 404 l 317 428 l 318 450 l 315 464 l 317 475 l 317 492 l 315 501 l 317 528 l 318 553 l 315 565 l 317 581 l 317 596 l 318 604 l 317 615 l 315 624 l 315 660 l 314 697 l 315 711 l 315 726 l 318 740 l 317 756 l 315 767 l 315 790 l 313 808 l 313 846 l 311 860 l 314 867 l 314 889 l 313 913 l 310 926 l 311 942 l 307 957 l 293 968 l 276 974 l 257 979 l 243 982 l 228 979 l 206 979 l 179 971 l 165 961 l 160 950 l 157 929 l 156 904 l 157 879 l 154 860 l 156 840 l 156 742 l 157 724 l 158 704 l 158 692 l 157 674 l 157 615 l 160 597 l 160 585 l 161 569 l 161 532 l 163 518 l 158 508 l 161 486 l 161 461 l 160 435 l 157 410 l 158 385 l 160 369 l 160 361 l 163 340 l 163 293 l 161 271 l 165 260 l 167 244 l 174 218 l 183 189 l 189 168 l 193 156 l 200 142 l 210 124 l 228 101 l 244 85 l 254 71 l 272 56 l 288 43 l 307 33 l 328 19 l 342 15 l 363 6 l 393 -6 l 435 -15 l 453 -18 l 469 -22 z m 382 1115 l 425 1121 l 461 1138 l 482 1158 l 492 1179 l 496 1201 l 496 1217 l 493 1232 l 479 1267 l 456 1296 l 424 1310 l 390 1314 l 364 1306 l 340 1296 l 325 1282 l 307 1264 l 297 1231 l 299 1203 l 303 1181 l 314 1157 l 326 1143 l 346 1125 z m 686 1115 l 729 1121 l 764 1138 l 785 1158 l 796 1179 l 800 1201 l 800 1217 l 797 1232 l 782 1267 l 758 1296 l 728 1310 l 693 1314 l 668 1306 l 643 1296 l 628 1282 l 611 1264 l 599 1231 l 601 1203 l 606 1181 l 617 1157 l 629 1143 l 649 1125 z "},"Ù":{"ha":1093,"x_min":0,"x_max":0,"o":"m 488 -28 l 593 -28 l 674 -15 l 690 -10 l 715 -6 l 742 3 l 771 17 l 793 26 l 804 33 l 818 40 l 829 47 l 835 51 l 858 78 l 879 113 l 894 136 l 907 160 l 917 186 l 926 219 l 931 235 l 935 263 l 939 297 l 940 318 l 942 351 l 940 382 l 940 415 l 942 440 l 942 542 l 940 578 l 942 606 l 940 625 l 940 647 l 942 671 l 944 693 l 946 731 l 946 813 l 947 849 l 946 871 l 946 896 l 943 918 l 936 947 l 915 965 l 893 974 l 874 978 l 854 978 l 831 975 l 811 971 l 799 965 l 788 953 l 782 926 l 779 897 l 781 865 l 781 843 l 782 821 l 782 789 l 779 750 l 779 726 l 781 697 l 782 683 l 782 640 l 783 624 l 783 569 l 785 543 l 785 526 l 788 507 l 788 474 l 785 446 l 785 413 l 783 378 l 785 363 l 782 353 l 783 346 l 781 326 l 781 299 l 778 281 l 775 264 l 772 250 l 769 238 l 763 219 l 754 204 l 749 200 l 738 186 l 721 171 l 708 160 l 682 150 l 653 140 l 629 133 l 571 129 l 536 131 l 525 131 l 501 132 l 483 135 l 465 139 l 444 146 l 426 153 l 401 165 l 381 179 l 369 188 l 354 207 l 333 239 l 326 272 l 319 299 l 318 331 l 315 372 l 315 404 l 317 428 l 318 450 l 315 464 l 317 475 l 317 492 l 315 501 l 317 528 l 318 553 l 315 565 l 317 581 l 317 596 l 318 604 l 317 615 l 315 624 l 315 660 l 314 697 l 315 711 l 315 726 l 318 740 l 317 756 l 315 767 l 315 790 l 313 808 l 313 846 l 311 860 l 314 867 l 314 889 l 313 913 l 310 926 l 311 942 l 307 957 l 293 968 l 276 974 l 257 979 l 243 982 l 228 979 l 206 979 l 179 971 l 165 961 l 160 950 l 157 929 l 156 904 l 157 879 l 154 860 l 156 840 l 156 742 l 157 724 l 158 704 l 158 692 l 157 674 l 157 615 l 160 597 l 160 585 l 161 569 l 161 532 l 163 518 l 158 508 l 161 486 l 161 461 l 160 435 l 157 410 l 158 385 l 160 369 l 160 361 l 163 340 l 163 293 l 161 271 l 165 260 l 167 244 l 174 218 l 183 189 l 189 168 l 193 156 l 200 142 l 210 124 l 228 101 l 244 85 l 254 71 l 272 56 l 288 43 l 307 33 l 328 19 l 342 15 l 363 6 l 393 -6 l 435 -15 l 453 -18 l 469 -22 z m 579 1090 l 610 1097 l 629 1108 l 647 1117 l 671 1133 l 682 1154 l 686 1172 l 683 1189 l 672 1206 l 658 1229 l 643 1250 l 635 1267 l 621 1285 l 604 1306 l 597 1319 l 588 1328 l 579 1343 l 568 1357 l 561 1367 l 553 1375 l 546 1386 l 536 1396 l 522 1403 l 504 1404 l 488 1400 l 467 1392 l 440 1372 l 424 1357 l 414 1339 l 408 1321 l 418 1297 l 429 1278 l 440 1264 l 456 1249 l 471 1229 l 482 1214 l 489 1201 l 508 1176 l 522 1158 l 529 1142 l 547 1121 l 563 1100 z "},"Ű":{"ha":1093,"x_min":0,"x_max":0,"o":"m 488 -28 l 593 -28 l 674 -15 l 690 -10 l 715 -6 l 742 3 l 771 17 l 793 26 l 804 33 l 818 40 l 829 47 l 835 51 l 858 78 l 879 113 l 894 136 l 907 160 l 917 186 l 926 219 l 931 235 l 935 263 l 939 297 l 940 318 l 942 351 l 940 382 l 940 415 l 942 440 l 942 542 l 940 578 l 942 606 l 940 625 l 940 647 l 942 671 l 944 693 l 946 731 l 946 813 l 947 849 l 946 871 l 946 896 l 943 918 l 936 947 l 915 965 l 893 974 l 874 978 l 854 978 l 831 975 l 811 971 l 799 965 l 788 953 l 782 926 l 779 897 l 781 865 l 781 843 l 782 821 l 782 789 l 779 750 l 779 726 l 781 697 l 782 683 l 782 640 l 783 624 l 783 569 l 785 543 l 785 526 l 788 507 l 788 474 l 785 446 l 785 413 l 783 378 l 785 363 l 782 353 l 783 346 l 781 326 l 781 299 l 778 281 l 775 264 l 772 250 l 769 238 l 763 219 l 754 204 l 749 200 l 738 186 l 721 171 l 708 160 l 682 150 l 653 140 l 629 133 l 571 129 l 536 131 l 525 131 l 501 132 l 483 135 l 465 139 l 444 146 l 426 153 l 401 165 l 381 179 l 369 188 l 354 207 l 333 239 l 326 272 l 319 299 l 318 331 l 315 372 l 315 404 l 317 428 l 318 450 l 315 464 l 317 475 l 317 492 l 315 501 l 317 528 l 318 553 l 315 565 l 317 581 l 317 596 l 318 604 l 317 615 l 315 624 l 315 660 l 314 697 l 315 711 l 315 726 l 318 740 l 317 756 l 315 767 l 315 790 l 313 808 l 313 846 l 311 860 l 314 867 l 314 889 l 313 913 l 310 926 l 311 942 l 307 957 l 293 968 l 276 974 l 257 979 l 243 982 l 228 979 l 206 979 l 179 971 l 165 961 l 160 950 l 157 929 l 156 904 l 157 879 l 154 860 l 156 840 l 156 742 l 157 724 l 158 704 l 158 692 l 157 674 l 157 615 l 160 597 l 160 585 l 161 569 l 161 532 l 163 518 l 158 508 l 161 486 l 161 461 l 160 435 l 157 410 l 158 385 l 160 369 l 160 361 l 163 340 l 163 293 l 161 271 l 165 260 l 167 244 l 174 218 l 183 189 l 189 168 l 193 156 l 200 142 l 210 124 l 228 101 l 244 85 l 254 71 l 272 56 l 288 43 l 307 33 l 328 19 l 342 15 l 363 6 l 393 -6 l 435 -15 l 453 -18 l 469 -22 z m 456 1101 l 472 1111 l 489 1131 l 504 1151 l 511 1167 l 526 1186 l 535 1199 l 544 1210 l 553 1224 l 564 1239 l 579 1258 l 606 1288 l 615 1306 l 624 1329 l 619 1349 l 611 1365 l 597 1379 l 578 1393 l 560 1400 l 544 1403 l 526 1403 l 513 1396 l 503 1386 l 494 1375 l 488 1367 l 481 1357 l 468 1343 l 460 1329 l 450 1319 l 444 1306 l 428 1285 l 415 1267 l 406 1251 l 375 1207 l 365 1189 l 363 1172 l 365 1154 l 376 1136 l 393 1122 l 408 1114 l 428 1104 z m 689 1101 l 706 1111 l 722 1131 l 738 1151 l 744 1167 l 760 1186 l 768 1199 l 778 1210 l 786 1224 l 797 1239 l 813 1258 l 839 1288 l 849 1306 l 857 1329 l 853 1349 l 844 1365 l 831 1379 l 811 1393 l 793 1400 l 778 1403 l 760 1403 l 746 1396 l 736 1386 l 728 1375 l 721 1367 l 714 1357 l 701 1343 l 693 1329 l 683 1319 l 678 1306 l 661 1285 l 649 1267 l 639 1251 l 608 1207 l 599 1189 l 596 1172 l 599 1154 l 610 1136 l 626 1122 l 642 1114 l 661 1104 z "}}}
